<svg width="133" height="133" viewBox="0 0 133 133" fill="none" xmlns="http://www.w3.org/2000/svg">
<circle cx="66.5" cy="66.5" r="66.5" fill="url(#paint0_linear_64_827)"/>
<path d="M78.7497 86.7659C82.9434 82.9666 84.1855 76.4276 81.7525 71.3937C79.758 66.9515 75.2939 64.1095 70.6179 63.693C70.6033 63.693 70.596 63.6857 70.5887 63.6857L70.1942 63.6492C70.0627 63.6346 69.9531 63.7295 69.9385 63.861C69.9239 63.9925 70.0188 64.1021 70.1504 64.1168L70.3842 64.1387C77.8438 65.03 83.1919 73.2275 79.4365 80.8333C76.7551 86.4298 69.4782 88.9139 63.9401 86.101C54.8001 81.6077 55.5234 68.4201 64.8972 64.8108C64.8972 64.8108 64.8972 64.8108 64.8899 64.8035C73.2482 61.3404 74.5048 49.6506 66.4534 44.7627C60.5866 41.1973 52.5133 43.9225 50.0292 50.33C47.0775 57.8992 52.7032 65.2638 59.8998 65.6657H59.9436C60.0752 65.6803 60.1921 65.5853 60.2067 65.4538C60.2213 65.3223 60.1263 65.2127 60.0021 65.1908C53.9161 64.4894 49.5397 57.7969 52.6083 51.6013C54.7709 47.0715 60.7108 45.0477 65.1895 47.3272C72.5395 50.9291 72.0427 61.4573 64.6634 64.5332C58.6285 66.7908 54.8439 73.6367 56.3636 80.0296C57.5107 85.5019 62.4643 89.9221 68.0973 90.3897C71.9404 90.7623 75.9515 89.4399 78.7643 86.7732L78.7497 86.7659Z" fill="white"/>
<path d="M25.7976 55.8052L23.2785 55.0795L24.2044 51.8764L22.6862 51.4343L21.7603 54.6374L19.3747 53.9451L20.4257 50.3416L18.8742 49.8912L17.2727 55.4048L26.7985 58.1658L28.3917 52.6438L26.8402 52.2017L25.7976 55.8052Z" fill="white"/>
<path d="M23.2368 40.7324L28.9172 46.8132L20.6843 45.5287L19.6834 47.4055L30.135 48.8485L31.2611 46.7131L24.2294 38.8639L23.2368 40.7324Z" fill="white"/>
<path d="M33.5717 40.4571L31.5614 38.7805L33.6885 36.2197L32.479 35.2104L30.3519 37.7712L28.4418 36.1864L30.8441 33.3003L29.6012 32.2659L25.931 36.6785L33.5467 43.0179L37.2252 38.6054L35.9823 37.571L33.5717 40.4571Z" fill="white"/>
<path d="M37.0333 25.7847L41.2457 31.1315L33.4966 28.5624L31.9368 29.7969L38.076 37.5794L39.6358 36.3532L35.4318 31.0147L43.1642 33.5672L44.7241 32.341L38.5932 24.5502L37.0333 25.7847Z" fill="white"/>
<path d="M48.5027 21.2637L47.8103 19.8207L41.2624 22.9737L41.9631 24.4167L44.3403 23.274L47.9355 30.7478L49.7289 29.8887L46.1254 22.4148L48.5027 21.2637Z" fill="white"/>
<path d="M58.0118 17.1264L54.425 17.752L56.1267 27.503L58.0785 27.161L57.4279 23.4158L59.0628 23.1322C61.5736 22.6984 62.3243 21.0135 62.0657 19.5287C61.7737 17.8354 60.3641 16.7177 58.0201 17.1264H58.0118ZM58.7041 21.5723L57.1526 21.8393L56.6605 19.0032L58.212 18.7363C59.3131 18.5444 59.8969 18.9865 60.0554 19.8874C60.2056 20.7549 59.8135 21.3805 58.7125 21.5723H58.7041Z" fill="white"/>
<path d="M66.2697 16.4091H64.2845L64.2511 26.3102L69.5062 26.3269V24.7504L66.2447 24.7421L66.2697 16.4091Z" fill="white"/>
<path d="M75.1783 17.1598L69.7314 26.1768L71.775 26.5855L72.7843 24.8672L76.6547 25.6513L76.9216 27.6282L78.9819 28.0452L77.4555 17.6186L75.1866 17.1598H75.1783ZM73.6268 23.4158L75.8539 19.6372L76.4378 23.983L73.6268 23.4158Z" fill="white"/>
<path d="M89.809 22.1479L86.9062 28.3038L85.7384 20.2294L83.945 19.3869L79.716 28.3539L81.5177 29.2047L84.4121 23.0571L85.5883 31.1148L87.3817 31.9657L91.6107 22.9904L89.809 22.1479Z" fill="white"/>
<path d="M99.877 29.1296L95.5812 34.4097L96.3903 26.2852L94.8472 25.034L88.5911 32.7247L90.126 33.9759L94.4217 28.7125L93.621 36.8203L95.1558 38.0715L101.42 30.3808L99.877 29.1296Z" fill="white"/>
<path d="M103.535 32.8116L96.0927 39.3425L97.4022 40.8346L104.844 34.3037L103.535 32.8116Z" fill="white"/>
<path d="M110.404 42.2839L104.598 45.8456L108.051 38.4469L107.009 36.7536L98.559 41.9502L99.6017 43.6435L105.391 40.0818L101.954 47.4722L102.997 49.1655L111.438 43.9772L110.404 42.2839Z" fill="white"/>
<path d="M114.533 51.818C113.682 49.0821 111.029 47.614 108.202 48.4982C105.374 49.374 104.023 52.0766 104.882 54.8293C105.666 57.3483 107.96 58.5245 110.003 58.3076L111.655 57.7904L110.07 52.6689L108.619 53.1193L109.628 56.3724C108.202 56.5059 107.067 55.8302 106.617 54.3705C106.066 52.6105 106.892 51.0506 108.819 50.4501C110.704 49.8662 112.272 50.6669 112.798 52.3602C113.106 53.3612 112.931 54.2787 112.264 54.9627L112.94 57.1398C114.649 55.9387 115.2 53.9284 114.541 51.818H114.533Z" fill="white"/>
<path d="M106.425 77.6094L108.944 78.3351L108.018 81.5382L109.528 81.9803L110.454 78.7772L112.839 79.4696L111.797 83.0814L113.348 83.5318L114.941 78.0098L105.424 75.2488L103.822 80.7708L105.374 81.2212L106.425 77.6094Z" fill="white"/>
<path d="M108.986 92.6822L103.305 86.6014L111.53 87.886L112.531 86.0092L102.087 84.5661L100.953 86.7015L107.993 94.5507L108.986 92.6822Z" fill="white"/>
<path d="M98.6425 92.9575L100.661 94.6341L98.5257 97.1949L99.7352 98.2042L101.871 95.6434L103.781 97.2283L101.37 100.123L102.613 101.149L106.292 96.7361L98.6675 90.3967L94.9973 94.8093L96.2402 95.8436L98.6425 92.9575Z" fill="white"/>
<path d="M95.1892 107.63L90.9768 102.283L98.7176 104.852L100.277 103.626L94.1465 95.8353L92.5867 97.0614L96.7907 102.4L89.05 99.8475L87.4901 101.074L93.6293 108.864L95.1892 107.63Z" fill="white"/>
<path d="M83.7115 112.151L84.4038 113.594L90.9518 110.441L90.2595 108.998L87.8822 110.141L84.2787 102.667L82.4937 103.526L86.0888 111L83.7115 112.151Z" fill="white"/>
<path d="M74.2107 116.288L77.7975 115.663L76.0959 105.912L74.144 106.254L74.7946 109.999L73.1597 110.282C70.649 110.716 69.8982 112.401 70.1568 113.886C70.4488 115.579 71.8585 116.697 74.2024 116.288H74.2107ZM73.5184 111.842L75.0699 111.575L75.562 114.411L74.0105 114.678C72.9095 114.87 72.3256 114.428 72.1671 113.527C72.0169 112.66 72.409 112.034 73.51 111.842H73.5184Z" fill="white"/>
<path d="M65.9444 116.997L67.9297 117.006L67.9631 107.104L62.7164 107.088L62.708 108.664L65.9695 108.673L65.9444 116.997Z" fill="white"/>
<path d="M57.0359 116.255L62.4828 107.238L60.4392 106.829L59.4299 108.547L55.5595 107.763L55.2926 105.786L53.2322 105.369L54.7587 115.796L57.0276 116.255H57.0359ZM58.5874 109.999L56.3602 113.777L55.7764 109.432L58.5874 109.999Z" fill="white"/>
<path d="M42.4052 111.267L45.308 105.111L46.4758 113.185L48.2692 114.036L52.4982 105.061L50.7048 104.218L47.802 110.358L46.6343 102.3L44.8325 101.449L40.6118 110.424L42.4052 111.267Z" fill="white"/>
<path d="M32.3372 104.285L36.6413 99.005L35.8322 107.129L37.367 108.381L43.6314 100.69L42.0882 99.4387L37.8008 104.702L38.6015 96.5943L37.0584 95.3431L30.8024 103.034L32.3372 104.285Z" fill="white"/>
<path d="M34.8159 92.5722L27.3741 99.103L28.6836 100.595L36.1254 94.0643L34.8159 92.5722Z" fill="white"/>
<path d="M21.8188 91.1308L27.616 87.569L24.171 94.9678L25.2054 96.6611L33.6551 91.4644L32.6208 89.7711L26.8319 93.3329L30.2602 85.9424L29.2259 84.2491L20.7761 89.4458L21.8188 91.1308Z" fill="white"/>
<path d="M17.6815 81.5966C18.5323 84.3326 21.1848 85.8006 24.0125 84.9165C26.8403 84.0406 28.1916 81.338 27.3324 78.5854C26.5483 76.0663 24.2544 74.8902 22.2108 75.107L20.5592 75.6242L22.1441 80.7458L23.5955 80.2953L22.5862 77.0422C24.0125 76.9088 25.147 77.5844 25.5974 79.0441C26.1479 80.8042 25.3221 82.364 23.3953 82.9646C21.5101 83.5485 19.942 82.7477 19.4165 81.0544C19.1078 80.0535 19.283 79.1359 19.9503 78.4519L19.2747 76.2748C17.5647 77.476 17.0142 79.4862 17.6731 81.5966H17.6815Z" fill="white"/>
<defs>
<linearGradient id="paint0_linear_64_827" x1="133" y1="72.1136" x2="9.71309e-06" y2="72.4815" gradientUnits="userSpaceOnUse">
<stop stop-color="#BD6D21"/>
<stop offset="0.368596" stop-color="#EAA96B"/>
<stop offset="0.61512" stop-color="#CA8544"/>
<stop offset="1" stop-color="#BC6009"/>
</linearGradient>
</defs>
</svg>
