<svg xmlns="http://www.w3.org/2000/svg" width="30" height="15" viewBox="0 0 30 15" fill="none">
  <path d="M29.9545 7.78416C29.8331 8.27603 29.5194 8.56906 29.0489 8.68941C28.9528 8.71034 28.8516 8.71034 28.7555 8.71034C20.5448 8.71034 12.3291 8.71034 4.11842 8.71034C4.083 8.71034 4.05265 8.71034 3.997 8.71034C4.0223 8.74174 4.03747 8.75743 4.05771 8.77836C5.10491 9.85106 6.15211 10.929 7.19932 12.0017C7.50285 12.3104 7.80133 12.6191 8.09981 12.9279C8.2617 13.0953 8.37299 13.2889 8.42864 13.5139C8.50453 13.8226 8.45899 14.1157 8.30723 14.3825C8.1251 14.7017 7.85192 14.8953 7.50285 14.9686C7.48768 14.9686 7.47756 14.9895 7.46744 15C7.35109 15 7.23473 15 7.11331 15C7.09308 14.9843 7.07284 14.9581 7.05261 14.9581C6.8806 14.9372 6.72883 14.8587 6.59224 14.7541C6.5113 14.6913 6.43541 14.6128 6.35953 14.5395C5.77775 13.9482 5.20103 13.3569 4.61925 12.7604C3.74405 11.8604 2.87392 10.9604 1.99872 10.0604C1.48271 9.52663 0.961633 8.99814 0.445621 8.46964C0.283735 8.30219 0.121849 8.12428 0.0661999 7.88358C0.0358464 7.758 -0.00462565 7.62718 0.00043264 7.5016C0.00549094 7.25043 0.066198 7.00449 0.223026 6.79519C0.278675 6.7167 0.33938 6.64344 0.410206 6.57541C1.72553 5.22015 3.04592 3.87013 4.36125 2.51487C4.71031 2.15905 5.05938 1.80323 5.40845 1.44741C5.76258 1.08635 6.1167 0.720066 6.47083 0.35378C6.66813 0.149706 6.91602 0.0502855 7.1892 0.00842423C7.33085 -0.0125064 7.46238 0.00842424 7.59391 0.0398202C7.79121 0.0921468 7.96322 0.202033 8.10993 0.348547C8.30723 0.547388 8.43876 0.788091 8.46405 1.06542C8.49947 1.43694 8.39829 1.77183 8.14028 2.0387C7.29544 2.90732 6.45059 3.76547 5.61081 4.6341C5.21115 5.04224 4.81149 5.45562 4.41183 5.86901C4.30054 5.98412 4.18418 6.09924 4.07289 6.21436C4.05265 6.23529 4.03747 6.25622 4.00712 6.29285C4.04759 6.29285 4.07289 6.29285 4.09818 6.29285C12.319 6.29285 20.5398 6.29285 28.7606 6.29285C29.0742 6.29285 29.3525 6.38181 29.5902 6.58588C29.7369 6.71146 29.8381 6.87368 29.9089 7.05682C29.9393 7.13531 29.9545 7.2138 29.9747 7.28706C29.9747 7.28706 29.9848 7.28706 30 7.27659C30 7.38125 30 7.4859 30 7.59578C29.9798 7.54346 29.9595 7.49636 29.9393 7.44927C29.9393 7.51206 29.9393 7.58009 29.9393 7.64811C29.9393 7.6952 29.9494 7.74753 29.9545 7.79463L29.9545 7.78416Z" fill="#E7A362"/>
</svg>