<svg xmlns="http://www.w3.org/2000/svg" width="15" height="30" viewBox="0 0 15 30" fill="none">
  <path d="M7.78416 0.0455305C8.27603 0.166945 8.56906 0.4806 8.68941 0.951082C8.71034 1.0472 8.71034 1.14838 8.71034 1.2445C8.71034 9.45518 8.71034 17.6709 8.71034 25.8816C8.71034 25.917 8.71034 25.9473 8.71034 26.003C8.74174 25.9777 8.75744 25.9625 8.77837 25.9423C9.85106 24.8951 10.929 23.8479 12.0017 22.8007C12.3104 22.4971 12.6191 22.1987 12.9279 21.9002C13.0953 21.7383 13.2889 21.627 13.5139 21.5714C13.8227 21.4955 14.1157 21.541 14.3825 21.6928C14.7017 21.8749 14.8953 22.1481 14.9686 22.4971C14.9686 22.5123 14.9895 22.5224 15 22.5326C15 22.6489 15 22.7653 15 22.8867C14.9843 22.9069 14.9581 22.9272 14.9581 22.9474C14.9372 23.1194 14.8587 23.2712 14.7541 23.4078C14.6913 23.4887 14.6128 23.5646 14.5395 23.6405C13.9482 24.2222 13.3569 24.799 12.7604 25.3807C11.8604 26.2559 10.9604 27.1261 10.0604 28.0013C9.52664 28.5173 8.99814 29.0384 8.46964 29.5544C8.30219 29.7163 8.12428 29.8782 7.88358 29.9338C7.758 29.9642 7.62718 30.0046 7.5016 29.9996C7.25043 29.9945 7.00449 29.9338 6.79519 29.777C6.7167 29.7213 6.64344 29.6606 6.57542 29.5898C5.22016 28.2745 3.87013 26.9541 2.51487 25.6388C2.15905 25.2897 1.80323 24.9406 1.44741 24.5916C1.08635 24.2374 0.720067 23.8833 0.353781 23.5292C0.149707 23.3319 0.0502865 23.084 0.00842523 22.8108C-0.0125054 22.6692 0.00842523 22.5376 0.0398212 22.4061C0.0921478 22.2088 0.202034 22.0368 0.348548 21.8901C0.547389 21.6928 0.788092 21.5612 1.06542 21.5359C1.43694 21.5005 1.77183 21.6017 2.0387 21.8597C2.90732 22.7046 3.76548 23.5494 4.6341 24.3892C5.04225 24.7888 5.45563 25.1885 5.86901 25.5882C5.98412 25.6995 6.09924 25.8158 6.21436 25.9271C6.23529 25.9473 6.25622 25.9625 6.29285 25.9929C6.29285 25.9524 6.29285 25.9271 6.29285 25.9018C6.29285 17.681 6.29285 9.46023 6.29285 1.23944C6.29285 0.925788 6.38181 0.647545 6.58588 0.409775C6.71146 0.263065 6.87368 0.161886 7.05682 0.0910611C7.13531 0.0607074 7.2138 0.0455305 7.28706 0.0252947C7.28706 0.0252947 7.28706 0.0151768 7.27659 0C7.38125 0 7.4859 0 7.59578 0C7.54346 0.0202358 7.49636 0.0404716 7.44927 0.0607074C7.51206 0.0607074 7.58009 0.0607074 7.64811 0.0607074C7.6952 0.0607074 7.74753 0.0505895 7.79463 0.0455305H7.78416Z" fill="#E7A362"/>
</svg>
