<svg xmlns="http://www.w3.org/2000/svg" width="22" height="11" viewBox="0 0 22 11" fill="none">
  <path d="M0.0333888 5.29162C0.122426 4.93091 0.35244 4.71602 0.69746 4.62777C0.767948 4.61242 0.842146 4.61242 0.912634 4.61242C6.9338 4.61242 12.9587 4.61242 18.9798 4.61242C19.0058 4.61242 19.0281 4.61242 19.0689 4.61242C19.0503 4.58939 19.0392 4.57788 19.0243 4.56253C18.2564 3.77589 17.4884 2.98541 16.7205 2.19876C16.4979 1.97236 16.279 1.74596 16.0601 1.51956C15.9414 1.39677 15.8598 1.25479 15.819 1.08979C15.7633 0.863388 15.7967 0.648501 15.908 0.452799C16.0416 0.218725 16.2419 0.0767443 16.4979 0.0230229C16.509 0.0230229 16.5165 0.0076735 16.5239 -7.22282e-07C16.6092 -7.26011e-07 16.6945 -7.29741e-07 16.7836 -7.33633e-07C16.7984 0.0115111 16.8132 0.0306971 16.8281 0.0306971C16.9542 0.0460465 17.0655 0.103605 17.1657 0.180351C17.225 0.226399 17.2807 0.283958 17.3363 0.33768C17.763 0.771293 18.1859 1.20491 18.6125 1.64236C19.2544 2.30237 19.8925 2.96238 20.5343 3.6224C20.9127 4.0138 21.2948 4.40136 21.6732 4.78893C21.7919 4.91172 21.9106 5.04219 21.9515 5.21871C21.9737 5.3108 22.0034 5.40673 21.9997 5.49883C21.996 5.68302 21.9515 5.86337 21.8364 6.01686C21.7956 6.07442 21.7511 6.12814 21.6992 6.17803C20.7346 7.17188 19.7663 8.1619 18.8018 9.15576C18.5458 9.4167 18.2898 9.67763 18.0338 9.93857C17.7741 10.2033 17.5144 10.472 17.2547 10.7406C17.11 10.8902 16.9283 10.9631 16.7279 10.9938C16.624 11.0092 16.5276 10.9938 16.4311 10.9708C16.2864 10.9324 16.1603 10.8518 16.0527 10.7444C15.908 10.5986 15.8116 10.4221 15.793 10.2187C15.7671 9.94624 15.8413 9.70066 16.0305 9.50495C16.65 8.86796 17.2696 8.23865 17.8854 7.60166C18.1785 7.30235 18.4716 6.99921 18.7647 6.69606C18.8463 6.61164 18.9316 6.52722 19.0132 6.4428C19.0281 6.42745 19.0392 6.4121 19.0614 6.38524C19.0318 6.38524 19.0132 6.38524 18.9947 6.38524C12.9661 6.38524 6.93751 6.38524 0.908924 6.38524C0.678911 6.38524 0.474866 6.32001 0.300501 6.17035C0.192914 6.07826 0.118716 5.9593 0.0667779 5.825C0.0445185 5.76744 0.0333888 5.70988 0.0185492 5.65616C0.0185492 5.65616 0.0111295 5.65616 -2.33251e-07 5.66383C-2.36606e-07 5.58709 -2.39961e-07 5.51034 -2.43483e-07 5.42976C0.0148393 5.46813 0.0296789 5.50267 0.0445185 5.5372C0.0445185 5.49115 0.0445185 5.44127 0.0445185 5.39139C0.0445185 5.35685 0.0370987 5.31848 0.0333888 5.28394L0.0333888 5.29162Z" fill="#49413D"/>
</svg>