<svg width="37" height="37" viewBox="0 0 37 37" fill="none" xmlns="http://www.w3.org/2000/svg">
<path d="M18.6415 15.3689C17.0673 15.3689 15.6484 16.781 15.6349 18.3484C15.6214 19.9497 16.9794 21.3145 18.6009 21.3415C20.2157 21.355 21.594 19.997 21.594 18.389C21.594 16.7742 20.2292 15.3689 18.6415 15.3689Z" fill="white"/>
<path fill-rule="evenodd" clip-rule="evenodd" d="M26.1613 22.2604C26.1613 19.7403 26.1613 17.2066 26.1478 14.673C26.1478 12.5717 24.4925 10.8691 22.3912 10.8421C19.8036 10.8016 17.2024 10.8151 14.6147 10.8421C12.608 10.8691 10.8987 12.4569 10.8446 14.4568C10.7636 17.1391 10.7636 19.8213 10.8446 22.5036C10.8987 24.6048 12.6216 26.1318 14.7228 26.1453H22.2494C24.4722 26.152 26.1478 24.4832 26.1613 22.2604ZM23.5331 12.3015C24.1817 12.3015 24.6682 12.7744 24.6546 13.3825C24.6682 13.9771 24.1547 14.5041 23.5466 14.5041C22.952 14.5176 22.425 14.0041 22.4115 13.4095C22.4115 12.8217 22.925 12.3015 23.5331 12.3015ZM18.5739 23.0374C15.9862 22.9968 13.8985 20.8551 13.9525 18.2809C14.0201 15.7067 16.1213 13.673 18.6955 13.7136C21.2967 13.7541 23.2899 15.8148 23.2628 18.4295C23.2358 21.0037 21.1346 23.0779 18.5739 23.0374Z" fill="white"/>
<path fill-rule="evenodd" clip-rule="evenodd" d="M17.9388 0.00490199C28.141 -0.224816 36.681 7.64636 36.9783 17.916C37.2755 28.2938 29.1139 36.8136 18.9252 36.9893C8.5745 37.1649 0.183081 29.0505 -0.00608413 18.6863C-0.181756 8.74088 8.03399 0.24813 17.9388 0.00490199ZM8.95287 22.4901C8.99338 25.1859 10.9055 27.5303 13.5607 27.8817C14.676 28.031 15.8139 27.9934 16.9499 27.9558C17.4586 27.939 17.9669 27.9222 18.4726 27.9222V28.0438C18.916 28.0438 19.3601 28.0453 19.8046 28.0468C20.6942 28.0498 21.5848 28.0528 22.4723 28.0438C25.506 28.0033 28.0261 25.4967 28.0531 22.4631C28.0666 19.8213 28.0801 17.1796 28.0531 14.5514C28.0126 11.4637 25.533 8.9706 22.4453 8.94358C19.8306 8.91655 17.2159 8.91655 14.6012 8.94358C11.5 8.9706 9.0069 11.4096 8.95287 14.5108C8.91232 17.1661 8.91232 19.8348 8.95287 22.4901Z" fill="white"/>
</svg>
