<svg width="133" height="133" viewBox="0 0 133 133" fill="none" xmlns="http://www.w3.org/2000/svg">
<circle cx="66.5" cy="66.5" r="66.5" fill="url(#paint0_linear_203_315)"/>
<path d="M79.5224 86.584C83.7162 82.7848 84.9582 76.2458 82.5252 71.2119C80.5307 66.7697 76.0666 63.9276 71.3907 63.5112C71.376 63.5112 71.3687 63.5039 71.3614 63.5039L70.9669 63.4673C70.8354 63.4527 70.7258 63.5477 70.7112 63.6792C70.6966 63.8107 70.7915 63.9203 70.9231 63.9349L71.1569 63.9569C78.6165 64.8482 83.9646 73.0457 80.2092 80.6514C77.5278 86.2479 70.2509 88.732 64.7128 85.9192C55.5728 81.4259 56.2961 68.2383 65.6699 64.629C65.6699 64.629 65.6699 64.629 65.6626 64.6217C74.0209 61.1586 75.2775 49.4687 67.2261 44.5809C61.3593 41.0155 53.286 43.7407 50.8019 50.1482C47.8502 57.7174 53.4759 65.082 60.6725 65.4838H60.7164C60.8479 65.4985 60.9648 65.4035 60.9794 65.272C60.994 65.1404 60.899 65.0309 60.7748 65.0089C54.6888 64.3076 50.3124 57.6151 53.381 51.4195C55.5436 46.8897 61.4835 44.8659 65.9622 47.1454C73.3122 50.7473 72.8154 61.2755 65.4361 64.3514C59.4012 66.609 55.6167 73.4549 57.1363 79.8477C58.2834 85.3201 63.237 89.7403 68.87 90.2079C72.7131 90.5805 76.7242 89.2581 79.537 86.5913L79.5224 86.584Z" fill="white"/>
<path d="M17.4571 54.0664L17.0039 56.0078L26.6868 58.2682L27.14 56.3268L17.4571 54.0664Z" fill="white"/>
<path d="M28.1411 52.8919L21.8502 50.2365L29.8919 48.7287L30.6625 46.8858L21.4816 43.0241L20.7109 44.8586L27.0187 47.514L18.9602 49.0219L18.1812 50.8648L27.3621 54.7265L28.1411 52.8919Z" fill="white"/>
<path d="M25.8961 39.1205L32.7064 43.9288L33.8541 42.2953L27.0521 37.487L28.5767 35.3258L27.2615 34.396L23.0564 40.3519L24.3715 41.2817L25.8961 39.1205Z" fill="white"/>
<path d="M40.2456 35.3677L39.1063 34.2033L36.409 36.842L34.5661 34.9572L36.9619 32.6201L35.8561 31.4893L33.4604 33.8264L31.7264 32.0421L34.4237 29.4034L33.2928 28.2391L29.1631 32.2683L36.1158 39.3969L40.2456 35.3677Z" fill="white"/>
<path d="M42.9429 33.3824L40.8235 30.1322L41.611 29.6212L45.5648 31.6736L47.4998 30.4087L43.3031 28.3312C44.4088 27.0998 44.2999 25.7093 43.6381 24.6957C42.7251 23.2968 40.9659 22.7942 38.9639 24.1009L35.8394 26.1365L41.2675 34.4714L42.9429 33.3824ZM38.411 26.4381L39.8099 25.525C40.7398 24.9219 41.4602 25.1145 41.946 25.8517C42.4319 26.6056 42.3397 27.3679 41.4099 27.971L40.011 28.8841L38.4194 26.4381H38.411Z" fill="white"/>
<path d="M46.4981 20.0714L44.6809 20.8915L48.7711 29.9546L50.5883 29.1344L46.4981 20.0714Z" fill="white"/>
<path d="M53.975 17.4163C51.2526 18.1032 49.5437 20.7084 50.2725 23.5984C51.0013 26.4967 53.7489 27.9794 56.463 27.2925C59.1938 26.6056 60.8775 24.0004 60.1404 21.1021C59.4116 18.2121 56.7143 16.721 53.9667 17.4163H53.975ZM56.0357 25.5669C54.285 26.0109 52.7604 25.0559 52.2662 23.0957C51.772 21.1356 52.6599 19.6026 54.419 19.1587C56.1614 18.7231 57.6692 19.6445 58.1634 21.6047C58.6577 23.5648 57.7781 25.1229 56.0357 25.5669Z" fill="white"/>
<path d="M64.2953 22.0905H65.2335L67.4784 25.9187L69.782 25.8852L67.3528 21.8895C68.9444 21.4371 69.5978 20.2057 69.581 18.9995C69.5559 17.3325 68.3412 15.9671 65.9539 16.0006L62.2262 16.0509L62.3602 25.9941L64.3539 25.969L64.3036 22.0989L64.2953 22.0905ZM64.2366 17.676L65.9036 17.6508C67.0177 17.6341 67.5203 18.1869 67.5287 19.0665C67.5371 19.9628 67.0512 20.5576 65.9371 20.5659L64.2701 20.5911L64.2282 17.676H64.2366Z" fill="white"/>
<path d="M83.9304 24.2434C84.8016 21.3534 83.3943 18.8739 80.3535 17.9524L77.0279 16.9472L74.1547 26.4632L77.4803 27.4684C80.5211 28.3899 83.0676 27.1166 83.9304 24.2434ZM78.452 19.1335L79.8007 19.544C81.8027 20.1471 82.5817 21.6801 81.9786 23.657C81.3839 25.6339 79.9012 26.4381 77.8991 25.835L76.5505 25.4245L78.452 19.1335Z" fill="white"/>
<path d="M88.4287 32.3186L89.2078 30.8945L85.8906 29.0851L87.1555 26.7731L90.0957 28.3731L90.8496 26.9826L87.9178 25.3826L89.1073 23.1963L92.4245 25.0056L93.2035 23.5732L88.1355 20.8089L83.3692 29.5542L88.4287 32.3186Z" fill="white"/>
<path d="M95.1218 34.0526C94.6695 34.6054 93.9239 34.6306 93.1952 34.0358C92.4831 33.4494 92.4077 32.7039 92.8685 32.0505L91.2182 30.6935C90.0455 32.1594 90.59 34.0107 92.1816 35.3258C93.9323 36.7666 95.792 36.4735 96.7888 35.2672C99.017 32.5615 94.3763 30.1825 95.6412 28.6412C96.1605 28.0129 96.8558 28.0883 97.4422 28.6077C98.0956 29.1605 98.171 29.8893 97.794 30.4254L99.4861 31.816C100.525 30.35 100.114 28.6579 98.5395 27.3679C96.9563 26.0611 95.1469 25.9774 94.0077 27.3679C91.7041 30.1406 96.4872 32.4023 95.1218 34.0609V34.0526Z" fill="white"/>
<path d="M103.221 31.923L95.8419 38.5879L97.1782 40.0674L104.557 33.4025L103.221 31.923Z" fill="white"/>
<path d="M100.743 45.0597C102.15 47.3046 104.688 47.8491 106.606 47.112L108.081 46.1905L105.216 41.6336L103.926 42.4461L105.744 45.3445C104.387 45.8387 103.122 45.4785 102.301 44.1801C101.312 42.6136 101.706 40.8796 103.423 39.8074C105.099 38.7519 106.833 39.1289 107.779 40.6367C108.34 41.533 108.407 42.4629 107.938 43.3005L109.161 45.2439C110.51 43.6356 110.518 41.5414 109.337 39.665C107.804 37.2274 104.856 36.4902 102.334 38.0818C99.8128 39.665 99.2097 42.6388 100.751 45.0848L100.743 45.0597Z" fill="white"/>
<path d="M104.319 51.9118L110.812 49.826L105.693 56.2091L106.305 58.1107L115.787 55.0699L115.176 53.1684L108.667 55.2542L113.794 48.8711L113.191 46.9696L103.708 50.0103L104.319 51.9118Z" fill="white"/>
<path d="M106.102 74.7312L105.649 76.6726L115.332 78.933L115.785 76.9916L106.102 74.7312Z" fill="white"/>
<path d="M104.646 80.1164L110.937 82.7635L102.895 84.2797L102.116 86.1142L111.297 89.9843L112.076 88.1414L105.769 85.4943L113.827 83.9781L114.598 82.1436L105.417 78.2736L104.646 80.1164Z" fill="white"/>
<path d="M106.891 93.8879L100.081 89.0796L98.9249 90.7131L105.735 95.513L104.211 97.6825L105.526 98.6124L109.731 92.6481L108.416 91.7267L106.891 93.8879Z" fill="white"/>
<path d="M92.5418 97.6323L93.6727 98.7966L96.3784 96.1663L98.2212 98.0511L95.8255 100.388L96.9229 101.519L99.3186 99.182L101.061 100.966L98.3636 103.605L99.4945 104.761L103.624 100.74L96.6715 93.6114L92.5418 97.6323Z" fill="white"/>
<path d="M89.8444 99.626L91.9638 102.876L91.1764 103.387L87.2225 101.335L85.2875 102.591L89.4842 104.669C88.3785 105.9 88.4874 107.291 89.1492 108.304C90.0622 109.703 91.8214 110.206 93.8234 108.899L96.948 106.863L91.5198 98.5286L89.8444 99.6176V99.626ZM94.3763 106.57L92.9774 107.483C92.0475 108.086 91.3271 107.894 90.8413 107.157C90.3554 106.403 90.4476 105.64 91.3774 105.037L92.7763 104.124L94.3679 106.57H94.3763Z" fill="white"/>
<path d="M84.0224 103.033L82.2052 103.853L86.2954 112.916L88.1126 112.096L84.0224 103.033Z" fill="white"/>
<path d="M76.316 105.716C73.5852 106.403 71.9014 109.008 72.6386 111.906C73.3674 114.796 76.0647 116.287 78.8123 115.592C81.5347 114.905 83.2436 112.3 82.5148 109.41C81.786 106.512 79.0384 105.029 76.3244 105.716H76.316ZM78.3683 113.85C76.6259 114.285 75.1181 113.364 74.6239 111.404C74.1297 109.444 75.0092 107.885 76.7516 107.441C78.5023 106.998 80.0269 107.952 80.5211 109.913C81.0154 111.873 80.1274 113.406 78.3683 113.85Z" fill="white"/>
<path d="M68.4418 107.039L68.4921 110.909H67.5539L65.3089 107.081L63.0053 107.115L65.4345 111.111C63.843 111.563 63.1896 112.794 63.2063 114.001C63.2315 115.667 64.4461 117.033 66.8335 116.999L70.5611 116.949L70.4271 107.006L68.4334 107.031L68.4418 107.039ZM66.8837 115.349C65.7696 115.366 65.267 114.813 65.2586 113.934C65.2503 113.037 65.7361 112.442 66.8502 112.434L68.5172 112.409L68.5591 115.324L66.8921 115.349H66.8837Z" fill="white"/>
<path d="M48.8485 108.757C47.9773 111.647 49.3846 114.126 52.4254 115.048L55.751 116.053L58.6242 106.537L55.2986 105.532C52.2579 104.61 49.7113 105.883 48.8485 108.757ZM54.3269 113.866L52.9783 113.456C50.9762 112.853 50.1972 111.32 50.8003 109.343C51.3951 107.366 52.8778 106.562 54.8798 107.165L56.2285 107.576L54.3269 113.866Z" fill="white"/>
<path d="M44.3501 100.69L43.5795 102.114L46.8883 103.923L45.6318 106.235L42.6915 104.627L41.9292 106.017L44.8695 107.626L43.68 109.812L40.3628 108.003L39.5837 109.427L44.6517 112.191L49.4181 103.454L44.3501 100.69Z" fill="white"/>
<path d="M37.6655 98.9558C38.1178 98.4029 38.8634 98.3778 39.5921 98.9726C40.3042 99.5589 40.3796 100.304 39.9188 100.958L41.5691 102.315C42.7418 100.849 42.1973 98.9977 40.6057 97.6825C38.855 96.2417 36.9953 96.5349 35.9985 97.7412C33.7703 100.447 38.411 102.826 37.1461 104.367C36.6268 104.995 35.9315 104.92 35.3451 104.401C34.6917 103.848 34.6163 103.119 34.9933 102.583L33.3012 101.192C32.2625 102.658 32.6729 104.35 34.2478 105.64C35.831 106.947 37.6404 107.031 38.7796 105.64C41.0832 102.868 36.3001 100.606 37.6655 98.9474V98.9558Z" fill="white"/>
<path d="M35.6029 92.946L28.2241 99.6109L29.5604 101.09L36.9392 94.4255L35.6029 92.946Z" fill="white"/>
<path d="M32.0447 87.9404C30.6374 85.6954 28.0992 85.1509 26.181 85.8881L24.7067 86.8095L27.5715 91.3665L28.8615 90.5539L27.0438 87.6556C28.4008 87.1613 29.6657 87.5215 30.4866 88.8199C31.4751 90.3864 31.0814 92.1204 29.3641 93.1926C27.6888 94.2481 25.9548 93.8711 25.0082 92.3633C24.447 91.467 24.38 90.5372 24.8491 89.6995L23.626 87.7561C22.2774 89.3644 22.269 91.4586 23.4501 93.335C24.9831 95.7726 27.9317 96.5098 30.4531 94.9182C32.9745 93.335 33.5777 90.3613 32.0363 87.9152L32.0447 87.9404Z" fill="white"/>
<path d="M28.4678 81.0965L21.9758 83.1823L27.094 76.7992L26.4825 74.8977L17 77.9385L17.6115 79.84L24.1203 77.7458L18.9853 84.1373L19.5968 86.0388L29.0793 82.9981L28.4678 81.0965Z" fill="white"/>
<defs>
<linearGradient id="paint0_linear_203_315" x1="133" y1="72.1136" x2="9.71309e-06" y2="72.4815" gradientUnits="userSpaceOnUse">
<stop stop-color="#015052"/>
<stop offset="0.400786" stop-color="#08787B"/>
<stop offset="0.602027" stop-color="#076567"/>
<stop offset="1" stop-color="#015052"/>
</linearGradient>
</defs>
</svg>
