<svg width="37" height="37" viewBox="0 0 37 37" fill="none" xmlns="http://www.w3.org/2000/svg">
<path d="M23.8567 12.9249C21.0258 10.2697 16.9315 10.0265 13.9451 12.3439C10.871 14.7289 10.094 18.7827 12.0196 22.2555C12.1547 22.4852 12.1682 22.85 12.1142 23.1203C11.9655 23.8635 11.7493 24.5999 11.5331 25.4512C12.0871 25.3161 12.479 25.2485 12.8641 25.1134C13.783 24.7621 14.587 24.8432 15.5329 25.3026C18.83 26.9039 22.8365 25.6674 24.9378 22.5257C26.9376 19.5529 26.4579 15.3505 23.8567 12.9249ZM22.9649 21.3704C22.5595 22.2082 21.796 22.4987 20.8772 22.5798C19.4921 22.3906 18.2219 21.8231 17.1071 20.938C15.695 19.8097 14.5194 18.4854 14.087 16.6544C13.8843 15.7896 14.1411 14.9991 14.8032 14.3911C15.3843 13.8641 16.0666 13.9722 16.4585 14.6478C16.9585 15.5126 17.4855 16.4112 16.5261 17.3436C16.4315 17.4382 16.4585 17.7895 16.5531 17.9382C17.2017 19.0124 18.1138 19.7962 19.2489 20.3232C19.6137 20.4853 19.8705 20.4313 20.0867 20.0664C20.3434 19.634 20.6542 19.107 21.2285 19.3367C21.8906 19.6205 22.5055 20.0529 23.0595 20.5056C23.1811 20.6002 23.0865 21.1136 22.9649 21.3704Z" fill="white"/>
<path d="M18.4516 1.64824e-05C8.2698 -0.0134963 0 8.28332 0 18.5125C0 28.6267 8.21574 36.883 18.1881 36.9979C28.6808 37.1195 37.0046 28.62 36.9911 18.499C36.9776 8.28332 28.7213 0.0135292 18.4516 1.64824e-05ZM26.0255 24.0932C23.2216 27.6471 18.6814 28.7281 14.5329 26.8431C14.2762 26.735 13.9114 26.7079 13.6411 26.7755C12.1344 27.1539 10.6345 27.5592 9.00624 27.9984C9.43865 26.3836 9.84403 24.8905 10.2291 23.3906C10.2832 23.1338 10.2832 22.8095 10.1751 22.5798C7.39822 16.7355 10.8102 10.1481 17.195 9.07382C20.911 8.45223 24.7621 10.3237 26.762 13.7222C28.6267 16.9112 28.3295 21.1812 26.0255 24.0932Z" fill="white"/>
</svg>
