<svg width="38" height="37" viewBox="0 0 38 37" fill="none" xmlns="http://www.w3.org/2000/svg">
<path d="M19.476 0C9.3212 0.054051 1.03788 8.07386 0.970317 18.4719C0.902753 28.6065 9.25362 36.9844 19.3274 36.9979C29.6173 37.0114 37.9682 28.7754 37.9682 18.6206C37.975 8.31709 29.7052 0 19.476 0ZM10.9225 25.2958C10.8414 25.2553 10.7873 25.1877 10.6117 25.0256C12.6994 25.1067 14.5304 24.7283 16.2938 23.5054C14.5844 23.1 13.2872 22.4244 12.7129 20.688C13.1858 20.688 13.5642 20.688 13.9628 20.688C12.3616 19.8502 11.4292 18.6408 11.3211 16.7288C11.8346 16.8774 12.2535 16.999 12.8007 17.1612C11.1995 14.9924 10.9157 13.283 11.9765 11.9453C14.0777 14.3167 16.7464 15.5599 19.9219 15.9856C19.9219 15.7694 19.9354 15.5937 19.9219 15.4315C19.8409 13.7222 20.5976 12.452 22.0772 11.675C23.5839 10.8778 25.0703 11.0669 26.4553 12.0939C26.658 12.2561 27.0364 12.3236 27.2796 12.2561C27.9012 12.0804 28.5025 11.8101 29.1106 11.5804C29.1646 11.621 29.2187 11.6615 29.2728 11.702C28.8944 12.2966 28.516 12.8776 28.0836 13.5465C28.6376 13.3979 29.1376 13.2492 29.6579 13.1006C29.6984 13.1411 29.7389 13.1952 29.7795 13.2492C29.293 13.7492 28.8336 14.2897 28.2998 14.7559C27.9755 15.0532 27.8404 15.337 27.8134 15.7829C27.6647 18.9786 26.827 21.9109 24.3406 24.154C20.9354 27.2484 14.8074 27.7754 10.9225 25.2958Z" fill="white"/>
</svg>
