<svg width="101" height="67" viewBox="0 0 101 67" fill="none" xmlns="http://www.w3.org/2000/svg">
<path d="M31.9295 34.0737L30.3481 35.4195C30.3481 35.4195 30.1519 37.2899 30.0533 37.4871C29.9547 37.6843 29.6589 39.5576 29.6589 39.5576V41.2987C29.6589 41.5295 30.1519 43.0084 30.1519 43.107C30.1519 43.2056 30.5492 44.3917 30.7937 44.5386C31.0382 44.6855 31.9285 46.0441 31.9285 46.0441L33.8876 46.8891C33.8876 46.8891 34.8834 47.5438 35.1792 47.5438C35.475 47.5438 36.5655 47.9381 37.4006 47.5438C38.2357 47.1494 38.7454 46.9246 39.1802 46.8891C39.615 46.8536 40.4886 46.6387 40.9391 46.4996C41.3897 46.3606 42.5728 45.3747 42.6714 45.2761C42.77 45.1775 43.1368 44.4282 43.2492 44.3098C43.3616 44.1915 44.5447 41.3323 44.5447 41.3323L45.8265 35.2194L42.9672 35.9095C42.9672 35.9095 41.8827 36.2053 41.5869 36.2053C41.2911 36.2053 40.2066 36.0081 40.0094 36.0081C39.8122 36.0081 39.0234 36.0081 38.7276 35.8109C38.4319 35.6138 37.5721 35.6197 37.2625 35.4195C36.9529 35.2194 36.4521 35.0656 36.2588 34.896C36.0656 34.7264 35.7698 34.4306 35.2768 34.332C34.7838 34.2334 33.8817 34.2088 33.2477 34.0727C32.6138 33.9367 31.9266 34.0727 31.9266 34.0727L31.9295 34.0737Z" fill="#E7A362"/>
<path d="M55.2246 35.4205L54.702 36.1077L55.9837 42.0234C55.9837 42.0234 57.6214 45.6596 57.8866 45.7641C58.1518 45.8686 60.3219 47.1504 60.3219 47.1504L63.0826 47.8405C63.0826 47.8405 65.3503 47.6433 65.6461 47.3475C65.9418 47.0518 67.8704 45.7237 68.1878 45.5985C68.5053 45.4733 70.5758 42.7136 70.5758 42.7136C70.5758 42.7136 70.8716 38.967 70.8716 38.7698C70.8716 38.5726 70.773 36.5021 70.5758 36.0091C70.3786 35.5161 69.5149 34.3084 69.4538 34.0737C69.3927 33.839 67.0264 33.2485 66.9278 33.2485C66.8292 33.2485 64.458 33.1163 64.458 33.1163C64.458 33.1163 62.3471 33.5975 62.1726 33.7681C61.998 33.9386 61.0121 34.7708 60.7163 34.897C60.4205 35.0232 59.896 35.5221 59.4681 35.4205C59.0402 35.319 58.7858 35.4235 58.4693 35.4205C58.1528 35.4176 57.3986 35.5221 56.8879 35.4205C56.3771 35.319 55.9828 35.1218 55.8842 35.1218C55.7856 35.1218 55.2236 35.4205 55.2236 35.4205H55.2246Z" fill="#004F52"/>
<path d="M99.8378 23.3426C99.7303 23.3426 99.6219 23.3209 99.5193 23.2756L50.2741 1.33719L1.02885 23.2756C0.677848 23.4314 0.250932 23.3061 0.0754329 22.9946C-0.100066 22.683 0.0409247 22.3044 0.391923 22.1476L49.9556 0.0672911C50.1558 -0.0224304 50.3924 -0.0224304 50.5926 0.0672911L100.156 22.1476C100.507 22.3034 100.648 22.683 100.473 22.9946C100.349 23.2154 100.097 23.3426 99.8368 23.3426H99.8378Z" fill="#49413D"/>
<path d="M91.7747 8.00715V59.529H8.77447V8.00715H10.1952V58.2669H90.353V8.00715H91.7747Z" fill="#49413D"/>
<path d="M23.4474 61.5452C23.7885 61.0453 24.2253 60.9487 24.809 61.1144C26.4664 61.5837 28.1376 61.9997 29.7979 62.4582C30.0947 62.5401 30.1864 62.4878 30.2662 62.191C31.4898 57.5945 32.7262 53.001 33.9645 48.4084C34.0385 48.1324 34.0148 47.9805 33.7131 47.8425C29.7604 46.0274 27.8911 42.0599 29.0072 37.8627C30.0395 33.979 31.0855 30.0983 32.1277 26.2176C32.3397 25.4289 32.6818 25.2278 33.4706 25.4387C38.1449 26.6879 42.8193 27.9391 47.4937 29.1932C48.2223 29.3885 48.458 29.7572 48.2687 30.4612C47.1684 34.5647 46.1085 38.6791 44.9352 42.7619C43.8398 46.5736 39.9847 49 36.0646 48.4617C35.7392 48.4173 35.6465 48.5258 35.5706 48.8127C34.354 53.3944 33.1314 57.9741 31.8911 62.5499C31.7915 62.9187 31.8773 63.0291 32.2204 63.1168C33.857 63.5368 35.4878 63.9786 37.1196 64.4153C37.4055 64.4922 37.6944 64.5682 37.8787 64.8324C38.2307 65.3362 37.9862 65.8617 37.2507 66.1802H37.1521C37.1097 66.1565 37.0703 66.122 37.0259 66.1102C32.8356 64.9882 28.6463 63.8642 24.4531 62.753C24.0449 62.6446 23.686 62.5026 23.4484 62.1378V61.5462L23.4474 61.5452ZM45.0505 36.0821C44.316 36.3029 43.6929 36.4952 43.0658 36.6786C42.0187 36.9852 40.9618 37.1607 39.8605 37.0513C38.5344 36.9201 37.3739 36.3907 36.249 35.7192C34.8351 34.8753 33.3227 34.7303 31.7422 35.1868C31.5006 35.2568 31.3932 35.3742 31.335 35.6059C31.0668 36.6707 30.7582 37.7266 30.5127 38.7964C29.7338 42.1969 31.7905 45.6241 35.1861 46.6209C38.5167 47.598 42.2021 45.7424 43.2808 42.4395C43.9512 40.3858 44.4471 38.2758 45.0515 36.0831L45.0505 36.0821ZM31.9295 33.4111C32.7281 33.2948 33.441 33.2238 34.1666 33.3017C35.4365 33.4397 36.5645 33.9228 37.6441 34.5815C38.8193 35.2982 40.105 35.5763 41.4715 35.3337C42.7986 35.0981 44.0567 34.6022 45.3513 34.2453C45.5514 34.19 45.5859 34.0421 45.6283 33.8814C45.8837 32.931 46.1321 31.9795 46.4003 31.033C46.4861 30.7313 46.4171 30.6101 46.0976 30.5282C44.6197 30.1526 43.1496 29.7473 41.6766 29.353C39.1102 28.6667 36.5438 27.9835 33.9793 27.2904C33.7447 27.2273 33.5869 27.1849 33.5061 27.4945C32.9943 29.4437 32.4698 31.389 31.9295 33.4092V33.4111Z" fill="#49413D"/>
<path d="M63.0826 66.1792C62.8272 66.0431 62.5423 65.9534 62.4082 65.6547C62.1686 65.1203 62.4654 64.6234 63.1684 64.4331C64.7991 63.9924 66.4299 63.5467 68.0675 63.1346C68.4718 63.033 68.5733 62.9108 68.457 62.4829C67.2462 58.0352 66.0582 53.5817 64.8652 49.1292C64.7442 48.6789 64.4494 48.4755 63.9808 48.5189C60.1651 48.8748 56.4787 46.4385 55.4099 42.7412C54.4259 39.3377 53.5534 35.9026 52.6315 32.4814C52.4481 31.8001 52.2588 31.1208 52.0853 30.4375C51.9167 29.773 52.1306 29.3875 52.7902 29.21C57.5267 27.9352 62.2632 26.6653 67.0027 25.4003C67.6258 25.2337 68.0301 25.4683 68.1977 26.0954C69.3019 30.2315 70.4545 34.3567 71.4789 38.5125C72.3899 42.2068 70.3362 46.2038 66.8459 47.7488C66.3865 47.9519 66.3135 48.1521 66.4417 48.6194C67.6692 53.1134 68.874 57.6133 70.071 62.1151C70.1617 62.4572 70.2642 62.547 70.6271 62.4454C72.2371 61.9919 73.8629 61.5916 75.471 61.1321C76.0616 60.9635 76.5221 61.0365 76.8859 61.5442V62.0372C76.7232 62.4385 76.4028 62.6239 75.9975 62.7294C74.2692 63.1819 72.5437 63.6463 70.8193 64.1117C68.2726 64.7979 65.7269 65.489 63.1812 66.1782H63.0826V66.1792ZM70.0079 40.1491C70.0177 39.6897 69.9606 39.1375 69.8146 38.5933C69.576 37.7069 69.2546 36.8314 69.1314 35.9293C68.9815 34.8329 68.4363 34.4109 67.3675 34.2246C65.4696 33.8952 63.7017 34.0658 62.072 35.1119C60.1346 36.3562 58.0444 36.8127 55.7757 36.4351C55.4967 36.3887 55.4208 36.4548 55.4967 36.7308C56.0094 38.5953 56.459 40.4794 57.0377 42.3232C57.9951 45.3717 61.1807 47.3081 64.2785 46.8112C67.614 46.2758 70.0059 43.5378 70.0079 40.1481V40.1491ZM65.7575 32.3769C66.5442 32.4055 67.2088 32.508 67.8644 32.6628C68.1454 32.7299 68.248 32.7121 68.1543 32.3739C67.7116 30.7796 67.2817 29.1804 66.8706 27.5773C66.7878 27.2529 66.6734 27.2056 66.3638 27.2923C64.9756 27.6818 63.5795 28.0436 62.1863 28.4163C59.5746 29.1144 56.9618 29.8114 54.352 30.5174C54.1489 30.5726 53.8186 30.5322 53.9369 30.9492C54.2613 32.1008 54.5699 33.2564 54.8745 34.4129C54.9179 34.5785 54.9909 34.6791 55.1614 34.6939C56.0902 34.7737 57.0071 34.9581 57.9537 34.8763C59.3626 34.754 60.5359 34.0885 61.716 33.3993C62.9948 32.653 64.4047 32.3946 65.7575 32.3779V32.3769Z" fill="#49413D"/>
<path d="M50.4831 11.9519C51.053 12.1896 51.2236 12.6431 51.2186 13.2268C51.2058 14.8546 51.2157 16.4834 51.2127 18.1122C51.2127 18.2758 51.2019 18.4415 51.1703 18.6022C51.0776 19.0813 50.701 19.4028 50.2623 19.3929C49.7949 19.383 49.3818 19.0222 49.3769 18.5194C49.3562 16.6352 49.368 14.751 49.366 12.8669C49.366 12.3927 49.7032 12.1728 50.0434 11.9529H50.4831V11.9519Z" fill="#49413D"/>
<path d="M45.5613 20.5208C45.5514 20.9931 45.3808 21.2751 45.0318 21.4368C44.6847 21.5965 44.3495 21.559 44.0626 21.3066C43.9285 21.1893 43.8201 21.0335 43.7294 20.8777C42.8686 19.3949 42.0099 17.91 41.158 16.4212C40.7912 15.7794 40.8918 15.2351 41.4104 14.9522C41.9024 14.683 42.4072 14.8753 42.7631 15.4885C43.6249 16.9714 44.4777 18.4592 45.3355 19.944C45.4548 20.1511 45.5691 20.3591 45.5593 20.5198L45.5613 20.5208Z" fill="#49413D"/>
<path d="M55.9088 21.5157C55.3005 21.5127 54.8617 20.9261 55.0412 20.3434C55.0836 20.2053 55.1477 20.0702 55.2196 19.945C56.0853 18.4405 56.9569 16.9389 57.8206 15.4323C58.0385 15.0518 58.3362 14.8073 58.7888 14.8437C59.4148 14.893 59.8408 15.5733 59.5272 16.1412C58.6004 17.8203 57.6234 19.4718 56.6542 21.1272C56.4994 21.3924 56.2263 21.5176 55.9098 21.5166L55.9088 21.5157Z" fill="#49413D"/>
</svg>
