<svg width="38" height="38" viewBox="0 0 38 38" fill="none" xmlns="http://www.w3.org/2000/svg">
<g clip-path="url(#clip0_61_592)">
<path d="M17.5575 36.0695C18.0878 36.5999 18.9434 36.5928 19.4667 36.0695L33.128 22.4082C33.6583 21.8779 33.6583 21.0294 33.128 20.4991C32.5977 19.9687 31.7421 19.9758 31.2188 20.4991L19.8698 31.8481L19.8627 1.91629C19.8627 1.16676 19.2616 0.565717 18.5121 0.565717C17.7626 0.565716 17.1615 1.16676 17.1615 1.91629L17.1615 31.841L5.81248 20.492C5.28215 19.9617 4.42655 19.9687 3.90329 20.492C3.38003 21.0152 3.38003 21.8779 3.90329 22.4012L17.5646 36.0625L17.5575 36.0695Z" fill="#49413D"/>
</g>
<defs>
<clipPath id="clip0_61_592">
<rect width="26.18" height="26.18" fill="white" transform="translate(37.0242 18.5121) rotate(135)"/>
</clipPath>
</defs>
</svg>
