<svg width="148" height="148" viewBox="0 0 148 148" fill="none" xmlns="http://www.w3.org/2000/svg">
<circle cx="74" cy="74" r="74" fill="url(#paint0_linear_26_313)"/>
<path d="M88.7831 98.4572C93.8442 93.8722 95.3432 85.9808 92.407 79.9058C89.9999 74.5449 84.6126 71.115 78.9696 70.6124C78.9519 70.6124 78.9431 70.6036 78.9343 70.6036L78.4582 70.5595C78.2995 70.5419 78.1672 70.6565 78.1496 70.8152C78.1319 70.9739 78.2466 71.1062 78.4053 71.1238L78.6874 71.1503C87.6898 72.226 94.144 82.1189 89.612 91.2976C86.376 98.0516 77.5941 101.049 70.9106 97.6548C59.8803 92.2322 60.7532 76.3172 72.0657 71.9615C72.0657 71.9615 72.0657 71.9615 72.0569 71.9526C82.1438 67.7733 83.6603 53.6657 73.9438 47.767C66.8635 43.4642 57.1205 46.753 54.1227 54.4857C50.5605 63.6204 57.3497 72.5081 66.0347 72.9931H66.0876C66.2463 73.0107 66.3874 72.8961 66.405 72.7374C66.4227 72.5787 66.308 72.4464 66.1582 72.42C58.8134 71.5735 53.5319 63.4969 57.2351 56.0199C59.845 50.5533 67.0134 48.1109 72.4184 50.8619C81.2885 55.2087 80.6889 67.9144 71.7835 71.6264C64.5005 74.3509 59.9332 82.6127 61.7672 90.3277C63.1515 96.9318 69.1296 102.266 75.9276 102.831C80.5655 103.28 85.4062 101.684 88.8008 98.466L88.7831 98.4572Z" fill="white"/>
<path d="M33.7201 59.1471L32.0801 58.6798L30.9691 62.4888L28.3063 61.7217L29.285 58.3359L27.6891 57.8686L26.7104 61.2544L24.1886 60.5226L25.2908 56.7135L23.6508 56.2374L21.9667 62.0656L32.0272 64.9841L33.7201 59.1471Z" fill="white"/>
<path d="M36.7531 52.8781L29.3114 44.581L28.2622 46.5561L34.2667 52.9839L25.5729 51.626L24.5148 53.6099L35.554 55.1353L36.7531 52.8781Z" fill="white"/>
<path d="M43.0487 44.3077L41.7349 43.2144L39.1956 46.2651L37.0618 44.4929L39.319 41.786L38.0405 40.7191L35.7833 43.426L33.7641 41.7507L36.3123 38.7L34.9986 37.6066L31.1102 42.2709L39.1691 48.972L43.0487 44.3077Z" fill="white"/>
<path d="M45.5968 41.9271L41.1529 36.2841L49.3353 38.9821L50.9841 37.686L44.4947 29.4507L42.8458 30.7557L47.2985 36.4075L39.1162 33.6918L37.4673 34.9967L43.948 43.2232L45.5968 41.9271Z" fill="white"/>
<path d="M50.5697 28.1017L54.3788 36.0019L56.2656 35.0937L52.4654 27.1935L54.9783 25.9767L54.2465 24.4513L47.325 27.7842L48.0568 29.3096L50.5697 28.1017Z" fill="white"/>
<path d="M65.0917 32.2105L64.404 28.2516L66.1321 27.9518C68.7861 27.4933 69.5797 25.7122 69.3063 24.1427C68.9977 22.3528 67.5076 21.1713 65.03 21.6034L61.2386 22.2647L63.0373 32.572L65.1005 32.2105H65.0917ZM65.224 23.3051C66.3878 23.1023 67.0051 23.5696 67.1726 24.5219C67.3313 25.4389 66.9169 26.1002 65.753 26.303L64.113 26.5851L63.5928 23.5872L65.2328 23.3051H65.224Z" fill="white"/>
<path d="M77.1801 29.6623L73.7326 29.6535L73.759 20.8451H71.6605L71.6252 31.3111L77.1713 31.3288L77.1801 29.6623Z" fill="white"/>
<path d="M80.6453 29.7858L84.7365 30.6146L85.0186 32.7043L87.1965 33.1451L85.5829 22.1236L83.1846 21.6386L77.427 31.1701L79.5872 31.6021L80.6541 29.7858H80.6453ZM83.89 24.2574L84.5072 28.8511L81.5358 28.2516L83.89 24.2574Z" fill="white"/>
<path d="M92.9365 27.8724L94.1709 36.3899L96.0754 37.2892L100.537 27.8019L98.6412 26.9113L95.5729 33.4184L94.3384 24.8834L92.4427 23.9928L87.9724 33.4714L89.8681 34.3707L92.9365 27.8724Z" fill="white"/>
<path d="M98.9763 39.4142L103.508 33.8505L102.662 42.4208L104.293 43.7434L110.906 35.6139L109.284 34.2914L104.734 39.8727L105.598 31.2847L103.967 29.9621L97.3451 38.0916L98.9763 39.4142Z" fill="white"/>
<path d="M113.148 38.184L105.281 45.0875L106.666 46.6647L114.532 39.7612L113.148 38.184Z" fill="white"/>
<path d="M108.984 49.6333L115.103 45.8684L111.479 53.6804L112.572 55.4703L121.504 49.986L120.402 48.1961L114.274 51.9611L117.916 44.1402L116.822 42.3503L107.89 47.8434L108.984 49.6333Z" fill="white"/>
<path d="M118.074 54.7649C115.085 55.6908 113.657 58.5475 114.565 61.4572C115.394 64.12 117.819 65.3632 119.979 65.134L121.725 64.5873L120.049 59.1735L118.515 59.6497L119.582 63.0884C118.074 63.2295 116.875 62.5153 116.399 60.9723C115.817 59.1118 116.69 57.463 118.727 56.8282C120.72 56.211 122.377 57.0574 122.933 58.8473C123.259 59.9054 123.074 60.8753 122.368 61.5983L123.083 63.8996C124.89 62.6299 125.472 60.5049 124.775 58.2742C123.876 55.3821 121.072 53.8303 118.083 54.7649H118.074Z" fill="white"/>
<path d="M115.68 82.6688L115.203 84.7123L125.395 87.0933L125.872 85.0498L115.68 82.6688Z" fill="white"/>
<path d="M114.142 88.3321L120.764 91.1183L112.299 92.7143L111.479 94.6452L121.143 98.7188L121.963 96.779L115.323 93.9928L123.806 92.3968L124.617 90.4659L114.953 86.3923L114.142 88.3321Z" fill="white"/>
<path d="M116.505 102.828L109.337 97.7665L108.12 99.4859L115.288 104.538L113.683 106.822L115.068 107.801L119.494 101.523L118.11 100.544L116.505 102.828Z" fill="white"/>
<path d="M101.401 106.769L102.591 107.994L105.439 105.226L107.379 107.21L104.857 109.67L106.012 110.86L108.534 108.4L110.368 110.278L107.529 113.056L108.719 114.272L113.066 110.04L105.748 102.537L101.401 106.769Z" fill="white"/>
<path d="M98.5619 108.867L100.793 112.288L99.9638 112.826L95.8021 110.666L93.7653 111.989L98.1828 114.175C97.0189 115.471 97.1335 116.935 97.8301 118.002C98.7911 119.475 100.643 120.004 102.75 118.628L106.039 116.485L100.325 107.712L98.5619 108.859V108.867ZM103.332 116.177L101.86 117.138C100.881 117.773 100.123 117.57 99.6111 116.794C99.0909 116.001 99.1967 115.198 100.175 114.563L101.648 113.602L103.323 116.177H103.332Z" fill="white"/>
<path d="M92.4249 112.454L90.5121 113.317L94.8174 122.857L96.7301 121.993L92.4249 112.454Z" fill="white"/>
<path d="M84.3221 115.278C81.4477 116.001 79.6754 118.743 80.4425 121.793C81.2096 124.835 84.0488 126.405 86.9408 125.673C89.8064 124.95 91.6051 122.208 90.838 119.166C90.0709 116.115 87.1877 114.555 84.3221 115.278ZM86.4823 123.839C84.6483 124.298 83.0612 123.328 82.541 121.264C82.0208 119.201 82.9466 117.561 84.7806 117.094C86.6234 116.627 88.2281 117.632 88.7483 119.695C89.2686 121.758 88.3339 123.372 86.4823 123.839Z" fill="white"/>
<path d="M76.0339 116.671L76.0868 120.744H75.0992L72.7362 116.715L70.3115 116.75L72.8685 120.956C71.1932 121.432 70.5055 122.728 70.5231 123.998C70.5496 125.752 71.8281 127.19 74.341 127.154L78.2646 127.101L78.1235 116.635L76.025 116.662L76.0339 116.671ZM74.3939 125.417C73.2212 125.435 72.6921 124.853 72.6833 123.927C72.6745 122.984 73.1859 122.358 74.3586 122.349L76.1132 122.322L76.1573 125.391L74.4027 125.417H74.3939Z" fill="white"/>
<path d="M55.4104 118.478C54.4934 121.52 55.9747 124.13 59.1753 125.1L62.6758 126.158L65.7001 116.142L62.1996 115.084C58.999 114.114 56.3186 115.454 55.4104 118.478ZM61.1768 123.857L59.7573 123.425C57.65 122.79 56.8299 121.176 57.4648 119.095C58.0908 117.015 59.6515 116.168 61.7588 116.803L63.1783 117.235L61.1768 123.857Z" fill="white"/>
<path d="M50.6756 109.987L49.8644 111.486L53.3472 113.391L52.0158 115.824L48.9298 114.131L48.1274 115.595L51.2222 117.288L49.9702 119.589L46.4786 117.685L45.6586 119.184L50.993 122.093L56.01 112.897L50.6756 109.987Z" fill="white"/>
<path d="M43.6394 108.162C44.1155 107.58 44.9003 107.554 45.6674 108.18C46.4168 108.797 46.4962 109.582 46.0112 110.269L47.7482 111.698C48.9826 110.155 48.4095 108.206 46.7342 106.822C44.8914 105.305 42.934 105.614 41.8848 106.884C39.5394 109.731 44.4241 112.236 43.0927 113.858C42.5461 114.519 41.8142 114.44 41.197 113.893C40.5093 113.311 40.4299 112.544 40.8267 111.98L39.0456 110.516C37.9523 112.059 38.3843 113.84 40.042 115.198C41.7084 116.574 43.6129 116.662 44.8121 115.198C47.2368 112.28 42.2022 109.899 43.6394 108.153V108.162Z" fill="white"/>
<path d="M41.4684 101.836L33.7016 108.852L35.1082 110.409L42.875 103.394L41.4684 101.836Z" fill="white"/>
<path d="M37.7231 96.5674C36.2418 94.2044 33.5702 93.6312 31.551 94.4072L29.9992 95.3771L33.0147 100.174L34.3725 99.3184L32.4592 96.2676C33.8876 95.7474 35.219 96.1265 36.0831 97.4932C37.1235 99.142 36.7091 100.967 34.9016 102.096C33.1381 103.207 31.313 102.81 30.3166 101.223C29.7259 100.279 29.6553 99.3007 30.1491 98.419L28.8618 96.3734C27.4422 98.0663 27.4334 100.271 28.6766 102.246C30.2902 104.811 33.3938 105.587 36.0478 103.912C38.7018 102.246 39.3366 99.1156 37.7143 96.5409L37.7231 96.5674Z" fill="white"/>
<path d="M33.9581 89.3637L27.1248 91.5592L32.5121 84.8405L31.8684 82.839L21.8873 86.0396L22.531 88.0411L29.382 85.8368L23.977 92.5644L24.6207 94.5659L34.6018 91.3652L33.9581 89.3637Z" fill="white"/>
<defs>
<linearGradient id="paint0_linear_26_313" x1="184.288" y1="73.8095" x2="-8.00748" y2="73.8095" gradientUnits="userSpaceOnUse">
<stop offset="0.188312" stop-color="#E7A362"/>
<stop offset="0.356664" stop-color="#A1895D"/>
<stop offset="0.570093" stop-color="#4B6A57"/>
<stop offset="0.796655" stop-color="#155653"/>
<stop offset="1" stop-color="#004F52"/>
</linearGradient>
</defs>
</svg>
