<svg width="152" height="58" viewBox="0 0 152 58" fill="none" xmlns="http://www.w3.org/2000/svg">
<path d="M76.8565 2.57686C76.7816 2.56324 76.6999 2.55983 76.6216 2.55983C75.6648 2.55983 74.708 2.55983 73.7512 2.55983C73.7036 2.55983 73.6525 2.55983 73.6082 2.56664C73.5742 2.57345 73.5333 2.58707 73.5129 2.61091C73.4141 2.71986 73.4958 2.97523 73.6457 3.00247C73.8091 3.03312 73.9385 3.13526 74.0406 3.24082C74.2586 3.47235 74.3982 3.75155 74.3845 4.08864C74.3777 4.2691 74.3777 4.44956 74.3743 4.63343C74.3709 4.78324 74.3607 4.93306 74.2824 5.07266C74.2552 5.12373 74.2551 5.18843 74.2381 5.24631C74.1666 5.49487 74.1019 5.74343 74.0236 5.99199C73.9589 6.19288 73.8806 6.38696 73.8057 6.58444C73.7206 6.81598 73.6355 7.04751 73.5537 7.27905C73.489 7.4527 73.4278 7.62975 73.3665 7.80681C73.2984 8.00089 73.2337 8.19497 73.1656 8.38564C73.1145 8.52865 73.0634 8.66825 73.0089 8.80785C72.9374 8.99172 72.8659 9.17899 72.7944 9.36286C72.7059 9.6046 72.6174 9.84635 72.5289 10.0915C72.4676 10.2618 72.4063 10.432 72.3484 10.6022C72.2803 10.7963 72.219 10.9904 72.1509 11.1811C72.0998 11.3241 72.0488 11.4637 71.9943 11.6033C71.9194 11.8008 71.8411 11.9949 71.7696 12.1923C71.7015 12.383 71.6402 12.5805 71.5721 12.7712C71.487 13.0129 71.395 13.2547 71.3065 13.4998C71.2418 13.6735 71.1771 13.8505 71.109 14.0242C71.0375 14.2149 70.9626 14.4055 70.8945 14.5996C70.8264 14.7937 70.7651 14.9878 70.697 15.1785C70.6459 15.3249 70.5881 15.4713 70.5302 15.6177C70.4587 15.8084 70.3838 15.999 70.3157 16.1931C70.2476 16.3872 70.1863 16.5813 70.1182 16.7754C70.0773 16.8945 70.0331 17.0137 69.9888 17.1329C69.9139 17.3235 69.8356 17.5108 69.7641 17.7049C69.7028 17.8615 69.6483 18.0216 69.5938 18.1816C69.5257 18.3791 69.461 18.58 69.3895 18.7809C69.3044 19.0192 69.2193 19.2541 69.1308 19.4925C69.0661 19.6661 69.0014 19.8432 68.9367 20.0168C68.8584 20.2313 68.7834 20.4459 68.7017 20.6604C68.6779 20.7251 68.6473 20.7966 68.5962 20.8442C68.5315 20.9089 68.4634 20.8851 68.4293 20.8C68.317 20.5174 68.208 20.2313 68.0957 19.9487C68.0854 19.9249 68.0718 19.9045 68.065 19.884C67.9901 19.7138 67.9118 19.547 67.8437 19.3767C67.7722 19.1997 67.7075 19.0192 67.636 18.8421C67.5883 18.7196 67.5373 18.597 67.4828 18.4778C67.4147 18.3178 67.3364 18.1646 67.2717 18.0045C67.2002 17.8275 67.1423 17.647 67.0708 17.47C66.9856 17.252 66.8937 17.0409 66.8018 16.823C66.7439 16.6834 66.6894 16.5472 66.6315 16.4076C66.5805 16.2816 66.526 16.1523 66.4715 16.0263C66.4 15.8628 66.3183 15.7028 66.2502 15.536C66.1787 15.3589 66.1174 15.1785 66.0493 15.0014C66.0221 14.9299 65.9778 14.8652 65.9472 14.7937C65.8791 14.6235 65.8144 14.4464 65.7429 14.2761C65.6952 14.1536 65.6407 14.0344 65.5896 13.9118C65.5147 13.7348 65.4364 13.5611 65.3649 13.3841C65.3002 13.224 65.2457 13.0572 65.1776 12.9006C65.1061 12.7303 65.021 12.5669 64.9461 12.3966C64.8508 12.1787 64.7622 11.954 64.6737 11.7327C64.6124 11.5829 64.5579 11.433 64.4967 11.2832C64.4694 11.2185 64.4456 11.147 64.4081 11.0891C64.3571 11.0074 64.3571 10.9393 64.3945 10.8542C64.4762 10.6669 64.5511 10.4763 64.6192 10.2856C64.6873 10.0983 64.7452 9.90764 64.8099 9.72037C64.861 9.57396 64.9189 9.42755 64.9734 9.28114C65.0483 9.09046 65.1232 8.90319 65.1981 8.70911C65.2866 8.47417 65.3751 8.23583 65.4603 7.99748C65.5284 7.80681 65.593 7.61273 65.6611 7.41865C65.7224 7.2484 65.7803 7.07816 65.845 6.91132C65.9199 6.71383 66.0016 6.51975 66.0731 6.32567C66.1412 6.14521 66.1889 5.95794 66.2672 5.78429C66.4341 5.41315 66.6145 5.04542 66.7916 4.67769C66.955 4.3406 67.1559 4.02395 67.4079 3.74815C67.7007 3.42468 68.0071 3.11483 68.4498 2.99907C68.5179 2.98204 68.5451 2.94118 68.5553 2.87308C68.5928 2.61431 68.5621 2.58026 68.2999 2.58026C67.35 2.58026 66.4 2.58026 65.45 2.57686C65.4024 2.57686 65.3513 2.57686 65.307 2.58707C65.2798 2.59048 65.2491 2.6075 65.2321 2.62793C65.1368 2.7437 65.2219 2.98204 65.3683 3.0229C65.4126 3.03652 65.4671 3.04333 65.5011 3.07057C65.6271 3.16931 65.7565 3.26125 65.8552 3.40085C65.9301 3.51321 65.9403 3.63579 65.988 3.75155C66.0936 4.01033 66.0697 4.2691 66.0118 4.53468C65.9472 4.82751 65.9267 5.13054 65.8178 5.41315C65.7326 5.63107 65.6816 5.8626 65.6067 6.08392C65.5454 6.26438 65.4637 6.44144 65.3956 6.6219C65.3377 6.77512 65.2866 6.92834 65.2321 7.08156C65.164 7.27564 65.0993 7.46632 65.0312 7.6604C64.9836 7.79659 64.9325 7.92939 64.878 8.06558C64.8031 8.25626 64.7248 8.44353 64.6567 8.63761C64.5852 8.82828 64.5239 9.02577 64.4558 9.21644C64.3741 9.44798 64.2822 9.67611 64.2004 9.91105C64.1732 9.98255 64.1494 10.0506 64.0608 10.0541C63.9655 10.0609 63.9485 9.98936 63.9212 9.91786C63.8599 9.74421 63.7918 9.57056 63.7203 9.40031C63.6488 9.22325 63.5637 9.05301 63.4922 8.87595C63.4207 8.6989 63.356 8.51844 63.2879 8.33798C63.2062 8.13368 63.1211 7.92939 63.0394 7.72509C62.9815 7.58208 62.9236 7.43567 62.8657 7.29267C62.818 7.1769 62.7738 7.06113 62.7227 6.94536C62.6444 6.77171 62.5627 6.59806 62.4878 6.42441C62.3958 6.2099 62.3073 5.99539 62.2188 5.77748C62.1575 5.62766 62.0996 5.47785 62.0417 5.32463C61.9736 5.14416 61.9157 4.9637 61.8476 4.78665C61.7761 4.59938 61.6638 4.41892 61.6263 4.22484C61.5786 3.97968 61.5752 3.72091 61.5821 3.46894C61.5855 3.24082 61.7319 3.10121 61.943 3.02631C62.0621 2.98545 62.1336 2.85606 62.1132 2.72327C62.0962 2.62112 62.0417 2.58707 61.8749 2.58367C61.8681 2.58367 61.8613 2.58367 61.8578 2.58367C60.4346 2.58367 59.0147 2.58367 57.5915 2.58367C57.5336 2.58367 57.4757 2.59048 57.4008 2.59729C57.4008 2.71305 57.394 2.8152 57.4042 2.91394C57.4076 2.9514 57.4519 2.99907 57.4893 3.01609C57.8469 3.17953 58.1465 3.42128 58.3848 3.72772C58.5857 3.9899 58.773 4.26229 58.9501 4.54149C59.0726 4.73217 59.168 4.93987 59.2701 5.14416C59.3552 5.31441 59.4335 5.49147 59.5119 5.66512C59.5834 5.82515 59.6446 5.98518 59.7093 6.14861C59.7774 6.31545 59.8387 6.4823 59.9068 6.64914C59.9545 6.77171 60.009 6.89429 60.0601 7.01346C60.135 7.19052 60.2133 7.36417 60.2882 7.54122C60.3699 7.73531 60.4482 7.92939 60.5265 8.12347C60.5912 8.2835 60.6593 8.44353 60.724 8.60696C60.7921 8.7738 60.8534 8.94065 60.9181 9.10749C60.9658 9.23006 61.0202 9.35264 61.0713 9.47181C61.1462 9.64206 61.2245 9.8089 61.296 9.98255C61.3812 10.1868 61.4663 10.3911 61.548 10.5954C61.6127 10.7555 61.6774 10.9189 61.7421 11.0789C61.8102 11.2458 61.8715 11.416 61.9396 11.5795C62.0111 11.7463 62.0928 11.9063 62.1609 12.0698C62.2562 12.2911 62.3482 12.5124 62.4333 12.7337C62.4878 12.8767 62.5286 13.0231 62.4741 13.1764C62.4333 13.2887 62.3822 13.3977 62.3379 13.51C62.246 13.7314 62.1541 13.9527 62.0655 14.1774C62.0043 14.3272 61.9464 14.4804 61.8885 14.6303C61.817 14.8073 61.7455 14.9878 61.674 15.1648C61.6059 15.3317 61.5276 15.4951 61.4629 15.662C61.3948 15.8356 61.3335 16.0127 61.2654 16.1829C61.1803 16.4008 61.0883 16.6153 60.9998 16.8332C60.9351 16.9899 60.867 17.1431 60.8023 17.2997C60.7308 17.47 60.6559 17.6436 60.5878 17.8139C60.5197 17.9841 60.4516 18.1612 60.3835 18.3348C60.312 18.5085 60.2337 18.6753 60.1622 18.849C60.1077 18.9749 60.0566 19.1043 60.009 19.2337C59.9443 19.4006 59.8796 19.5708 59.8149 19.7376C59.7638 19.867 59.7093 19.993 59.6583 20.119C59.5766 20.3131 59.4948 20.5037 59.4199 20.7012C59.3723 20.8204 59.3144 20.926 59.1918 21.0009C59.1237 20.8306 59.059 20.6706 58.9977 20.5106C58.933 20.3369 58.8751 20.1598 58.8139 19.9862C58.807 19.9624 58.79 19.9453 58.7798 19.9215C58.7049 19.741 58.63 19.5572 58.5585 19.3767C58.4904 19.1997 58.4291 19.0158 58.3678 18.8353C58.361 18.8183 58.3474 18.8047 58.3406 18.7911C58.3167 18.7366 58.2895 18.6821 58.2691 18.6276C58.2044 18.4472 58.1465 18.2667 58.0818 18.0863C58.058 18.0182 58.0103 17.9603 57.9865 17.8956C57.9184 17.7117 57.8605 17.521 57.7924 17.3372C57.7685 17.2691 57.7209 17.2112 57.697 17.1465C57.6289 16.9558 57.5642 16.7617 57.4996 16.5711C57.4927 16.554 57.4825 16.5404 57.4757 16.5234C57.4042 16.36 57.3293 16.1965 57.2646 16.0297C57.1931 15.8458 57.1386 15.6551 57.0739 15.4679C57.0671 15.4508 57.0603 15.4338 57.0535 15.4168C56.9786 15.2363 56.8969 15.0593 56.8254 14.8754C56.7573 14.695 56.7028 14.5145 56.6381 14.3306C56.6313 14.3068 56.6143 14.2864 56.6075 14.2659C56.5326 14.0889 56.4542 13.9152 56.3895 13.7382C56.3215 13.5543 56.2602 13.367 56.1955 13.1798C56.1887 13.1627 56.1784 13.1491 56.1716 13.1321C56.141 13.0606 56.1104 12.9891 56.0831 12.9176C56.0627 12.8665 56.0525 12.812 56.032 12.7644C55.9605 12.5941 55.8788 12.4273 55.8141 12.2536C55.7426 12.0698 55.6847 11.8791 55.6234 11.6952C55.6166 11.6782 55.6098 11.6612 55.603 11.6441C55.5281 11.4671 55.4464 11.2968 55.3783 11.1164C55.3068 10.9325 55.2523 10.7418 55.1876 10.5546C55.1808 10.5307 55.1638 10.5103 55.157 10.4899C55.0821 10.306 55.0037 10.1256 54.9356 9.94169C54.8675 9.76464 54.8097 9.58077 54.745 9.40031C54.7416 9.39009 54.7348 9.37988 54.728 9.36626C54.6939 9.28454 54.6599 9.19942 54.6292 9.1177C54.6156 9.07684 54.602 9.03598 54.5884 8.99853C54.5543 8.91 54.5168 8.82147 54.4828 8.73295C54.4658 8.68868 54.4522 8.64101 54.4317 8.59675C54.3602 8.41969 54.2819 8.24604 54.2138 8.06899C54.1457 7.88853 54.0878 7.70807 54.0265 7.52761C54.0197 7.51058 54.0095 7.49696 54.0027 7.47994C53.9244 7.29267 53.8427 7.1054 53.7712 6.91813C53.7065 6.74447 53.6486 6.56742 53.5873 6.39377C53.5805 6.37674 53.5669 6.36312 53.5601 6.3461C53.5294 6.2746 53.4988 6.20309 53.4715 6.13159C53.4068 5.95113 53.3524 5.76726 53.2775 5.59021C53.1787 5.35867 53.1072 5.12033 53.0221 4.88539C52.954 4.69812 52.8893 4.51425 52.8552 4.31677C52.8552 4.29974 52.845 4.28272 52.8314 4.2691C52.7565 4.17717 52.7497 4.06821 52.7463 3.95925C52.7463 3.84349 52.7463 3.73112 52.7463 3.61536C52.7463 3.33956 52.9233 3.10121 53.1923 3.00588C53.2298 2.99226 53.2911 2.97183 53.2945 2.94459C53.3115 2.83904 53.3319 2.72667 53.3081 2.62793C53.2843 2.536 53.1719 2.58367 53.097 2.57345C53.08 2.57345 53.0595 2.57345 53.0425 2.57345C51.6499 2.57345 50.2573 2.57345 48.8681 2.57005C48.7966 2.57005 48.7217 2.57345 48.6536 2.58707C48.6161 2.59388 48.5719 2.62112 48.5548 2.65176C48.497 2.75391 48.5514 2.93097 48.6502 2.98885C48.7421 3.04333 48.8443 3.08759 48.926 3.15229C49.0928 3.27827 49.2665 3.40425 49.4095 3.55407C49.7227 3.89115 49.9713 4.27591 50.1688 4.69131C50.2266 4.81048 50.2879 4.92625 50.3458 5.04542C50.4173 5.19183 50.4922 5.33484 50.5569 5.48466C50.6489 5.69917 50.7374 5.91708 50.8225 6.13499C50.8872 6.29503 50.9485 6.45846 51.0064 6.6219C51.0745 6.80917 51.1358 6.99644 51.2073 7.1803C51.2754 7.36076 51.3605 7.53101 51.432 7.71147C51.5273 7.94981 51.6159 8.19156 51.7078 8.42991C51.718 8.45715 51.7214 8.48779 51.7316 8.51844C51.8031 8.71592 51.8712 8.91341 51.9461 9.10749C52.0142 9.28114 52.0925 9.44798 52.1606 9.62163C52.2492 9.84976 52.3309 10.0813 52.4194 10.3128C52.4807 10.4763 52.5454 10.6363 52.6033 10.7997C52.6748 10.9972 52.7463 11.1947 52.8178 11.3922C52.8961 11.5999 52.971 11.8076 53.0527 12.0153C53.1208 12.1957 53.1923 12.3728 53.2604 12.5533C53.3319 12.7303 53.4034 12.9074 53.4715 13.0878C53.5396 13.2717 53.6009 13.4624 53.6724 13.6462C53.7405 13.8267 53.8222 14.0004 53.8937 14.1774C53.9925 14.4226 54.0844 14.6677 54.1798 14.9163C54.19 14.9401 54.1934 14.9639 54.2002 14.9844C54.2649 15.1716 54.3262 15.3589 54.3943 15.5462C54.4658 15.7301 54.5509 15.9105 54.6224 16.091C54.7177 16.3293 54.8097 16.5711 54.9016 16.8094C54.9118 16.8366 54.9186 16.8673 54.9288 16.8945C54.9969 17.0852 55.0582 17.2793 55.1331 17.47C55.2012 17.6504 55.283 17.8241 55.3545 18.0011C55.4464 18.2361 55.5349 18.471 55.6234 18.7059C55.6371 18.7468 55.6439 18.7877 55.6575 18.8285C55.6813 18.8966 55.7086 18.9647 55.7324 19.0294C55.7528 19.0805 55.7767 19.1282 55.7971 19.1792C55.8652 19.3665 55.9265 19.5538 55.9946 19.7376C56.0763 19.9556 56.1614 20.1735 56.2465 20.3914C56.3215 20.5821 56.3998 20.7693 56.4747 20.96C56.4951 21.0145 56.5155 21.0724 56.5326 21.1302C56.553 21.1881 56.57 21.246 56.5904 21.3005C56.6619 21.4707 56.7369 21.641 56.805 21.8146C56.8935 22.0428 56.9752 22.2743 57.0637 22.5024C57.1216 22.6591 57.1897 22.8157 57.2442 22.9723C57.3123 23.1596 57.3668 23.3503 57.4383 23.5341C57.5234 23.7486 57.6221 23.9597 57.7209 24.1811C57.9694 24.1811 58.2112 24.1811 58.4529 24.1811C58.487 24.1811 58.5278 24.1504 58.5517 24.1232C58.6538 24.0142 58.6879 23.8712 58.7389 23.735C58.8207 23.5103 58.9194 23.289 59.0079 23.0676C59.0692 22.9178 59.1339 22.768 59.1952 22.6182C59.2667 22.448 59.345 22.2777 59.4165 22.1041C59.4812 21.944 59.5357 21.7772 59.6004 21.6137C59.6515 21.481 59.7093 21.3482 59.7672 21.2154C59.8421 21.0451 59.917 20.8749 59.992 20.7046C60.0839 20.4901 60.1724 20.2722 60.2575 20.0543C60.3222 19.8977 60.3801 19.741 60.4414 19.5844C60.5129 19.4074 60.5844 19.2269 60.6559 19.0498C60.7274 18.8728 60.8023 18.6957 60.8738 18.5153C60.9419 18.3484 61.0032 18.1782 61.0713 18.0113C61.1428 17.8411 61.2211 17.6709 61.296 17.5006C61.388 17.2861 61.4731 17.0682 61.5616 16.8503C61.6297 16.6766 61.6944 16.503 61.7625 16.3293C61.8272 16.1659 61.8953 16.0058 61.9634 15.8458C62.0383 15.662 62.1166 15.4781 62.1881 15.2976C62.2562 15.1308 62.3209 14.9639 62.389 14.7971C62.4707 14.5962 62.5524 14.3953 62.6342 14.1978C62.6886 14.0684 62.7499 13.9425 62.8453 13.7961C62.9985 14.0719 63.0904 14.3374 63.2028 14.5928C63.2743 14.7562 63.3322 14.9299 63.4003 15.0967C63.4854 15.3078 63.5705 15.5189 63.659 15.73C63.7237 15.8867 63.7884 16.0399 63.8531 16.1931C63.9246 16.3634 64.0029 16.5336 64.0744 16.7073C64.1425 16.8741 64.2004 17.0443 64.2685 17.2112C64.3571 17.4325 64.449 17.6538 64.5409 17.8751C64.6022 18.0182 64.6635 18.1612 64.7248 18.3076C64.8031 18.4948 64.8814 18.6821 64.9597 18.8728C65.0278 19.0396 65.0925 19.2065 65.164 19.3733C65.2355 19.5436 65.3138 19.7138 65.3853 19.8875C65.4705 20.0917 65.5556 20.296 65.6407 20.5003C65.702 20.6433 65.7667 20.7864 65.8212 20.9328C65.8893 21.1064 65.9472 21.2835 66.0153 21.4571C66.1004 21.675 66.1923 21.8895 66.2808 22.1041C66.3455 22.2607 66.4136 22.4139 66.4817 22.5671C66.5532 22.7374 66.6281 22.9076 66.6996 23.0813C66.7677 23.2549 66.829 23.4286 66.9005 23.5988C66.9856 23.7963 67.081 23.987 67.1763 24.1947C67.4181 24.1947 67.6598 24.1947 67.9016 24.1947C67.939 24.1947 67.9867 24.1572 68.0139 24.1232C68.1672 23.9291 68.1944 23.6805 68.2897 23.4592C68.368 23.2787 68.4157 23.0847 68.4804 22.8974C68.5655 22.6556 68.6575 22.4139 68.746 22.1722C68.8073 22.0019 68.8686 21.8317 68.9299 21.6648C69.0048 21.4605 69.0865 21.263 69.158 21.0587C69.2261 20.8681 69.2874 20.6706 69.3521 20.4765C69.4372 20.2313 69.5291 19.9896 69.6177 19.7479C69.6789 19.5776 69.7402 19.4074 69.8049 19.2405C69.8832 19.0328 69.9615 18.8251 70.0365 18.6174C70.1046 18.4301 70.1624 18.2395 70.2271 18.0556C70.3123 17.8105 70.4008 17.5687 70.4893 17.327C70.554 17.1533 70.6187 16.9762 70.6834 16.8026C70.7583 16.5983 70.8332 16.3974 70.9081 16.1931C70.9762 16.0058 71.0375 15.8186 71.1022 15.6313C71.1533 15.4883 71.2043 15.3487 71.2554 15.2091C71.3303 15.0116 71.4052 14.8175 71.4767 14.62C71.5448 14.426 71.6061 14.2319 71.6708 14.0378C71.7219 13.8914 71.7798 13.745 71.8343 13.5986C71.9092 13.4011 71.9841 13.207 72.059 13.0095C72.1441 12.778 72.2258 12.5465 72.3109 12.3149C72.3722 12.1447 72.4369 11.9778 72.4948 11.8042C72.5595 11.6101 72.6208 11.416 72.6855 11.2219C72.7366 11.0755 72.791 10.9291 72.8489 10.7827C72.9204 10.592 72.9987 10.4014 73.0702 10.2107C73.1588 9.96893 73.2473 9.72378 73.3324 9.48203C73.3903 9.31859 73.4516 9.15516 73.5095 8.98831C73.5742 8.79423 73.6355 8.60015 73.7001 8.40607C73.7887 8.15071 73.884 7.89874 73.9759 7.64337C74.0338 7.47994 74.0951 7.3165 74.1564 7.15306C74.2313 6.95558 74.3096 6.7615 74.3811 6.56401C74.4492 6.37674 74.5037 6.18607 74.5718 6.0022C74.6229 5.8626 74.6842 5.723 74.7455 5.5868C74.8136 5.44039 74.8851 5.29398 74.9566 5.14757C75.0723 4.91263 75.1779 4.66748 75.3107 4.43935C75.5014 4.11247 75.7227 3.79922 75.9985 3.53704C76.23 3.31572 76.4717 3.10802 76.7952 3.0229C76.9076 2.99226 76.9825 2.87989 76.9893 2.76413C76.9927 2.679 76.9587 2.61772 76.8769 2.6041L76.8565 2.57686Z" fill="white"/>
<path d="M106.326 16.6255C106.578 16.9558 106.83 17.2861 107.082 17.6164C107.453 18.0965 107.828 18.5766 108.202 19.0601C108.461 19.3937 108.713 19.7308 108.972 20.0645C109.346 20.5514 109.721 21.0383 110.099 21.5218C110.371 21.8759 110.644 22.2266 110.916 22.5807C111.181 22.9246 111.444 23.2719 111.706 23.6124C111.886 23.8474 112.07 24.0755 112.254 24.3104C112.319 24.3956 112.407 24.4262 112.506 24.433C112.639 24.4398 112.697 24.3888 112.707 24.256C112.71 24.1913 112.707 24.1232 112.707 24.0585C112.707 18.9681 112.707 13.8744 112.707 8.78402C112.707 7.76255 112.707 6.74107 112.714 5.723C112.714 5.55956 112.727 5.39613 112.748 5.2361C112.772 5.05223 112.829 4.86837 112.833 4.6811C112.84 4.30655 112.949 3.96266 113.105 3.62898C113.201 3.42468 113.34 3.26465 113.517 3.13867C113.609 3.07397 113.718 3.03312 113.82 2.98885C113.936 2.93778 114.018 2.80499 113.997 2.68241C113.984 2.59729 113.926 2.56324 113.766 2.55983C113.742 2.55983 113.718 2.55983 113.694 2.55983C112.567 2.55983 111.444 2.55983 110.317 2.55983H110.089C110.089 2.66879 110.089 2.7471 110.089 2.82542C110.089 2.92416 110.146 2.97864 110.238 3.00247C110.599 3.09781 110.916 3.27486 111.195 3.52342C111.389 3.69707 111.512 3.91839 111.651 4.12609C111.726 4.23846 111.781 4.37125 111.815 4.50404C111.876 4.74238 112.009 4.9603 112.002 5.21567C112.002 5.23269 112.016 5.24972 112.022 5.26674C112.043 5.34846 112.074 5.42677 112.084 5.5119C112.108 5.7945 112.121 6.07711 112.145 6.35972C112.183 6.87727 112.257 7.39141 112.237 7.91236C112.234 8.03153 112.234 8.15411 112.234 8.27328C112.234 11.9165 112.234 15.5564 112.234 19.1997C112.234 19.3733 112.23 19.5504 112.217 19.724C112.21 19.8432 112.128 19.8772 112.033 19.8023C112.009 19.7853 111.992 19.7581 111.971 19.7342C111.825 19.5436 111.675 19.3529 111.529 19.1622C111.113 18.6208 110.698 18.0828 110.283 17.5415C109.881 17.0205 109.472 16.5064 109.07 15.9854C108.645 15.4372 108.226 14.8856 107.8 14.3374C107.402 13.8233 106.997 13.3126 106.602 12.795C106.19 12.2604 105.781 11.7225 105.369 11.1879C105.036 10.7521 104.699 10.3196 104.361 9.88721C103.803 9.16878 103.241 8.45374 102.683 7.7319C102.189 7.09178 101.695 6.45165 101.202 5.81153C100.922 5.4472 100.64 5.08628 100.361 4.72536C100.098 4.38487 99.8397 4.04778 99.5775 3.70729C99.3188 3.37361 99.0566 3.04333 98.8012 2.70624C98.7161 2.59388 98.6139 2.54621 98.4777 2.55643C98.4403 2.55643 98.4062 2.55643 98.3688 2.55643C97.5584 2.55643 96.748 2.55643 95.9377 2.55643C95.8968 2.55643 95.8525 2.55643 95.8117 2.55643C95.6925 2.57005 95.6414 2.63134 95.6448 2.75051C95.6448 2.89011 95.7163 2.97523 95.8559 2.99907C96.05 3.03312 96.2135 3.13526 96.3769 3.23741C96.6357 3.39744 96.7991 3.63919 96.9183 3.91839C97.0545 4.24186 97.16 4.57214 97.1702 4.92625C97.1702 5.01137 97.1805 5.0965 97.1839 5.17821C97.2111 5.57659 97.2588 5.97156 97.269 6.36993C97.2826 7.08837 97.2758 7.80681 97.2758 8.52525C97.2758 12.4137 97.2758 16.3055 97.2758 20.1939C97.2758 20.405 97.2622 20.6161 97.2486 20.8272C97.2213 21.2358 97.1907 21.6478 97.1634 22.0564C97.1532 22.2198 97.143 22.3799 97.0579 22.5297C97.034 22.5739 97.0272 22.6318 97.017 22.6863C96.9523 22.9757 96.8161 23.2277 96.605 23.432C96.4348 23.5954 96.2305 23.7078 96.0228 23.7861V24.1572C96.0602 24.164 96.0841 24.1708 96.1079 24.1708C97.3064 24.1708 98.505 24.1708 99.7035 24.1708C99.7716 24.1708 99.8397 24.1436 99.9112 24.1266C99.9112 24.0483 99.9078 23.987 99.9112 23.9291C99.918 23.8269 99.8703 23.7861 99.775 23.7554C99.5979 23.701 99.4209 23.6363 99.2609 23.5511C98.8795 23.3503 98.5731 23.0642 98.3586 22.6863C98.2837 22.5501 98.2326 22.4003 98.1611 22.2641C98.0794 22.1006 98.0181 21.9338 98.0113 21.7499C98.0113 21.7159 97.9806 21.6852 97.9704 21.6512C97.9432 21.5559 97.9057 21.4571 97.8921 21.3584C97.8751 21.2222 97.8989 21.0758 97.8649 20.943C97.7457 20.4765 97.7389 19.9998 97.7423 19.5231C97.7423 14.9639 97.7423 10.4048 97.7423 5.84217C97.7423 5.78769 97.7423 5.73321 97.7457 5.67874C97.7525 5.63447 97.7695 5.59021 97.7899 5.52211C97.8376 5.59702 97.8682 5.6549 97.9091 5.70598C98.2939 6.19969 98.682 6.6934 99.0668 7.18711C99.3222 7.51399 99.5707 7.84767 99.8261 8.17795C100.201 8.66485 100.579 9.14835 100.953 9.63525C101.212 9.96893 101.464 10.306 101.723 10.6397C102.09 11.1164 102.461 11.5931 102.829 12.0698C103.105 12.4273 103.381 12.7882 103.657 13.1457C103.902 13.4658 104.154 13.7824 104.399 14.1025C104.78 14.5996 105.158 15.1001 105.54 15.5973C105.802 15.9412 106.071 16.2851 106.333 16.6289L106.326 16.6255Z" fill="white"/>
<path d="M79.8018 22.9485C79.6894 23.2345 79.5123 23.4592 79.24 23.609C79.131 23.6703 79.0288 23.7384 78.9165 23.8065C78.9131 23.861 78.9063 23.9223 78.9063 23.9836C78.9063 24.0415 78.9131 24.0993 78.9165 24.164H94.1535C94.1569 24.0891 94.1603 24.0244 94.1637 23.9597C94.1807 23.6635 94.1875 23.3673 94.2148 23.0745C94.2522 22.6795 94.3067 22.2845 94.3033 21.8827C94.2965 21.4197 94.2965 20.9532 94.3816 20.4935C94.3952 20.4152 94.402 20.3369 94.4054 20.2586C94.4089 20.1462 94.3305 20.0577 94.2114 20.0373C94.1058 20.0168 94.0616 20.0475 94.0071 20.1632C93.8675 20.4493 93.7415 20.7421 93.5815 21.0213C93.4248 21.2971 93.2478 21.5661 93.0571 21.818C92.7983 22.1619 92.4851 22.4548 92.1242 22.6931C91.9641 22.7987 91.8109 22.9144 91.6441 23.0098C91.5113 23.0847 91.3444 23.1153 91.2253 23.2038C91.0584 23.3264 90.8439 23.2992 90.6839 23.4184C90.3366 23.4762 90.0063 23.6158 89.6454 23.6158C89.5432 23.6158 89.4343 23.6158 89.3389 23.6431C89.0427 23.7282 88.7397 23.7282 88.44 23.7282C87.1462 23.735 85.8489 23.735 84.555 23.735C84.3507 23.735 84.1396 23.7486 83.9387 23.7214C83.7276 23.6907 83.5199 23.6192 83.3122 23.5648C83.302 23.5648 83.2918 23.5511 83.2816 23.5443C83.125 23.4388 82.9683 23.3264 82.8832 23.1562C82.7913 22.9791 82.6721 22.8089 82.6823 22.5875C82.6925 22.3764 82.6823 22.1653 82.6823 21.9542C82.6823 18.9817 82.6823 16.0127 82.6823 13.0402C82.6823 12.9823 82.6925 12.9244 82.6993 12.8529H82.9173C84.3814 12.8529 85.8455 12.8631 87.3096 12.8529C88.1438 12.8461 88.961 12.9482 89.7611 13.1696C89.9041 13.2104 90.0472 13.2683 90.18 13.3364C90.3298 13.4147 90.4728 13.5032 90.609 13.6054C90.7996 13.7518 90.9699 13.9254 91.0959 14.1331C91.2253 14.3442 91.3206 14.5724 91.3989 14.8039C91.4193 14.8618 91.4534 14.8992 91.5147 14.8992C91.5794 14.8992 91.6475 14.8993 91.7122 14.889C91.7837 14.8754 91.8313 14.8346 91.8279 14.7528C91.8279 14.7154 91.8279 14.6813 91.8279 14.6439C91.8279 13.2683 91.8279 11.8893 91.8279 10.5137C91.8279 10.4422 91.8279 10.3707 91.8279 10.2822H91.4534C91.341 10.5171 91.2389 10.7453 91.1265 10.9734C90.9392 11.3581 90.6056 11.5965 90.2583 11.8212C90.0472 11.9574 89.8054 12.0255 89.5671 12.097C89.3355 12.1685 89.0904 12.223 88.852 12.24C88.0212 12.3047 87.187 12.3524 86.3528 12.3694C85.379 12.3898 84.4052 12.3728 83.4314 12.3728C83.2441 12.3728 83.0569 12.3796 82.8696 12.3796C82.7266 12.3796 82.6857 12.3388 82.6789 12.1992C82.6755 12.0596 82.6755 11.9199 82.6755 11.7838C82.6755 8.89638 82.6755 6.00901 82.6755 3.12164C82.6755 3.08759 82.6823 3.05355 82.6891 3.01269C82.7504 3.01269 82.8049 3.00247 82.856 3.00247C84.4529 3.00247 86.0498 3.00247 87.6501 3.00247C88.0451 3.00247 88.4366 3.00928 88.8214 3.11483C88.9303 3.14548 89.0495 3.13867 89.1619 3.15229C89.2572 3.16591 89.356 3.17612 89.4479 3.20336C89.6965 3.27486 89.945 3.34977 90.1902 3.42809C90.3161 3.46895 90.4353 3.52683 90.5545 3.58131C90.6975 3.6426 90.8541 3.69026 90.9801 3.77539C91.3104 3.99671 91.6509 4.20441 91.9233 4.50063C92.0799 4.67088 92.2501 4.82751 92.3829 5.01137C92.5838 5.29398 92.7643 5.59361 92.9413 5.89325C93.023 6.03285 93.0775 6.18607 93.1456 6.33248C93.1797 6.40398 93.2205 6.46868 93.258 6.53678C93.292 6.59466 93.3363 6.62871 93.4044 6.61509C93.4793 6.60147 93.5474 6.56742 93.5678 6.48911C93.5815 6.43122 93.5815 6.36993 93.5815 6.30865C93.5747 6.09754 93.5712 5.88644 93.5576 5.67533C93.5508 5.53573 93.5338 5.39953 93.5202 5.26334C93.4827 4.93306 93.4214 4.60959 93.4214 4.27251C93.4214 3.99671 93.3874 3.7175 93.3635 3.44171C93.3397 3.18293 93.3091 2.92756 93.2784 2.66879C93.275 2.63474 93.2546 2.60069 93.2376 2.55302H92.9856C88.3787 2.55302 83.7753 2.55302 79.1684 2.55302C79.1208 2.55302 79.0731 2.55302 79.022 2.55302C78.9403 2.55302 78.896 2.59048 78.896 2.67219C78.896 2.73348 78.896 2.79137 78.9029 2.85265C78.9097 2.92756 78.9539 2.96842 79.0254 2.99226C79.3932 3.12164 79.6349 3.37701 79.7847 3.73793C79.8494 3.89456 79.8903 4.05459 79.9414 4.21122C80.0163 4.42913 80.0435 4.64705 80.0503 4.86837C80.0708 5.50849 80.0878 6.14861 80.0912 6.78874C80.0946 9.97234 80.098 13.1559 80.0912 16.3361C80.0878 18.0999 80.1218 19.8636 80.0605 21.6274C80.0435 22.087 79.955 22.5195 79.7847 22.9451L79.8018 22.9485Z" fill="white"/>
<path d="M46.1033 5.24291C46.2259 5.42677 46.3144 5.63447 46.4234 5.82855C46.4915 5.95113 46.563 5.97837 46.6889 5.94091C46.8115 5.90346 46.8456 5.8592 46.8422 5.71279C46.8422 5.67533 46.8422 5.64128 46.8354 5.60383C46.7707 4.95008 46.7128 4.29293 46.7196 3.63579C46.7196 3.37701 46.7026 3.11824 46.6923 2.85946C46.6821 2.60069 46.6413 2.56324 46.3723 2.56324C46.2463 2.56324 46.1169 2.56324 45.9909 2.56324C41.1253 2.56324 36.2597 2.56324 31.3941 2.56324C31.2306 2.56324 31.0672 2.55643 30.9037 2.56324C30.7607 2.56324 30.7369 2.58707 30.7165 2.73008C30.6892 2.91394 30.6586 3.10121 30.6484 3.28848C30.6245 3.86732 30.6109 4.44616 30.5939 5.02499C30.5939 5.11352 30.5871 5.20545 30.5769 5.29398C30.5599 5.45061 30.5394 5.60383 30.5224 5.76045C30.5122 5.84558 30.5564 5.89665 30.6279 5.9307C30.7573 5.98858 30.8254 5.97496 30.9072 5.8626C30.9446 5.81493 30.9855 5.76726 31.0093 5.71619C31.1353 5.45742 31.2817 5.20886 31.4383 4.96711C31.6937 4.57895 32.0001 4.24527 32.3542 3.95244C32.7458 3.62898 33.1748 3.38382 33.6822 3.29189C33.7366 3.28167 33.7843 3.25444 33.8388 3.24082C33.9614 3.21017 34.0839 3.17953 34.2065 3.1625C34.3563 3.14207 34.5061 3.13526 34.656 3.11824C34.8943 3.091 35.1361 3.03652 35.3744 3.02971C35.9737 3.01609 36.5729 3.0195 37.1722 3.0195C37.2505 3.0195 37.3254 3.02971 37.4242 3.03652V3.40766C37.4242 7.93279 37.4242 12.4545 37.4242 16.9797C37.4242 18.345 37.4208 19.7104 37.4208 21.0758C37.4208 21.389 37.4105 21.7023 37.3288 22.0087C37.2982 22.1245 37.288 22.2471 37.2846 22.3662C37.2743 22.608 37.1688 22.8225 37.0769 23.0336C36.9611 23.3026 36.767 23.5205 36.4912 23.6465C36.4299 23.6737 36.372 23.7044 36.321 23.7452C36.2835 23.7759 36.2393 23.8201 36.2324 23.8644C36.2188 23.9563 36.229 24.0517 36.229 24.1402C36.4265 24.1879 41.0606 24.1811 41.1968 24.1402V23.7929C40.9551 23.6805 40.7337 23.558 40.5567 23.3673C40.3762 23.1732 40.2741 22.9383 40.1958 22.6931C40.1481 22.5501 40.1277 22.4003 40.097 22.2539C40.0766 22.1585 40.0528 22.0632 40.0494 21.9713C40.0357 21.2528 40.0187 20.5344 40.0153 19.816C40.0085 18.8694 40.0153 17.9194 40.0153 16.9728C40.0153 12.4988 40.0153 8.02132 40.0153 3.54726C40.0153 3.38042 40.0289 3.21017 40.0357 3.03993C40.0766 3.02971 40.1038 3.0195 40.1345 3.0195C40.744 3.0195 41.3568 3.00247 41.9663 3.03652C42.5145 3.06376 43.0627 3.11483 43.5871 3.28848C43.5973 3.29189 43.6109 3.29529 43.6211 3.29529C43.9548 3.32253 44.2408 3.49278 44.5268 3.6426C44.8299 3.79922 45.0954 4.02054 45.3406 4.2691C45.6368 4.56873 45.8684 4.90922 46.1033 5.25312V5.24291Z" fill="white"/>
<path d="M132.132 5.94091C132.255 5.90687 132.295 5.8626 132.292 5.73662C132.292 5.64469 132.282 5.55616 132.275 5.46423C132.227 4.92284 132.169 4.38487 132.176 3.84008C132.18 3.49618 132.156 3.15229 132.142 2.80839C132.132 2.59729 132.094 2.55983 131.877 2.55643C131.689 2.55643 131.502 2.55643 131.315 2.55643C126.534 2.55643 121.754 2.55643 116.973 2.55643C116.772 2.55643 116.575 2.55302 116.374 2.55643C116.217 2.55643 116.19 2.58026 116.17 2.72667C116.142 2.91735 116.108 3.10802 116.102 3.3021C116.078 3.86732 116.068 4.43594 116.051 5.00456C116.047 5.13054 116.027 5.25653 116.016 5.38251C116.006 5.50849 115.996 5.63447 115.986 5.76045C115.979 5.8626 116.037 5.91367 116.129 5.94091C116.214 5.96475 116.296 5.97156 116.35 5.87963C116.439 5.72981 116.537 5.5834 116.612 5.42677C116.759 5.12714 116.953 4.85815 117.157 4.59938C117.389 4.30655 117.661 4.05119 117.964 3.82646C118.315 3.56769 118.686 3.3702 119.115 3.28848C119.173 3.27827 119.231 3.24763 119.289 3.23401C119.418 3.20336 119.544 3.17272 119.677 3.15229C119.82 3.13186 119.966 3.12845 120.109 3.10802C120.348 3.07738 120.589 3.0229 120.828 3.01609C121.437 3.00247 122.05 3.00588 122.659 3.00588C122.731 3.00588 122.799 3.0195 122.881 3.02631V3.2987C122.881 4.74238 122.881 6.18607 122.881 7.62975C122.881 12.1889 122.874 16.7481 122.871 21.3107C122.871 21.4673 122.85 21.624 122.83 21.7772C122.802 21.9917 122.765 22.2062 122.734 22.4207C122.724 22.4786 122.721 22.5433 122.7 22.5978C122.625 22.785 122.544 22.9757 122.459 23.1596C122.37 23.3434 122.224 23.4762 122.05 23.5818C121.955 23.6431 121.849 23.6907 121.754 23.752C121.723 23.7725 121.689 23.8133 121.689 23.8474C121.682 23.9461 121.689 24.0483 121.689 24.1402C121.907 24.1776 126.507 24.1708 126.653 24.1334V23.7827C126.415 23.6703 126.194 23.5545 126.017 23.3639C125.833 23.1664 125.727 22.9246 125.649 22.6727C125.608 22.5399 125.588 22.4037 125.56 22.2675C125.54 22.1722 125.509 22.0802 125.506 21.9849C125.489 21.4775 125.469 20.9702 125.469 20.4629C125.469 14.8414 125.469 9.21644 125.469 3.59493C125.469 3.40766 125.479 3.22379 125.486 3.0229C125.533 3.01269 125.554 3.00588 125.577 3.00588C126.194 3.00588 126.813 2.99566 127.43 3.0229C127.859 3.03993 128.281 3.11483 128.71 3.1625C128.747 3.16591 128.781 3.17612 128.816 3.18634C129.061 3.26465 129.309 3.33956 129.551 3.42809C129.789 3.51321 130.014 3.62557 130.222 3.77198C130.62 4.04778 130.961 4.38827 131.247 4.78324C131.362 4.94327 131.478 5.10671 131.58 5.27696C131.689 5.46082 131.785 5.65831 131.89 5.84558C131.945 5.94432 132.02 5.96815 132.135 5.9341L132.132 5.94091Z" fill="white"/>
<path d="M151.962 2.55983C151.87 2.55983 151.775 2.55983 151.676 2.55983C150.757 2.55983 149.837 2.55983 148.918 2.55983C148.792 2.55983 148.663 2.55302 148.537 2.55983C148.489 2.55983 148.431 2.56664 148.404 2.59729C148.336 2.66879 148.35 2.76413 148.37 2.85606C148.387 2.93437 148.435 2.99226 148.516 2.99566C148.636 3.00247 148.728 3.06376 148.826 3.12505C149.122 3.3021 149.225 3.58131 149.214 3.89115C149.204 4.13971 149.136 4.39508 149.051 4.63002C148.939 4.94668 148.785 5.24631 148.646 5.55275C148.591 5.67193 148.523 5.78769 148.459 5.90346C148.336 6.12478 148.21 6.34269 148.084 6.56061C147.968 6.7649 147.856 6.9692 147.743 7.17349C147.614 7.40503 147.481 7.63316 147.352 7.86469C147.236 8.06899 147.124 8.27328 147.008 8.47758C146.889 8.68528 146.766 8.89298 146.647 9.10068C146.525 9.31519 146.412 9.5331 146.29 9.74761C146.123 10.0404 145.949 10.3264 145.782 10.6227C145.615 10.9223 145.455 11.2253 145.289 11.525C145.122 11.8246 144.941 12.114 144.771 12.4137C144.601 12.7099 144.441 13.0129 144.274 13.3126C144.226 13.4011 144.161 13.4794 144.09 13.5884C144.053 13.5373 144.032 13.5169 144.018 13.4896C143.903 13.2921 143.79 13.0946 143.678 12.8972C143.549 12.6724 143.423 12.4511 143.297 12.2264C143.181 12.0221 143.072 11.8144 142.96 11.6101C142.827 11.3752 142.694 11.1402 142.561 10.9053C142.445 10.701 142.333 10.4967 142.217 10.2924C142.091 10.0677 141.965 9.84295 141.839 9.61822C141.724 9.41393 141.611 9.20963 141.495 9.00534C141.376 8.79764 141.254 8.58994 141.135 8.38224C141.012 8.16092 140.896 7.9396 140.774 7.71828C140.654 7.51058 140.528 7.30629 140.413 7.09518C140.29 6.87727 140.178 6.64914 140.052 6.43122C139.885 6.1384 139.711 5.85239 139.544 5.55956C139.401 5.311 139.265 5.05564 139.126 4.80367C139.064 4.69471 139.003 4.58235 138.952 4.46999C138.88 4.32017 138.833 4.15333 138.744 4.01373C138.629 3.82646 138.622 3.62557 138.618 3.42128C138.618 3.21017 138.734 3.07397 138.928 3.00247C139.068 2.9514 139.112 2.85266 139.081 2.66879C139.064 2.57345 139.051 2.56324 138.87 2.55983C138.84 2.55983 138.809 2.55983 138.778 2.55983C137.355 2.55983 135.935 2.55983 134.512 2.55983C134.451 2.55983 134.389 2.55983 134.332 2.57345C134.223 2.59729 134.178 2.65857 134.199 2.77094C134.219 2.87989 134.257 2.97183 134.379 3.0195C134.492 3.06376 134.597 3.12505 134.696 3.18974C135.098 3.46214 135.462 3.77879 135.758 4.16355C135.993 4.46999 136.221 4.77984 136.439 5.0965C136.562 5.27355 136.664 5.46763 136.773 5.6549C136.892 5.85579 137.008 6.06009 137.124 6.26438C137.239 6.46868 137.352 6.67297 137.467 6.87727C137.597 7.11221 137.726 7.35055 137.856 7.58889C137.965 7.78978 138.08 7.98727 138.189 8.18476C138.315 8.41629 138.438 8.65123 138.564 8.88276C138.68 9.09387 138.799 9.30157 138.915 9.51267C139.044 9.74761 139.173 9.98596 139.303 10.2243C139.422 10.4422 139.538 10.6567 139.657 10.8746C139.776 11.0891 139.895 11.3071 140.014 11.5216C140.137 11.7429 140.259 11.9608 140.382 12.1821C140.501 12.3966 140.617 12.6146 140.736 12.8291C140.852 13.0402 140.978 13.2445 141.09 13.4556C141.209 13.6701 141.305 13.9016 141.441 14.1059C141.601 14.3477 141.662 14.6064 141.662 14.8924C141.659 16.8298 141.662 18.7706 141.662 20.708C141.662 20.8647 141.649 21.0213 141.635 21.1779C141.608 21.4775 141.574 21.7772 141.553 22.0802C141.54 22.2777 141.553 22.4786 141.438 22.6556C141.417 22.6897 141.417 22.7374 141.407 22.7782C141.332 23.0438 141.216 23.289 140.998 23.4626C140.821 23.6022 140.617 23.7112 140.409 23.844C140.409 23.8542 140.399 23.8916 140.399 23.9257C140.385 24.13 140.423 24.1708 140.627 24.1776C140.644 24.1776 140.665 24.1776 140.682 24.1776C142.214 24.1776 143.743 24.1776 145.275 24.1776C145.333 24.1776 145.394 24.1708 145.459 24.1674V23.8099C145.309 23.7282 145.173 23.6601 145.047 23.5818C144.744 23.3945 144.577 23.0983 144.468 22.7782C144.424 22.6454 144.42 22.4956 144.352 22.3628C144.328 22.3152 144.322 22.2573 144.318 22.2062C144.291 21.7193 144.25 21.229 144.247 20.7421C144.236 18.7502 144.243 16.7549 144.23 14.7631C144.23 14.4362 144.342 14.1672 144.499 13.8982C144.631 13.6701 144.761 13.4419 144.894 13.2104C145.006 13.0129 145.115 12.812 145.227 12.6111C145.353 12.3864 145.486 12.1617 145.612 11.937C145.728 11.7327 145.837 11.525 145.952 11.3207C146.082 11.0891 146.215 10.861 146.344 10.6329C146.46 10.4286 146.572 10.2243 146.688 10.02C146.811 9.8055 146.937 9.59439 147.056 9.37988C147.178 9.16537 147.294 8.94746 147.413 8.73635C147.532 8.52865 147.655 8.32095 147.774 8.11325C147.893 7.89874 148.006 7.68083 148.128 7.46632C148.346 7.08497 148.571 6.71043 148.782 6.32567C149.014 5.91027 149.242 5.49487 149.514 5.1033C149.783 4.71174 150.059 4.32358 150.396 3.98309C150.828 3.54726 151.288 3.15229 151.897 2.97523C151.928 2.96842 151.969 2.93778 151.972 2.91054C151.993 2.80158 152.03 2.68922 151.955 2.56664L151.962 2.55983Z" fill="white"/>
<path d="M128.781 54.0592C128.182 53.8004 127.828 53.3169 127.753 52.6768C127.651 51.8256 127.535 50.9675 127.532 50.1163C127.511 44.2667 127.522 38.4136 127.525 32.564C127.525 31.9749 127.525 31.379 127.6 30.7968C127.716 29.8911 127.838 28.9684 128.884 28.5734C128.962 28.5427 129.013 28.3112 128.986 28.1954C128.972 28.1273 128.778 28.0593 128.662 28.0593C126.865 28.0524 125.067 28.049 123.272 28.0593C123.146 28.0593 123.02 28.1784 122.894 28.2431C122.976 28.3725 123.027 28.5598 123.143 28.6245C123.575 28.8628 123.919 29.1761 124.028 29.6562C124.175 30.2997 124.338 30.9568 124.348 31.6072C124.389 34.3481 124.372 37.0891 124.386 39.8301C124.386 40.1365 124.287 40.2284 123.984 40.2284C119.418 40.2216 114.849 40.2216 110.283 40.2284C109.973 40.2284 109.888 40.1263 109.888 39.8266C109.901 37.147 109.888 34.4673 109.911 31.7876C109.918 31.1884 110 30.5857 110.112 29.9966C110.225 29.411 110.514 28.9071 111.093 28.6551C111.29 28.57 111.447 28.4576 111.369 28.2601C111.328 28.1546 111.11 28.0627 110.974 28.0627C109.19 28.049 107.405 28.0524 105.618 28.0627C105.499 28.0627 105.308 28.1342 105.271 28.2227C105.196 28.4066 105.277 28.5564 105.502 28.6449C105.921 28.8083 106.238 29.1148 106.357 29.5506C106.503 30.0784 106.673 30.6232 106.68 31.1645C106.711 34.5558 106.694 37.9505 106.694 41.3418C106.711 41.3418 106.731 41.3418 106.748 41.3418C106.748 44.059 106.755 46.7761 106.745 49.4932C106.745 50.3036 106.735 51.1173 106.656 51.9243C106.568 52.8334 106.367 53.7085 105.386 54.1341C105.305 54.1682 105.25 54.3861 105.271 54.5018C105.284 54.5699 105.471 54.6482 105.58 54.6482C107.388 54.6585 109.2 54.6585 111.008 54.6482C111.134 54.6482 111.256 54.5257 111.382 54.461C111.301 54.3316 111.246 54.1477 111.127 54.0796C110.695 53.8311 110.323 53.5246 110.221 53.0241C110.085 52.3669 109.922 51.6996 109.915 51.0356C109.881 47.7907 109.898 44.5459 109.884 41.301C109.884 40.9571 109.997 40.8583 110.33 40.8617C114.859 40.872 119.391 40.872 123.919 40.8617C124.273 40.8617 124.386 40.9707 124.382 41.3248C124.369 44.3109 124.386 47.3004 124.365 50.2865C124.359 51.0458 124.27 51.8051 124.168 52.5576C124.079 53.2216 123.769 53.7732 123.126 54.066C122.918 54.1613 122.816 54.3112 122.905 54.4916C122.952 54.587 123.157 54.6516 123.289 54.6516C125.074 54.6619 126.858 54.6619 128.645 54.6516C128.768 54.6516 128.955 54.5835 128.993 54.4984C129.068 54.3214 128.999 54.1681 128.778 54.0728L128.781 54.0592Z" fill="white"/>
<path d="M63.0938 49.7894C62.9644 49.9971 62.8793 50.2287 62.7738 50.45C61.8272 52.4112 60.2473 53.5587 58.1192 53.8924C55.6643 54.2737 53.1787 54.0762 50.7067 54.0694C50.0189 54.0694 49.4776 53.7085 49.2699 53.0071C49.1916 52.7415 49.1916 52.4487 49.1882 52.1695C49.1813 48.6794 49.1847 45.186 49.1847 41.6959C49.1847 41.4746 49.195 41.2533 49.1847 41.032C49.1711 40.7902 49.2665 40.7051 49.5082 40.7119C50.0258 40.7221 50.5433 40.7051 51.0609 40.7187C53.063 40.7698 55.0753 40.5723 57.0671 40.923C58.3644 41.1512 59.4199 41.6789 59.8932 43.0205C59.9307 43.126 60.1145 43.1805 60.2303 43.2588C60.295 43.1464 60.421 43.0375 60.421 42.9251C60.4346 41.2397 60.4346 39.5577 60.421 37.8722C60.421 37.7633 60.2916 37.6577 60.2235 37.5488C60.1111 37.6305 59.9341 37.6884 59.8966 37.7973C59.5834 38.6758 59.0113 39.3159 58.1363 39.6053C57.4893 39.8198 56.8015 39.9901 56.124 40.0173C53.9482 40.0956 51.7691 40.0922 49.5899 40.1331C49.2392 40.1399 49.1882 39.9799 49.1882 39.687C49.195 36.1357 49.195 32.581 49.1882 29.0297C49.1882 28.713 49.2699 28.604 49.6001 28.6074C51.323 28.6245 53.0459 28.6143 54.7722 28.6143C55.8448 28.6143 56.9071 28.6994 57.949 28.982C59.2871 29.3497 60.3971 30.0511 61.2007 31.185C61.5446 31.6719 61.7897 32.2269 62.0962 32.741C62.1711 32.867 62.3277 32.9419 62.4469 33.0406C62.5048 32.8942 62.5661 32.7512 62.6171 32.6048C62.6308 32.5606 62.6171 32.5061 62.6103 32.4584C62.4912 31.0862 62.3686 29.7174 62.263 28.3453C62.2392 28.0558 62.0758 28.0524 61.8647 28.0524C56.2261 28.0524 50.5876 28.0524 44.949 28.0627C44.8196 28.0627 44.6119 28.141 44.5745 28.2363C44.4962 28.4236 44.6051 28.5632 44.8196 28.6483C45.235 28.8185 45.5483 29.125 45.6709 29.5608C45.8105 30.0682 45.9807 30.5857 45.9875 31.0998C46.0148 34.5048 46.0011 37.9097 46.0011 41.3146C46.0216 41.3146 46.0454 41.3146 46.0658 41.3146C46.0658 44.0419 46.0726 46.7727 46.0658 49.5034C46.0658 50.2525 46.0556 51.005 45.9875 51.7507C45.899 52.7177 45.7492 53.6778 44.6869 54.1307C44.629 54.1545 44.5813 54.2601 44.5677 54.335C44.5064 54.6925 44.7618 54.6551 44.9865 54.6551C50.9587 54.6551 56.9275 54.6551 62.8998 54.6551C62.9474 54.6551 62.9985 54.6517 63.0462 54.6551C63.2471 54.6687 63.3288 54.5767 63.3356 54.3759C63.3526 53.9707 63.3867 53.5655 63.4139 53.1603C63.482 52.0809 63.5535 51.0016 63.6046 49.9222C63.6114 49.8099 63.4854 49.6907 63.4173 49.5749C63.3117 49.6498 63.1687 49.7009 63.104 49.7996L63.0938 49.7894Z" fill="white"/>
<path d="M101.535 46.4662C101.535 45.3835 101.529 44.3041 101.539 43.2213C101.542 42.9285 101.44 42.8332 101.154 42.8366C100.18 42.8468 99.2098 42.84 98.236 42.84C97.7797 42.84 97.3235 42.8298 96.8706 42.8502C96.7617 42.8536 96.6561 42.9592 96.5471 43.0205C96.6152 43.1294 96.6697 43.2486 96.7583 43.3371C96.8127 43.3916 96.9149 43.395 96.9966 43.4256C97.5107 43.6197 97.967 43.9057 98.1338 44.4471C98.2939 44.9681 98.4335 45.5163 98.4573 46.0542C98.5152 47.44 98.4777 48.8326 98.5322 50.2185C98.5526 50.7939 98.3483 51.2365 98.0044 51.6553C96.7072 53.2352 94.9911 54.032 92.9958 54.2124C90.374 54.4508 88.0042 53.6949 85.9204 52.1218C83.4144 50.2253 81.8958 47.6375 80.9662 44.6821C80.5679 43.4154 80.3261 42.1147 80.224 40.7868C80.0435 38.4885 80.2342 36.2481 81.1297 34.103C82.301 31.2905 84.3405 29.4723 87.3266 28.7505C89.2504 28.284 91.1572 28.3487 93.0401 28.9411C95.6414 29.7583 97.6027 31.3688 98.9272 33.7523C98.9987 33.8817 99.0463 34.0247 99.1349 34.137C99.186 34.2017 99.3153 34.28 99.3664 34.2562C99.4481 34.2187 99.5128 34.1098 99.5435 34.0179C99.5741 33.9293 99.5537 33.8238 99.5503 33.725C99.5026 32.4959 99.4481 31.2701 99.4141 30.0409C99.4073 29.7924 99.2983 29.6391 99.1008 29.5506C98.5084 29.2884 97.9193 29.0058 97.3064 28.8015C95.7844 28.2976 94.2216 28.0082 92.6213 27.8584C89.4343 27.5553 86.4243 28.0763 83.6425 29.697C81.0616 31.2054 79.2365 33.3743 78.1061 36.1323C77.6124 37.3411 77.3196 38.6009 77.1629 39.8981C76.9178 41.9173 77.1119 43.9023 77.643 45.8431C78.0584 47.3651 78.753 48.7714 79.7269 50.0312C80.9152 51.5634 82.3861 52.7415 84.1328 53.5655C85.6071 54.2601 87.1598 54.6891 88.7907 54.8662C90.1902 55.0194 91.576 55.0773 92.9788 54.8491C94.5348 54.5972 96.0024 54.1137 97.3984 53.3952C98.8795 52.6325 100.17 51.6383 101.246 50.3615C101.447 50.1231 101.546 49.8814 101.539 49.5613C101.522 48.5296 101.532 47.4979 101.532 46.4628L101.535 46.4662Z" fill="white"/>
<path d="M150.93 28.0422C144.703 28.049 138.475 28.0524 132.248 28.0422C131.904 28.0422 131.798 28.1614 131.781 28.4849C131.73 29.6017 131.652 30.7185 131.604 31.8353C131.597 31.9613 131.71 32.0941 131.768 32.2269C131.89 32.1554 132.057 32.1145 132.129 32.0056C132.353 31.6719 132.527 31.3007 132.748 30.9636C133.552 29.7311 134.706 28.9956 136.153 28.8117C137.26 28.6721 138.383 28.6789 139.5 28.6347C140.062 28.6143 140.062 28.6347 140.062 29.1931C140.062 35.9416 140.069 42.6868 140.055 49.4353C140.055 50.4261 139.973 51.4204 139.882 52.4078C139.813 53.1365 139.49 53.7391 138.785 54.0864C138.669 54.1443 138.622 54.3418 138.543 54.4746C138.663 54.5325 138.782 54.6414 138.904 54.6414C140.74 54.6516 142.571 54.6516 144.407 54.6414C144.512 54.6414 144.621 54.5393 144.727 54.4882C144.659 54.352 144.625 54.1545 144.512 54.0932C144.09 53.8549 143.709 53.5757 143.593 53.0922C143.453 52.5134 143.29 51.9175 143.283 51.3285C143.256 47.6784 143.269 44.0283 143.269 40.3782H143.232C143.232 36.6294 143.232 32.8806 143.232 29.1318C143.232 28.6415 143.242 28.6211 143.726 28.6381C144.795 28.6789 145.864 28.696 146.93 28.7981C148.033 28.9071 149.044 29.3157 149.786 30.1635C150.273 30.7219 150.651 31.3722 151.07 31.9919C151.169 32.1417 151.261 32.329 151.455 32.2064C151.554 32.1451 151.635 31.9579 151.628 31.8285C151.581 30.7253 151.499 29.6187 151.458 28.5155C151.445 28.1444 151.291 28.0422 150.937 28.0422H150.93Z" fill="white"/>
<path d="M72.9204 54.049C72.4471 53.8379 72.1032 53.477 71.9943 52.9696C71.8615 52.3499 71.7117 51.7132 71.7117 51.0867C71.6912 44.5867 71.6947 38.0867 71.7083 31.5867C71.7083 31.0522 71.7968 30.5074 71.9058 29.983C72.0317 29.3701 72.3484 28.8764 72.9579 28.6074C73.0634 28.5598 73.1043 28.3657 73.1724 28.2397C73.0566 28.1784 72.9408 28.0627 72.8217 28.0627C71.0137 28.0524 69.2023 28.0524 67.3942 28.0627C67.2785 28.0627 67.1627 28.175 67.0469 28.2329C67.1218 28.3657 67.1661 28.5598 67.2819 28.6211C67.6939 28.8356 68.0514 29.1148 68.1501 29.5676C68.3102 30.2793 68.4872 31.0079 68.4974 31.7332C68.5349 34.9406 68.5145 38.148 68.5145 41.3554H68.5417C68.5417 44.0351 68.5485 46.7148 68.5417 49.3911C68.5417 50.1878 68.5349 50.9914 68.4634 51.7847C68.3749 52.7381 68.2148 53.6813 67.1729 54.1341C67.0946 54.1682 67.0435 54.3929 67.0708 54.5086C67.0878 54.5767 67.2785 54.6448 67.3908 54.6448C69.1886 54.6517 70.983 54.6551 72.7808 54.6448C72.9136 54.6448 73.1145 54.5699 73.1588 54.4746C73.2473 54.2839 73.1213 54.1477 72.9204 54.0558V54.049Z" fill="white"/>
<path d="M39.6169 34.3618C37.1858 28.9513 31.7584 25.4954 26.0586 24.9846C26.0449 24.9812 26.0347 24.9744 26.0177 24.971L25.5342 24.9233C25.3776 24.9063 25.238 25.0221 25.2209 25.1787C25.2039 25.3353 25.3197 25.4749 25.4763 25.492L25.7589 25.5192C34.8398 26.6054 41.3534 36.5852 36.7772 45.8465C33.5153 52.6632 24.6591 55.6799 17.914 52.2546C6.78332 46.7863 7.67201 30.7321 19.0819 26.333C19.0785 26.333 19.0751 26.3262 19.0717 26.3228C29.249 22.1075 30.7812 7.87492 20.9716 1.92312C13.8315 -2.41474 4.0015 0.901648 0.974531 8.70231C-2.61425 17.916 4.22963 26.8812 12.9939 27.3749L13.0484 27.3817C13.2118 27.3987 13.3548 27.2795 13.3718 27.1161C13.3889 26.9595 13.2765 26.8233 13.1233 26.7994C13.1233 26.7994 13.1233 26.7994 13.1233 26.796C5.71418 25.9414 0.382076 17.7968 4.12067 10.255C6.75608 4.73559 13.9813 2.28064 19.4326 5.05224C28.3841 9.44118 27.778 22.2539 18.7925 25.9993C11.4515 28.7505 6.8378 37.0823 8.68667 44.8693C10.0793 51.5294 16.1162 56.9091 22.9737 57.4846C27.6555 57.934 32.5347 56.3303 35.9566 53.082C41.0606 48.4547 42.5724 40.4974 39.6169 34.3618Z" fill="white"/>
</svg>
