<svg width="100" height="59" viewBox="0 0 100 59" fill="none" xmlns="http://www.w3.org/2000/svg">
<path d="M99.6092 21.9512L91.2726 18.2496V7.93515H89.8596V17.6222L50.3157 0.0666943C50.1167 -0.0222314 49.8814 -0.0222314 49.6823 0.0666943L10.1394 17.6232V7.93613H8.72646V18.2505L0.389778 21.9512C0.0407007 22.1056 -0.0995187 22.4818 0.0750202 22.7906C0.249559 23.0994 0.67512 23.2235 1.02322 23.0691L8.72646 19.6489V59H91.2726V19.6489L98.9758 23.0691C99.0778 23.1141 99.1856 23.1356 99.2925 23.1356C99.5514 23.1356 99.8005 23.0095 99.925 22.7906C100.1 22.4818 99.9583 22.1066 99.6092 21.9512ZM47.3466 44.1435V53.556H27.2766V44.1435H47.3466ZM42.1526 54.7658L43.6558 57.7502H30.9655L32.4706 54.7658L42.1526 54.7658ZM62.256 36.3298C63.9298 34.9656 65.3918 35.4728 65.9929 35.7914C65.6546 37.8767 65.5673 42.5136 65.5467 44.3175C64.9025 44.2979 64.1926 44.2804 63.3944 44.2647C63.5434 40.7057 62.5717 37.3226 62.256 36.3298ZM62.7914 45.2986C63.9543 45.3191 65.0584 45.3465 66.086 45.3797L69.4405 45.5517C69.6641 45.5693 69.87 45.5888 70.0504 45.6113C69.92 46.1185 69.7994 46.6452 69.6925 47.1866C67.9285 47.2159 59.9477 47.3234 57.0865 46.8866C57.0541 46.6129 57.1022 46.4038 57.1257 46.3237C57.6483 45.5947 59.2908 45.3132 60.1076 45.2654L60.2468 45.2654C60.6106 45.2693 61.5755 45.2781 62.7894 45.2986L62.7914 45.2986ZM71.3143 41.208C70.7446 42.6689 70.4318 43.9256 70.2896 44.5852C70.2024 44.5745 70.1102 44.5647 70.0122 44.554C69.5748 39.5184 71.4742 36.2077 71.8782 35.5647C74.054 34.7751 74.9767 34.9441 75.3317 35.1161C75.3621 35.1318 75.3895 35.1474 75.4131 35.1621C73.3264 36.8448 72.037 39.3601 71.3143 41.208ZM70.1847 48.2224C70.4573 48.2175 70.6868 48.0348 70.7329 47.7875C71.8527 41.7328 74.1471 39.1754 75.8739 38.0956C77.0192 37.3813 78.0723 37.2113 78.6812 37.1829C78.5253 38.1288 78.2576 39.1354 77.8664 40.2464C77.5242 41.2149 77.1153 42.1882 76.6152 43.223C76.4426 43.5787 76.2495 43.9374 76.0641 44.2852C75.9475 44.5022 75.8298 44.7211 75.718 44.94C75.5395 45.283 75.3934 45.6396 75.2532 45.9826C75.1512 46.2318 75.0453 46.4888 74.9316 46.7331C74.7404 47.1397 74.4952 47.5237 74.2021 47.8765C73.7657 48.3983 73.2382 48.8419 72.6351 49.1928C72.5253 49.2573 72.4233 49.312 72.3194 49.3638C72.3008 49.3726 72.2782 49.3853 72.2547 49.3999C72.2419 49.4068 72.2282 49.4156 72.2135 49.4214C70.5926 49.5846 68.9669 49.6696 67.3794 49.6735H67.1685C62.3658 49.6667 59.2662 48.9289 58.9181 48.8419C58.3936 48.5967 57.9768 48.3191 57.6738 48.0143C61.3911 48.3905 69.2375 48.2439 70.1838 48.2234L70.1847 48.2224ZM64.6917 50.638C65.3486 50.6791 65.8801 50.7064 66.6096 50.7143L67.1548 57.7501L63.7425 57.7511C63.7866 57.6857 63.816 57.6124 63.8239 57.5322L64.6926 50.64L64.6917 50.638ZM68.0099 50.7133C69.1552 50.6986 70.1338 50.639 71.6271 50.4963L74.5021 57.7501H68.407L68.0099 50.7133ZM59.4986 44.2725C58.8387 44.3546 57.7532 44.5608 56.9325 45.066C56.5903 43.7908 55.8441 41.3947 54.6302 39.4158C54.5743 39.3259 54.5459 39.2253 54.5459 39.1256C54.5459 39.0611 54.5566 38.9966 54.5812 38.935C54.6792 38.6663 54.8734 38.3008 55.2362 38.0839C55.4695 37.9451 55.7539 37.8757 56.0883 37.8757C56.3452 37.8757 56.6315 37.9168 56.9453 37.9979C57.3689 38.6907 59.2613 41.893 59.4986 44.2725ZM59.3918 50.0136C60.0066 50.1573 61.0813 50.3898 63.111 50.5589L62.6874 57.4277C62.6756 57.543 62.706 57.6544 62.7707 57.7501H56.0569L59.3918 50.0136ZM75.8308 57.7501L73.3617 50.1924C73.9481 49.8612 75.313 48.9143 76.0847 46.9423C76.3887 46.1595 76.675 45.5302 76.981 44.9634C77.9066 43.2533 79.5147 39.9113 79.8942 36.7354V36.6777C79.8952 36.664 79.8952 36.6494 79.8942 36.6367L79.8913 36.6054C79.7255 35.5461 79.2657 34.8464 78.5244 34.5278C77.7683 34.2024 76.9388 34.3861 76.4005 34.5816C76.2857 34.4565 76.1239 34.3236 75.8984 34.2103C74.9963 33.7529 73.5775 33.8555 71.6781 34.5151C71.4349 34.2884 71.128 34.1291 70.7633 34.0422C69.3924 33.7129 67.5294 34.4976 66.642 34.9334C66.3361 34.7634 65.834 34.5386 65.1966 34.4399C64.2779 34.2933 62.8855 34.3832 61.4254 35.6096C59.9046 35.3692 58.7005 35.5197 57.8415 36.0572C57.4042 36.3327 57.1404 36.6562 56.9816 36.9298C56.0755 36.7432 55.2793 36.835 54.6155 37.2054C54.1703 37.4536 53.8006 37.8533 53.5731 38.3311C53.3035 38.9047 53.3104 39.407 53.5986 39.8702C53.7192 40.0627 53.8369 40.265 53.9497 40.4702C54.1585 40.8543 54.3625 41.2676 54.5694 41.7338C54.9008 42.4823 55.1999 43.2777 55.4833 44.167C55.6696 44.7602 55.8274 45.3123 55.9608 45.8566C55.9804 45.9309 55.9971 46.0041 56.0157 46.0804C55.9471 46.3296 55.8569 46.8504 56.051 47.466C56.0549 47.4778 56.0598 47.4944 56.0677 47.512C56.2912 48.1989 56.6246 48.9709 57.6836 49.5729L54.6978 57.7492H44.5148L43.6803 54.7648H48.7116V42.9328H41.7859V41.1875H37.9931V36.9171H42.4899L40.116 30.7441H34.5043L32.1304 36.9171H36.6272V41.1875H32.8344V42.9328H25.9087V54.7648H30.94L30.1055 57.7492L10.1394 57.7501V19.0215L49.6597 1.47582V13.5814C48.9018 13.7183 48.3262 14.3779 48.3262 15.1723V17.9163C45.46 18.6375 43.3391 21.2232 43.3391 24.3033H56.5609C56.5609 21.2232 54.4399 18.6375 51.5738 17.9163V15.1723C51.5738 14.3779 50.9982 13.7183 50.2402 13.5814V1.43185L89.8596 19.0215V57.7511L75.8308 57.7501ZM34.0405 35.7093L35.4839 31.9558H39.1384L40.5818 35.7093H34.0405Z" fill="#49413D"/>
<path d="M49.8921 26.4991C51.0021 26.4991 51.9268 25.7017 52.117 24.6502H47.6683C47.8585 25.7017 48.7821 26.4991 49.8921 26.4991Z" fill="#49413D"/>
<path d="M47.3466 53.556V44.1435H27.2766V53.556H47.3466ZM33.9081 47.3703H40.7122V48.8214H33.9081V47.3703Z" fill="#E7A362"/>
<path d="M40.7122 47.3703H33.9081V48.8214H40.7122V47.3703Z" fill="#49413D"/>
<path d="M74.6931 57.959H76.0139L73.3473 50.0472C73.944 49.7195 75.3345 48.7863 76.1206 46.8405C76.4309 46.0674 76.7217 45.4478 77.0331 44.8881C77.9761 43.2004 79.6137 39.9022 79.9992 36.7684V36.7118C80.0003 36.6977 80.0003 36.6835 79.9992 36.6715L79.9959 36.641C79.8271 35.5957 79.3589 34.9054 78.6043 34.5907C77.8345 34.2695 76.9895 34.4513 76.4418 34.644C76.3242 34.521 76.1609 34.3892 75.9301 34.2771C75.0111 33.8252 73.5672 33.9265 71.6323 34.5776C71.3851 34.3544 71.0726 34.1965 70.7013 34.1105C69.3054 33.786 67.4086 34.5591 66.5059 34.9892C66.1945 34.8215 65.6827 34.5994 65.0348 34.5025C64.0995 34.3577 62.6818 34.447 61.1944 35.6567C59.646 35.4193 58.4199 35.5674 57.5456 36.0977C57.1002 36.3688 56.8312 36.6889 56.6701 36.959C55.7467 36.775 54.9377 36.8653 54.2615 37.2301C53.8085 37.4751 53.4318 37.8693 53.1999 38.3419C52.9255 38.9081 52.9331 39.4035 53.226 39.8608C53.349 40.0514 53.4688 40.2506 53.5831 40.4532C53.7955 40.8321 54.0034 41.2393 54.2147 41.6999C54.5522 42.4382 54.856 43.2233 55.1446 44.102C55.3351 44.6867 55.4941 45.2322 55.6302 45.769C55.6498 45.8431 55.6672 45.915 55.6858 45.9901C55.6161 46.2362 55.5246 46.7501 55.7217 47.3577C55.726 47.3686 55.7304 47.386 55.7391 47.4034C55.9667 48.0807 56.3064 48.8429 57.3844 49.4375L54.0895 58.1822H55.4266L59.1233 49.8708C59.7494 50.0135 60.8437 50.2421 62.9104 50.4087L62.4792 57.187C62.4651 57.3253 62.5119 57.4581 62.6121 57.5648C62.7112 57.6704 62.8473 57.7347 62.9997 57.7477C63.0193 57.7499 63.04 57.7499 63.0585 57.7499C63.3612 57.7499 63.6095 57.5485 63.6356 57.2882L64.5198 50.4871C65.1883 50.5274 65.7295 50.5546 66.4732 50.5623L67.0764 58.1071H68.3385L67.8985 50.5601C69.0647 50.5448 70.061 50.486 71.5811 50.3456L74.6942 57.9579L74.6931 57.959ZM71.8359 35.612C74.0518 34.8335 74.9904 34.999 75.3519 35.1689C75.3835 35.1841 75.4107 35.1994 75.4346 35.2146C73.3102 36.8751 71.9971 39.3567 71.2621 41.1795C70.6817 42.6211 70.3638 43.8613 70.2189 44.5125C70.1307 44.5027 70.036 44.4918 69.9358 44.482C69.4905 39.5124 71.4243 36.2458 71.8359 35.611V35.612ZM65.8428 35.8353C65.4987 37.8932 65.4094 42.4698 65.3887 44.249C64.7332 44.2305 64.0102 44.212 63.1968 44.1967C63.3481 40.6851 62.3595 37.3455 62.0382 36.3666C63.7423 35.0208 65.2308 35.5206 65.8428 35.8353ZM54.2735 39.4122C54.2169 39.3229 54.1875 39.2249 54.1875 39.1258C54.1875 39.0627 54.1984 38.9984 54.2234 38.9386C54.3236 38.6729 54.5207 38.3135 54.8909 38.099C55.1283 37.9618 55.4179 37.8932 55.7576 37.8932C56.019 37.8932 56.3108 37.9335 56.6309 38.0141C57.0621 38.6979 58.9894 41.8578 59.2311 44.2065C58.5593 44.2882 57.4541 44.4907 56.6178 44.9894C56.2694 43.7307 55.5094 41.3656 54.2735 39.4133V39.4122ZM56.8149 46.2286C57.3463 45.5088 59.0188 45.2311 59.8507 45.1843H59.9933C60.3636 45.1887 61.3468 45.1974 62.5816 45.217C63.7663 45.2377 64.89 45.2638 65.9364 45.2965L69.3522 45.4663C69.5798 45.4838 69.7888 45.5034 69.9739 45.5251C69.8411 46.0249 69.7181 46.5454 69.6092 47.079C67.8136 47.1084 59.6874 47.2151 56.7746 46.7839C56.742 46.5138 56.7899 46.307 56.8149 46.2286ZM67.255 49.5333H67.0405C62.1504 49.5267 58.9948 48.7983 58.6399 48.7123C58.1052 48.4695 57.6817 48.1961 57.3724 47.8956C61.1573 48.2669 69.1453 48.1232 70.1101 48.1025C70.3877 48.0971 70.6218 47.9174 70.6686 47.6735C71.8087 41.6978 74.1443 39.1748 75.9028 38.1088C77.069 37.4032 78.1416 37.2356 78.7611 37.2083C78.6022 38.1426 78.3299 39.1356 77.9314 40.2321C77.583 41.1871 77.167 42.1475 76.6574 43.1688C76.4821 43.5205 76.285 43.8744 76.0956 44.2163C75.9769 44.4308 75.8571 44.6464 75.7428 44.862C75.5609 45.2007 75.4128 45.5524 75.2702 45.891C75.1657 46.1371 75.059 46.3908 74.9436 46.6314C74.7497 47.0321 74.4993 47.4122 74.2009 47.7595C73.7567 48.2745 73.2199 48.7123 72.6047 49.0585C72.4936 49.1217 72.3891 49.1761 72.2834 49.2273C72.2649 49.236 72.2421 49.2491 72.2181 49.2632C72.205 49.2698 72.1909 49.2785 72.1767 49.285C70.5271 49.4462 68.8709 49.53 67.255 49.5333Z" fill="#004F52"/>
</svg>
