<svg width="38" height="37" viewBox="0 0 38 37" fill="none" xmlns="http://www.w3.org/2000/svg">
<path d="M19.3307 0C9.24344 0 0.973643 8.31709 0.987155 18.4652C0.879054 28.6943 9.45964 37.1195 19.6888 36.9979C29.7355 36.8763 37.9783 28.6538 37.9783 18.5192C37.9648 8.20899 29.7152 0 19.3307 0ZM27.9856 25.0796C26.7897 25.0796 25.6682 25.0796 24.4453 25.0796C24.4453 24.8499 24.4453 24.6202 24.4453 24.377C24.4453 22.6541 24.4588 20.9447 24.4453 19.2219C24.4453 18.8705 24.4047 18.5057 24.3372 18.1476C24.148 17.0733 23.648 16.6139 22.7089 16.5869C21.5806 16.5599 20.9049 17.0193 20.6752 18.0665C20.5536 18.607 20.5266 19.1948 20.5266 19.7489C20.5131 21.5123 20.5266 23.2622 20.5266 25.0796C19.3442 25.0796 18.2091 25.0796 17.0133 25.0796C17.0133 21.3231 17.0133 17.5666 17.0133 13.7695C18.1145 13.7695 19.1956 13.7695 20.3644 13.7695C20.3644 14.2154 20.3644 14.6343 20.3644 15.2491C21.3576 13.9316 22.5467 13.4317 23.9858 13.4587C26.2357 13.4992 27.6613 14.7086 27.864 16.9585C28.0126 18.5462 27.9721 20.161 27.9856 21.7487C27.9991 22.8433 27.9856 23.9446 27.9856 25.0796ZM12.973 8.1144C14.1553 8.10089 15.0336 8.97921 15.0472 10.1616C15.0472 11.2764 14.1418 12.2088 13.0405 12.2223C11.8987 12.2358 10.9393 11.3102 10.9258 10.1886C10.9123 9.04678 11.8176 8.12791 12.973 8.1144ZM14.7228 13.7695C14.7228 17.5395 14.7228 21.2826 14.7228 25.0796C13.5945 25.0796 12.4595 25.0796 11.2636 25.0796C11.2636 21.3366 11.2636 17.5801 11.2636 13.7695C12.446 13.7695 13.5675 13.7695 14.7228 13.7695Z" fill="white"/>
</svg>
