<svg width="28" height="16" viewBox="0 0 28 16" fill="none" xmlns="http://www.w3.org/2000/svg">
<path d="M27.1949 5.08517C26.0056 2.13621 22.7718 0.158826 19.6091 0.393639C16.8484 0.521863 14.449 2.25667 13.2986 4.59595C13.2957 4.60353 13.2903 4.60582 13.2889 4.60961L13.1911 4.80671C13.1572 4.87191 13.186 4.94809 13.253 4.98248C13.3201 5.01688 13.3973 4.98999 13.4312 4.92479L13.4894 4.80804C15.4454 1.12243 20.871 0.0213993 24.1735 3.51932C26.6198 6.05071 26.4967 10.33 23.8995 12.6275C19.6924 16.4498 12.8166 13.3856 12.7573 7.78978C12.7573 7.78978 12.7573 7.78977 12.752 7.79207C12.5688 2.75259 6.59609 -0.282743 2.39523 2.89471C-0.667846 5.20927 -0.820819 9.95055 2.09636 12.545C5.53901 15.6189 10.5764 14.204 12.2197 10.555L12.2284 10.5322C12.2623 10.467 12.235 10.3871 12.1679 10.3527C12.1008 10.3183 12.0236 10.3452 11.9873 10.4051C10.4051 13.4173 5.9736 14.3215 3.28529 11.4672C1.30371 9.42226 1.40628 5.93005 3.50918 4.07296C6.88629 0.996914 12.3915 3.40142 12.5631 7.85437C12.5661 11.4435 15.4583 14.8016 19.1629 15.3174C22.3036 15.8386 25.6403 14.1719 27.008 11.3468C27.9696 9.4304 28.0624 7.08121 27.2017 5.07908L27.1949 5.08517Z" fill="white"/>
<path d="M26.1322 6.99993H27.1322V7.99993H26.1322V6.99993Z" fill="white"/>
</svg>
