<svg width="307" height="45" viewBox="0 0 307 45" fill="none" xmlns="http://www.w3.org/2000/svg">
<path d="M87.7817 15.6924C87.6763 15.6732 87.5708 15.6732 87.4654 15.6732C86.1711 15.6732 84.8769 15.6732 83.5826 15.6732C83.5155 15.6732 83.4484 15.6732 83.3909 15.6732C83.3429 15.6732 83.295 15.7019 83.2662 15.7307C83.132 15.8841 83.2471 16.2197 83.4484 16.2676C83.6689 16.3155 83.8415 16.4497 83.9853 16.5935C84.2825 16.9099 84.4646 17.2838 84.455 17.744C84.455 17.9933 84.455 18.2329 84.4359 18.4822C84.4359 18.6835 84.4167 18.8848 84.3112 19.0766C84.2729 19.1437 84.2729 19.23 84.2537 19.3163C84.1578 19.6518 84.0715 19.9874 83.9661 20.3229C83.8798 20.5913 83.7743 20.8598 83.6689 21.1282C83.5538 21.4446 83.4388 21.7514 83.3238 22.0678C83.2375 22.3074 83.1512 22.5471 83.0745 22.7772C82.9786 23.036 82.8923 23.3045 82.8061 23.5633C82.7389 23.7551 82.6622 23.9468 82.5951 24.1386C82.4993 24.3878 82.4034 24.6371 82.3075 24.8863C82.1829 25.2123 82.0678 25.5479 81.9528 25.8738C81.8665 26.1039 81.7898 26.334 81.7035 26.5641C81.6173 26.8229 81.531 27.0914 81.4351 27.3502C81.368 27.542 81.2913 27.7337 81.2242 27.9254C81.1283 28.1939 81.0133 28.4527 80.9174 28.7212C80.8215 28.98 80.7448 29.2485 80.649 29.5073C80.5339 29.8333 80.4093 30.1688 80.2847 30.4948C80.1984 30.7344 80.1121 30.9645 80.0162 31.2042C79.9203 31.4631 79.8149 31.7219 79.7286 31.9808C79.6327 32.2396 79.556 32.5081 79.4602 32.7669C79.3931 32.9682 79.3068 33.16 79.2397 33.3613C79.1438 33.6202 79.0383 33.879 78.9521 34.1379C78.8562 34.3967 78.7699 34.6651 78.6836 34.924C78.6261 35.087 78.5686 35.25 78.5111 35.4033C78.4152 35.6622 78.3097 35.921 78.2043 36.1799C78.1276 36.3908 78.0509 36.6113 77.9742 36.8222C77.8783 37.0907 77.792 37.3591 77.6962 37.6371C77.5811 37.9631 77.4661 38.2795 77.3414 38.6054C77.2551 38.8451 77.1689 39.0752 77.0826 39.3149C76.9771 39.6025 76.8717 39.8997 76.7662 40.1873C76.7279 40.2736 76.6895 40.3694 76.6224 40.4365C76.5361 40.5228 76.4402 40.4941 76.3923 40.379C76.2389 39.9955 76.0951 39.6121 75.9417 39.2286C75.9321 39.1998 75.913 39.1711 75.8938 39.1423C75.7883 38.9122 75.6925 38.6821 75.5966 38.452C75.5007 38.2123 75.4144 37.9631 75.3186 37.7234C75.2514 37.5604 75.1843 37.3974 75.1076 37.2345C75.0118 37.0236 74.9063 36.8126 74.82 36.5921C74.7242 36.3525 74.6475 36.1032 74.5516 35.8635C74.4366 35.5663 74.3119 35.2787 74.1873 34.9911C74.1106 34.7994 74.0339 34.6172 73.9572 34.4255C73.8901 34.2529 73.8134 34.0803 73.7367 33.9078C73.6408 33.6873 73.5258 33.4668 73.4395 33.2463C73.3436 33.0066 73.2573 32.7573 73.1615 32.5176C73.1231 32.4218 73.0656 32.3355 73.0273 32.23C72.9314 31.9999 72.8451 31.7603 72.7492 31.5302C72.6821 31.3672 72.615 31.2042 72.5383 31.0412C72.4329 30.8016 72.3274 30.5715 72.2315 30.3318C72.1452 30.1113 72.0686 29.8908 71.9727 29.6799C71.8768 29.4498 71.7618 29.2293 71.6563 28.9992C71.5317 28.702 71.407 28.4048 71.2824 28.098C71.1961 27.8967 71.1194 27.6858 71.0427 27.4844C71.0044 27.3982 70.9756 27.3023 70.9181 27.2256C70.851 27.1201 70.851 27.0243 70.8989 26.9092C71.014 26.66 71.1098 26.4011 71.2057 26.1327C71.3016 25.8834 71.3783 25.6245 71.4646 25.3657C71.5317 25.1644 71.6084 24.9726 71.6851 24.7713C71.7809 24.5125 71.8864 24.2536 71.9919 23.9947C72.1165 23.6784 72.2315 23.3524 72.3466 23.036C72.4424 22.7772 72.5287 22.5088 72.615 22.2499C72.6917 22.0198 72.778 21.7897 72.8643 21.5596C72.9697 21.2912 73.0752 21.0324 73.1711 20.7639C73.2573 20.5242 73.3245 20.2654 73.4299 20.0257C73.66 19.5176 73.8997 19.0287 74.1394 18.5301C74.3599 18.07 74.6379 17.6481 74.9734 17.2742C75.3665 16.8332 75.7883 16.421 76.3827 16.258C76.4786 16.2292 76.5169 16.1813 76.5265 16.0854C76.5745 15.7403 76.5361 15.6828 76.1814 15.6828C74.8967 15.6828 73.6025 15.6828 72.3178 15.6828C72.2507 15.6828 72.1836 15.6828 72.1261 15.6924C72.0877 15.6924 72.0494 15.7211 72.0206 15.7499C71.896 15.9033 72.0014 16.2292 72.2028 16.2868C72.2603 16.3059 72.337 16.3155 72.3849 16.3539C72.5575 16.4881 72.7301 16.6127 72.8643 16.8045C72.9697 16.9579 72.9793 17.1208 73.0464 17.2742C73.1902 17.6289 73.1615 17.9741 73.0752 18.3384C72.9889 18.7315 72.9602 19.1437 72.8068 19.5272C72.6917 19.8244 72.6246 20.1312 72.5191 20.438C72.4329 20.6872 72.3274 20.9269 72.2315 21.1666C72.1548 21.3679 72.0877 21.5788 72.011 21.7897C71.9152 22.0486 71.8289 22.317 71.733 22.5759C71.6659 22.758 71.5988 22.9402 71.5221 23.1223C71.4262 23.3812 71.3208 23.64 71.2249 23.8989C71.129 24.1577 71.0427 24.4262 70.9565 24.685C70.8414 25.0014 70.7264 25.3082 70.6113 25.6245C70.573 25.7204 70.5442 25.8163 70.4196 25.8163C70.2854 25.8163 70.2662 25.73 70.2278 25.6341C70.1416 25.3945 70.0553 25.1644 69.9594 24.9343C69.8635 24.6946 69.7485 24.4645 69.6526 24.2248C69.5567 23.9852 69.4705 23.7359 69.3746 23.4962C69.2691 23.2182 69.1445 22.9402 69.039 22.6621C68.9623 22.4704 68.8857 22.2691 68.7994 22.0773C68.7323 21.9239 68.6747 21.761 68.6076 21.6076C68.5022 21.3679 68.3871 21.1378 68.2913 20.8981C68.1666 20.6105 68.042 20.3133 67.9269 20.0257C67.8407 19.8244 67.764 19.6231 67.6873 19.4121C67.601 19.1725 67.5147 18.9232 67.4188 18.6835C67.323 18.4247 67.1696 18.185 67.1216 17.9261C67.0545 17.5906 67.0545 17.2455 67.0641 16.9003C67.0641 16.5935 67.2654 16.4018 67.553 16.2963C67.716 16.2388 67.8119 16.0663 67.7831 15.8841C67.764 15.7403 67.6873 15.7019 67.4668 15.6924C67.4668 15.6924 67.4476 15.6924 67.438 15.6924C65.511 15.6924 63.584 15.6924 61.657 15.6924C61.5803 15.6924 61.5036 15.7019 61.3982 15.7115C61.3982 15.8649 61.3886 16.0087 61.3982 16.143C61.3982 16.1909 61.4653 16.258 61.5132 16.2772C62.0022 16.4977 62.4048 16.8236 62.7308 17.2455C63.0088 17.6002 63.2581 17.9741 63.4977 18.348C63.6607 18.6068 63.7949 18.8849 63.9291 19.1629C64.0442 19.393 64.1496 19.6326 64.2551 19.8723C64.351 20.0928 64.4373 20.3037 64.5235 20.5242C64.6098 20.7543 64.6961 20.9748 64.792 21.2049C64.8591 21.3679 64.9262 21.5309 65.0029 21.7034C65.1084 21.9431 65.2138 22.1828 65.3097 22.4225C65.4247 22.6813 65.5302 22.9498 65.6356 23.2086C65.7219 23.4291 65.8178 23.64 65.9041 23.8605C65.9904 24.0906 66.0766 24.3111 66.1725 24.5412C66.2396 24.7042 66.3067 24.8672 66.3834 25.0397C66.4793 25.2698 66.5848 25.4999 66.6902 25.73C66.8053 26.008 66.9203 26.2861 67.0353 26.5641C67.1216 26.7846 67.2079 27.0051 67.2942 27.2256C67.3805 27.4557 67.4668 27.6762 67.5626 27.9063C67.6585 28.1268 67.7736 28.3473 67.8598 28.5774C67.9845 28.8746 68.1091 29.1718 68.2242 29.4785C68.3008 29.6703 68.3488 29.8716 68.2817 30.0729C68.2241 30.2263 68.157 30.3701 68.0995 30.5235C67.9749 30.8207 67.8503 31.1275 67.7256 31.4247C67.6393 31.626 67.5626 31.837 67.4859 32.0383C67.3901 32.278 67.2942 32.5272 67.1983 32.7669C67.1025 32.997 67.0066 33.2175 66.9107 33.438C66.8148 33.6681 66.7382 33.9078 66.6423 34.1474C66.5272 34.4446 66.4026 34.7323 66.278 35.0294C66.1917 35.2404 66.0958 35.4513 66.0095 35.6622C65.9137 35.8923 65.8082 36.1224 65.7219 36.362C65.6356 36.6017 65.5398 36.8318 65.4439 37.0619C65.348 37.292 65.2426 37.5221 65.1467 37.7618C65.07 37.9343 65.0029 38.1069 64.9358 38.2795C64.8495 38.5095 64.7632 38.7396 64.6769 38.9601C64.6098 39.1327 64.5331 39.3053 64.466 39.4778C64.3606 39.7367 64.2455 40.0051 64.1401 40.264C64.073 40.427 63.9963 40.5708 63.8333 40.6666C63.747 40.4365 63.6511 40.2256 63.5744 40.0051C63.4881 39.7654 63.4114 39.5354 63.3252 39.2957C63.3156 39.2669 63.2964 39.2382 63.2772 39.2094C63.1718 38.9601 63.0759 38.7205 62.98 38.4712C62.8842 38.2315 62.8075 37.9823 62.7212 37.7426C62.7212 37.7234 62.6924 37.7042 62.6828 37.6851C62.6541 37.6084 62.6157 37.5413 62.587 37.4646C62.5007 37.2249 62.424 36.9756 62.3281 36.7359C62.2994 36.6497 62.2322 36.5634 62.1939 36.4771C62.098 36.2278 62.0213 35.969 61.935 35.7197C61.9063 35.6334 61.8392 35.5471 61.8008 35.4609C61.7049 35.202 61.6187 34.9432 61.5324 34.6747C61.5324 34.6556 61.5036 34.6364 61.494 34.6076C61.3982 34.3871 61.2927 34.1666 61.2064 33.9365C61.1106 33.6873 61.0339 33.4284 60.9476 33.1791C60.9476 33.16 60.9284 33.1312 60.9188 33.112C60.8134 32.8628 60.7079 32.6231 60.612 32.3738C60.5162 32.1342 60.449 31.8849 60.3628 31.6356C60.3532 31.6069 60.334 31.5781 60.3244 31.5493C60.2285 31.3097 60.1231 31.07 60.0272 30.8303C59.9313 30.5811 59.8546 30.3222 59.7684 30.0729C59.7684 30.0538 59.7396 30.0346 59.73 30.0058C59.6917 29.91 59.6533 29.8141 59.615 29.7182C59.5862 29.6511 59.5766 29.5744 59.5479 29.5073C59.452 29.2772 59.3465 29.0471 59.2507 28.817C59.1548 28.5678 59.0781 28.3089 58.9918 28.0597C58.9918 28.0405 58.9726 28.0117 58.9631 27.9925C58.8576 27.7529 58.7521 27.5228 58.6563 27.2831C58.5604 27.0338 58.4837 26.775 58.3974 26.5257C58.3878 26.497 58.3687 26.4682 58.3591 26.4394C58.2536 26.1902 58.1577 25.9505 58.0619 25.7012C57.966 25.4616 57.8893 25.2123 57.803 24.9726C57.803 24.9535 57.7838 24.9439 57.7838 24.9247C57.7359 24.8096 57.6976 24.7042 57.6496 24.5891C57.6305 24.5316 57.6113 24.4837 57.5921 24.4262C57.5442 24.3111 57.4962 24.1865 57.4483 24.0714C57.4291 24.0139 57.4004 23.9468 57.3812 23.8893C57.2853 23.6496 57.1799 23.4099 57.084 23.1703C56.9881 22.9306 56.9114 22.6813 56.8347 22.4321C56.8347 22.4129 56.8156 22.3841 56.806 22.365C56.7005 22.1157 56.5951 21.8568 56.4896 21.598C56.4033 21.3679 56.3266 21.1282 56.2403 20.8885C56.2403 20.8694 56.2116 20.8502 56.202 20.8214C56.1636 20.7256 56.1157 20.6297 56.0869 20.5338C56.0007 20.2941 55.924 20.0353 55.8281 19.8052C55.6939 19.4888 55.598 19.1629 55.483 18.8465C55.3871 18.5972 55.3008 18.3384 55.2625 18.0795C55.2625 18.0604 55.2433 18.0316 55.2337 18.0124C55.1282 17.8878 55.1282 17.744 55.1186 17.5906C55.1186 17.4372 55.1186 17.2838 55.1186 17.1208C55.1186 16.7469 55.3583 16.421 55.7226 16.2963C55.7706 16.2772 55.8568 16.2484 55.8568 16.2101C55.876 16.0663 55.9048 15.9129 55.876 15.7786C55.8473 15.654 55.6939 15.7211 55.5884 15.7019C55.5597 15.7019 55.5405 15.7019 55.5117 15.7019C53.6231 15.7019 51.744 15.7019 49.8554 15.7019C49.7595 15.7019 49.654 15.7019 49.5582 15.7307C49.5102 15.7403 49.4431 15.7786 49.4239 15.817C49.3472 15.9608 49.4239 16.2005 49.5486 16.2772C49.6732 16.3539 49.8074 16.4114 49.9225 16.4977C50.143 16.6702 50.3826 16.8428 50.5744 17.0441C50.9962 17.5043 51.3318 18.022 51.6002 18.5877C51.6769 18.7506 51.7632 18.904 51.8399 19.067C51.9357 19.2683 52.0412 19.4601 52.1275 19.6614C52.2521 19.949 52.3672 20.2462 52.4822 20.5434C52.5685 20.7639 52.6548 20.9844 52.7315 21.2049C52.8273 21.4542 52.904 21.713 52.9999 21.9623C53.0958 22.202 53.2108 22.4416 53.3067 22.6813C53.4313 23.0073 53.556 23.3332 53.6806 23.6592C53.6902 23.6975 53.6998 23.7359 53.7094 23.7742C53.8052 24.0427 53.9011 24.3111 53.997 24.57C54.0832 24.8001 54.1983 25.0301 54.2846 25.2698C54.4092 25.5766 54.5147 25.893 54.6297 26.2094C54.716 26.4299 54.8023 26.6504 54.879 26.8709C54.9748 27.1393 55.0707 27.4077 55.1666 27.6762C55.272 27.9542 55.3775 28.2418 55.483 28.5198C55.5788 28.7595 55.6747 29.0088 55.7706 29.2485C55.8664 29.4881 55.9623 29.7278 56.0582 29.9771C56.154 30.2263 56.2307 30.4852 56.3266 30.7344C56.4225 30.9741 56.5279 31.2138 56.6238 31.4535C56.758 31.789 56.8827 32.115 57.0073 32.4505C57.0169 32.4793 57.0265 32.5176 57.0361 32.5464C57.1223 32.7957 57.2086 33.0545 57.3045 33.3038C57.4004 33.553 57.5154 33.7927 57.6113 34.042C57.7455 34.3679 57.8605 34.6939 57.9948 35.0199C58.0139 35.0582 58.0139 35.0966 58.0331 35.1349C58.1194 35.3938 58.2153 35.6622 58.3111 35.9115C58.407 36.1511 58.5125 36.3908 58.6083 36.6305C58.733 36.9469 58.848 37.2632 58.9726 37.5892C58.9918 37.6467 59.0014 37.7042 59.0206 37.7522C59.0493 37.848 59.0877 37.9343 59.126 38.0206C59.1548 38.0877 59.1836 38.1548 59.2123 38.2219C59.2986 38.4712 59.3849 38.73 59.4808 38.9793C59.5862 39.2765 59.7013 39.5737 59.8163 39.8613C59.9218 40.1202 60.0272 40.3694 60.1231 40.6283C60.1518 40.705 60.1806 40.7817 60.1998 40.8584C60.2285 40.9351 60.2477 41.0118 60.2765 41.0885C60.3723 41.3186 60.4778 41.5486 60.5641 41.7883C60.6887 42.0951 60.7942 42.4115 60.9188 42.7183C60.9955 42.9292 61.0914 43.1401 61.1681 43.351C61.2639 43.6003 61.3311 43.8591 61.4269 44.1084C61.542 44.396 61.6762 44.6836 61.8104 44.9904C62.146 44.9904 62.4719 44.9904 62.7979 44.9904C62.8458 44.9904 62.8937 44.9425 62.9321 44.9137C63.0759 44.7699 63.1142 44.5782 63.1814 44.3864C63.2964 44.0796 63.421 43.7824 63.5457 43.4852C63.6319 43.2839 63.7182 43.0826 63.8045 42.8812C63.9004 42.6512 64.0058 42.4211 64.1017 42.1814C64.188 41.9609 64.2647 41.7404 64.351 41.5199C64.4181 41.3377 64.4948 41.1556 64.5715 40.983C64.6674 40.7529 64.7728 40.5228 64.8783 40.2927C65.0029 40.0051 65.1179 39.7079 65.2426 39.4107C65.3289 39.1998 65.4055 38.9889 65.4918 38.778C65.5877 38.5383 65.6836 38.2986 65.7794 38.0494C65.8753 37.8097 65.9808 37.57 66.0766 37.3303C66.1725 37.1003 66.2492 36.8702 66.3451 36.6497C66.4409 36.4196 66.5464 36.1895 66.6519 35.9594C66.7765 35.6718 66.8915 35.3746 67.0066 35.0774C67.1025 34.8473 67.1887 34.6076 67.275 34.3679C67.3613 34.1474 67.4572 33.9269 67.5435 33.716C67.6489 33.4668 67.7448 33.2175 67.8503 32.9682C67.9461 32.7381 68.0324 32.5176 68.1187 32.2876C68.2242 32.0191 68.3392 31.7411 68.4542 31.4726C68.5309 31.3001 68.6076 31.1275 68.7418 30.9262C68.9528 31.3001 69.0774 31.6548 69.2308 31.9999C69.3267 32.2204 69.4034 32.4505 69.4992 32.6806C69.6143 32.9682 69.7293 33.2558 69.8444 33.5339C69.9306 33.7448 70.0169 33.9557 70.1128 34.1666C70.2087 34.3967 70.3141 34.6268 70.41 34.8569C70.5059 35.087 70.5826 35.3171 70.6688 35.5376C70.7935 35.8348 70.9181 36.1415 71.0427 36.4387C71.1194 36.6305 71.2057 36.8318 71.292 37.0236C71.3975 37.2824 71.5029 37.5317 71.6084 37.7905C71.7042 38.0206 71.7905 38.2411 71.8864 38.4712C71.9823 38.7013 72.0877 38.9314 72.1836 39.1615C72.2986 39.4395 72.4137 39.7175 72.5287 39.9955C72.6054 40.1873 72.7013 40.379 72.778 40.5803C72.8739 40.8104 72.9506 41.0501 73.0368 41.2898C73.1519 41.587 73.2765 41.8746 73.4012 42.1718C73.4874 42.3827 73.5833 42.5936 73.6696 42.8045C73.7655 43.0346 73.8709 43.2647 73.9668 43.4948C74.0627 43.7249 74.1394 43.9646 74.2448 44.1947C74.3599 44.4631 74.4845 44.722 74.6187 45C74.9447 45 75.2706 45 75.5966 45C75.6445 45 75.7116 44.952 75.75 44.9041C75.9513 44.6357 75.9992 44.3001 76.1239 44.0029C76.2293 43.7537 76.2964 43.4948 76.3827 43.236C76.4978 42.91 76.6224 42.584 76.7374 42.2485C76.8237 42.0184 76.9004 41.7883 76.9867 41.5582C77.0922 41.2802 77.1976 41.0118 77.2935 40.7337C77.3894 40.4749 77.4661 40.2065 77.5619 39.9476C77.677 39.6216 77.8016 39.2861 77.9166 38.9601C78.0029 38.73 78.0796 38.5 78.1659 38.2699C78.2714 37.9918 78.3768 37.7042 78.4823 37.4262C78.5686 37.1769 78.6549 36.9181 78.7411 36.6592C78.8562 36.3333 78.9808 35.9977 79.0959 35.6718C79.1821 35.4321 79.2684 35.202 79.3643 34.9623C79.4698 34.6843 79.5656 34.4159 79.6711 34.1379C79.7574 33.8886 79.8437 33.6297 79.9395 33.3805C80.0066 33.1887 80.0737 32.997 80.1504 32.8052C80.2463 32.5368 80.3518 32.278 80.4476 32.0095C80.5435 31.7507 80.6202 31.4822 80.7161 31.2234C80.7832 31.0221 80.8599 30.8303 80.9366 30.629C81.0324 30.3606 81.1379 30.1017 81.2434 29.8333C81.3584 29.5169 81.4734 29.2101 81.5885 28.8937C81.6748 28.6636 81.7611 28.4336 81.8378 28.2035C81.924 27.9446 82.0103 27.6762 82.0966 27.4173C82.1637 27.216 82.2404 27.0243 82.3171 26.8229C82.413 26.5641 82.5184 26.3052 82.6143 26.0464C82.7389 25.7204 82.854 25.3849 82.969 25.0589C83.0457 24.8384 83.132 24.6179 83.2087 24.3878C83.295 24.129 83.3813 23.8605 83.4676 23.6017C83.5922 23.2565 83.7168 22.9114 83.8415 22.5663C83.9181 22.3458 84.0044 22.1253 84.0907 21.9048C84.1866 21.6363 84.3016 21.3775 84.3975 21.109C84.4934 20.8598 84.5701 20.6009 84.6564 20.3421C84.7235 20.1503 84.8097 19.9682 84.896 19.7764C84.9823 19.5751 85.0878 19.3834 85.1836 19.182C85.337 18.8657 85.4808 18.5301 85.663 18.2233C85.9218 17.7823 86.219 17.3605 86.5929 16.9962C86.9093 16.699 87.2353 16.4114 87.6763 16.2963C87.8297 16.258 87.9255 16.1046 87.9351 15.9512C87.9351 15.8362 87.8968 15.7595 87.7817 15.7307V15.6924Z" fill="#49413D"/>
<path d="M125.699 34.3776C126.044 34.8282 126.379 35.2787 126.724 35.7197C127.232 36.3717 127.741 37.0236 128.239 37.6755C128.584 38.1261 128.929 38.5863 129.284 39.0369C129.792 39.6984 130.3 40.3503 130.808 41.0118C131.182 41.4912 131.547 41.9705 131.921 42.4499C132.275 42.9196 132.63 43.3798 132.994 43.8496C133.244 44.1659 133.493 44.4823 133.732 44.7987C133.819 44.9137 133.934 44.9617 134.078 44.9617C134.26 44.9617 134.336 44.9041 134.346 44.722C134.346 44.6357 134.346 44.5398 134.346 44.4536C134.346 37.5509 134.346 30.6578 134.346 23.7551C134.346 22.3746 134.346 20.9844 134.346 19.6039C134.346 19.3834 134.365 19.1629 134.394 18.9424C134.423 18.6931 134.499 18.4439 134.509 18.1946C134.519 17.6865 134.662 17.2263 134.873 16.7661C134.998 16.4881 135.19 16.2772 135.429 16.1046C135.554 16.0184 135.698 15.9608 135.842 15.9033C135.995 15.8362 136.11 15.654 136.081 15.4911C136.062 15.376 135.985 15.3281 135.765 15.3185C135.736 15.3185 135.698 15.3185 135.669 15.3185C134.145 15.3185 132.62 15.3185 131.096 15.3185H130.789C130.789 15.4719 130.789 15.5773 130.789 15.6732C130.789 15.8074 130.866 15.8745 130.991 15.9129C131.48 16.0375 131.911 16.2772 132.285 16.6223C132.544 16.8524 132.716 17.1592 132.898 17.4372C133.004 17.5906 133.071 17.7728 133.119 17.9454C133.205 18.2617 133.387 18.5589 133.368 18.9136C133.368 18.9328 133.387 18.9616 133.397 18.9808C133.426 19.0862 133.464 19.2013 133.474 19.3067C133.502 19.6902 133.531 20.0737 133.56 20.4572C133.617 21.157 133.713 21.8569 133.685 22.5663C133.685 22.7293 133.685 22.8923 133.685 23.0552C133.685 27.9926 133.685 32.9203 133.685 37.8577C133.685 38.0973 133.685 38.337 133.665 38.5671C133.656 38.7301 133.541 38.778 133.416 38.6726C133.387 38.6438 133.359 38.615 133.339 38.5863C133.138 38.3274 132.937 38.0686 132.735 37.8097C132.17 37.0811 131.614 36.3429 131.048 35.6143C130.502 34.9144 129.955 34.2146 129.409 33.5051C128.833 32.7574 128.268 32.0096 127.693 31.2714C127.156 30.5715 126.609 29.8812 126.063 29.1814C125.507 28.4528 124.951 27.7241 124.395 27.0051C123.944 26.4203 123.484 25.8259 123.033 25.2411C122.276 24.2632 121.519 23.2949 120.761 22.317C120.09 21.4542 119.429 20.5818 118.758 19.719C118.374 19.23 118 18.7411 117.617 18.2425C117.262 17.7824 116.907 17.3222 116.552 16.862C116.198 16.4114 115.843 15.9608 115.498 15.5102C115.383 15.3568 115.239 15.2897 115.057 15.3089C115.009 15.3089 114.961 15.3089 114.913 15.3089C113.811 15.3089 112.718 15.3089 111.615 15.3089C111.558 15.3089 111.5 15.3089 111.443 15.3089C111.28 15.3281 111.212 15.4048 111.212 15.5678C111.212 15.7595 111.308 15.8745 111.5 15.9033C111.769 15.9512 111.989 16.0855 112.21 16.2293C112.564 16.4498 112.785 16.7757 112.948 17.1496C113.13 17.5906 113.274 18.0316 113.283 18.511C113.283 18.626 113.293 18.7411 113.302 18.8561C113.341 19.393 113.408 19.9299 113.418 20.4667C113.437 21.4446 113.418 22.4129 113.418 23.3908C113.418 28.6637 113.418 33.927 113.418 39.1998C113.418 39.4875 113.398 39.7751 113.379 40.0531C113.341 40.6091 113.302 41.1652 113.264 41.7212C113.255 41.9417 113.235 42.1622 113.12 42.3636C113.082 42.4211 113.082 42.5074 113.063 42.5745C112.977 42.9676 112.794 43.3127 112.507 43.5907C112.277 43.8112 111.999 43.9646 111.721 44.0701V44.5686C111.769 44.5686 111.807 44.5878 111.836 44.5878C113.456 44.5878 115.086 44.5878 116.706 44.5878C116.802 44.5878 116.888 44.5494 116.984 44.5303C116.984 44.4248 116.984 44.3385 116.984 44.2618C116.993 44.118 116.926 44.0701 116.802 44.0221C116.562 43.9454 116.322 43.8592 116.102 43.7441C115.584 43.4757 115.172 43.0826 114.875 42.5745C114.769 42.3923 114.702 42.191 114.606 41.9993C114.491 41.7788 114.415 41.5487 114.405 41.2994C114.405 41.2515 114.367 41.2131 114.347 41.1652C114.309 41.031 114.261 40.9063 114.242 40.7721C114.223 40.59 114.252 40.3886 114.204 40.2065C114.041 39.5737 114.031 38.9314 114.031 38.2795C114.031 32.1054 114.031 25.9218 114.031 19.7477C114.031 19.671 114.031 19.6039 114.031 19.5272C114.031 19.4697 114.06 19.4026 114.089 19.3163C114.156 19.4218 114.194 19.4985 114.252 19.5656C114.769 20.2367 115.297 20.8982 115.814 21.5693C116.159 22.0103 116.495 22.4609 116.84 22.9114C117.348 23.573 117.856 24.2249 118.364 24.8864C118.71 25.337 119.055 25.7971 119.409 26.2477C119.908 26.8901 120.406 27.542 120.905 28.1843C121.279 28.6733 121.653 29.1526 122.027 29.6416C122.362 30.073 122.698 30.5044 123.033 30.9358C123.551 31.6069 124.059 32.2876 124.577 32.9587C124.932 33.4284 125.296 33.8886 125.651 34.3584L125.699 34.3776Z" fill="#49413D"/>
<path d="M90.9454 43.3127C90.792 43.6961 90.5524 44.0029 90.1881 44.2043C90.0443 44.2905 89.9005 44.3768 89.7471 44.4727C89.7471 44.5494 89.7375 44.6261 89.7375 44.7124C89.7375 44.7891 89.7375 44.8658 89.7471 44.952H110.388C110.388 44.8562 110.398 44.7603 110.407 44.674C110.426 44.2714 110.436 43.8687 110.474 43.4756C110.522 42.9388 110.599 42.4019 110.599 41.865C110.599 41.2323 110.599 40.6091 110.704 39.9764C110.724 39.8709 110.733 39.7654 110.733 39.66C110.733 39.5066 110.628 39.3916 110.465 39.3628C110.321 39.334 110.263 39.3724 110.187 39.5354C109.995 39.9284 109.822 40.3215 109.611 40.6954C109.401 41.0693 109.161 41.4336 108.902 41.7787C108.547 42.2485 108.125 42.6416 107.636 42.9579C107.416 43.1017 107.215 43.2551 106.985 43.3894C106.802 43.4948 106.582 43.5332 106.419 43.6578C106.198 43.8208 105.901 43.7824 105.69 43.9454C105.221 44.0221 104.77 44.2138 104.281 44.2138C104.137 44.2138 103.993 44.2138 103.869 44.2522C103.466 44.3672 103.054 44.3672 102.651 44.3672C100.897 44.3672 99.1424 44.3672 97.3879 44.3768C97.1099 44.3768 96.8223 44.396 96.5539 44.3577C96.2663 44.3193 95.9882 44.2234 95.7006 44.1467C95.6814 44.1467 95.6719 44.1276 95.6623 44.118C95.4513 43.9742 95.2404 43.8208 95.1254 43.5907C95.0008 43.351 94.8378 43.1209 94.857 42.8237C94.8761 42.5361 94.857 42.2485 94.857 41.9609C94.857 37.9343 94.857 33.9078 94.857 29.8812C94.857 29.8045 94.8665 29.7278 94.8761 29.6223H95.1733C97.1578 29.6223 99.1424 29.6415 101.127 29.6223C102.258 29.6223 103.361 29.747 104.454 30.0538C104.645 30.1113 104.837 30.188 105.019 30.2839C105.221 30.3893 105.422 30.5139 105.594 30.6482C105.853 30.8495 106.083 31.0796 106.256 31.3672C106.429 31.6548 106.563 31.9616 106.668 32.278C106.697 32.3547 106.735 32.4026 106.822 32.4122C106.908 32.4122 107.004 32.4122 107.09 32.4026C107.186 32.3834 107.253 32.3259 107.253 32.2204C107.253 32.1725 107.253 32.1246 107.253 32.0766C107.253 30.2072 107.253 28.3473 107.253 26.4778C107.253 26.3819 107.253 26.2861 107.253 26.1614H106.745C106.591 26.4778 106.448 26.7942 106.304 27.0914C106.045 27.6091 105.594 27.935 105.125 28.2418C104.837 28.424 104.511 28.5198 104.195 28.6157C103.878 28.7116 103.552 28.7883 103.226 28.8074C102.095 28.8937 100.973 28.9608 99.8422 28.98C98.5192 29.0088 97.2058 28.98 95.8828 28.98C95.6239 28.98 95.3747 28.9896 95.1158 28.9896C94.9241 28.9896 94.8665 28.9321 94.857 28.7403C94.857 28.5486 94.857 28.3664 94.857 28.1747C94.857 24.2632 94.857 20.3517 94.857 16.4402C94.857 16.3922 94.8665 16.3443 94.8761 16.2868C94.9624 16.2868 95.0295 16.2772 95.1062 16.2772C97.2729 16.2772 99.4396 16.2772 101.597 16.2772C102.134 16.2772 102.661 16.2868 103.179 16.4306C103.322 16.4689 103.485 16.4593 103.639 16.4881C103.763 16.5073 103.898 16.5168 104.022 16.5552C104.358 16.6511 104.693 16.7469 105.029 16.862C105.201 16.9195 105.355 16.9962 105.527 17.0633C105.719 17.1496 105.93 17.2071 106.103 17.3222C106.553 17.6194 107.013 17.907 107.378 18.3C107.589 18.5301 107.819 18.741 108.001 18.9903C108.279 19.3738 108.519 19.7764 108.758 20.1887C108.873 20.3804 108.94 20.5913 109.036 20.7831C109.084 20.879 109.142 20.9652 109.19 21.0611C109.238 21.1378 109.295 21.1857 109.391 21.1666C109.496 21.1474 109.583 21.0995 109.611 20.994C109.631 20.9173 109.631 20.831 109.631 20.7543C109.631 20.4667 109.611 20.1791 109.602 19.8915C109.592 19.7093 109.573 19.5176 109.554 19.3354C109.506 18.8849 109.42 18.4438 109.42 17.9933C109.42 17.6194 109.372 17.2455 109.343 16.8716C109.314 16.5264 109.266 16.1717 109.228 15.8266C109.228 15.7786 109.199 15.7403 109.17 15.6732H108.825C102.584 15.6732 96.3429 15.6732 90.1018 15.6732C90.0347 15.6732 89.9676 15.6732 89.9004 15.6732C89.7854 15.6732 89.7279 15.7211 89.7279 15.8362C89.7279 15.9225 89.7279 15.9991 89.7375 16.0854C89.7471 16.1813 89.8046 16.2388 89.9004 16.2772C90.399 16.4497 90.7249 16.8045 90.9263 17.2838C91.0125 17.4947 91.0701 17.7152 91.1372 17.9261C91.233 18.2233 91.2714 18.5205 91.281 18.8177C91.3097 19.6806 91.3289 20.553 91.3385 21.4158C91.3385 25.73 91.3385 30.0442 91.3385 34.3488C91.3385 36.7359 91.3769 39.1231 91.3002 41.5199C91.281 42.143 91.1563 42.7278 90.9263 43.3031L90.9454 43.3127Z" fill="#49413D"/>
<path d="M46.5958 19.3067C46.7587 19.556 46.8834 19.834 47.0272 20.1024C47.1231 20.2654 47.2189 20.3037 47.3915 20.2558C47.5641 20.2079 47.6024 20.1408 47.5928 19.949C47.5928 19.9011 47.5928 19.8532 47.5928 19.8052C47.5065 18.9136 47.4298 18.0316 47.4298 17.14C47.4298 16.7853 47.4107 16.4402 47.3915 16.0854C47.3723 15.7307 47.3244 15.6828 46.9601 15.6828C46.7875 15.6828 46.6149 15.6828 46.4424 15.6828C39.8465 15.6828 33.2602 15.6828 26.6643 15.6828C26.4438 15.6828 26.2233 15.6828 26.0028 15.6828C25.811 15.6828 25.7727 15.7115 25.7439 15.9033C25.7056 16.1525 25.6672 16.4018 25.6576 16.6607C25.6289 17.4468 25.6097 18.2329 25.5809 19.0191C25.5809 19.1437 25.5714 19.2683 25.5618 19.3834C25.5426 19.5943 25.5138 19.8052 25.4851 20.0161C25.4755 20.1312 25.533 20.1983 25.6289 20.2462C25.8014 20.3229 25.8973 20.3037 26.0028 20.1503C26.0507 20.0832 26.1082 20.0257 26.1466 19.949C26.3192 19.5943 26.5109 19.2588 26.7314 18.9328C27.0765 18.4055 27.4888 17.9549 27.9777 17.5523C28.505 17.1113 29.0898 16.7853 29.7801 16.6607C29.8472 16.6511 29.9143 16.6127 29.991 16.5936C30.154 16.5552 30.3265 16.5073 30.4895 16.4881C30.6908 16.4593 30.8922 16.4497 31.1031 16.4306C31.429 16.3922 31.755 16.3155 32.081 16.3059C32.8959 16.2868 33.7012 16.2964 34.5161 16.2964C34.6215 16.2964 34.727 16.3155 34.8612 16.3251V16.8332C34.8612 22.9594 34.8612 29.0951 34.8612 35.2212C34.8612 37.0715 34.8612 38.9218 34.8612 40.7721C34.8612 41.2035 34.8516 41.6253 34.7366 42.0376C34.6982 42.191 34.6791 42.3636 34.6791 42.5265C34.6695 42.8525 34.5257 43.1401 34.401 43.4373C34.2476 43.8016 33.9792 44.0988 33.6053 44.2714C33.5286 44.3097 33.4423 44.3481 33.3752 44.4056C33.3273 44.4439 33.2602 44.5111 33.2506 44.5686C33.2314 44.6932 33.2506 44.8274 33.2506 44.9425C33.519 45.0096 39.7985 45 39.9807 44.9425V44.4727C39.6547 44.3193 39.3479 44.1563 39.1179 43.8975C38.8782 43.6386 38.7344 43.3127 38.6289 42.9867C38.5618 42.795 38.5331 42.5936 38.4947 42.3923C38.4659 42.2677 38.4372 42.1335 38.4276 42.0088C38.4084 41.031 38.3892 40.0627 38.3797 39.0848C38.3797 37.8001 38.3797 36.5154 38.3797 35.2308C38.3797 29.1718 38.3797 23.1032 38.3797 17.0441C38.3797 16.8141 38.3988 16.5936 38.4084 16.3539C38.4659 16.3443 38.5043 16.3251 38.5426 16.3251C39.3671 16.3251 40.2012 16.3059 41.0257 16.3443C41.7639 16.3826 42.5117 16.4497 43.2211 16.6798C43.2403 16.6798 43.2499 16.6798 43.2691 16.6798C43.7197 16.7182 44.1127 16.9483 44.4962 17.1496C44.9084 17.3605 45.2632 17.6577 45.5987 17.9933C46.0014 18.3959 46.3177 18.8657 46.6341 19.3259L46.5958 19.3067Z" fill="#49413D"/>
<path d="M159.771 20.2558C159.934 20.2079 159.991 20.1503 159.991 19.9778C159.991 19.8531 159.982 19.7285 159.963 19.6135C159.896 18.8848 159.819 18.1466 159.828 17.4084C159.828 16.9387 159.8 16.4785 159.78 16.0087C159.771 15.7211 159.713 15.6732 159.426 15.6732C159.167 15.6732 158.918 15.6732 158.659 15.6732C152.178 15.6732 145.707 15.6732 139.226 15.6732C138.957 15.6732 138.689 15.6732 138.411 15.6732C138.2 15.6732 138.162 15.7019 138.133 15.9033C138.095 16.1621 138.056 16.421 138.037 16.6798C138.008 17.4468 137.989 18.2138 137.97 18.9807C137.97 19.1533 137.941 19.3259 137.922 19.4888C137.903 19.6614 137.893 19.834 137.884 20.0065C137.874 20.1503 137.951 20.2175 138.075 20.2558C138.19 20.2941 138.305 20.3037 138.373 20.1695C138.488 19.9682 138.622 19.7669 138.727 19.5559C138.919 19.1437 139.188 18.789 139.466 18.4343C139.782 18.0412 140.146 17.6865 140.558 17.3893C141.028 17.0441 141.536 16.7757 142.121 16.6607C142.198 16.6415 142.275 16.6031 142.351 16.5935C142.524 16.5552 142.696 16.5073 142.879 16.4785C143.07 16.4497 143.272 16.4402 143.463 16.421C143.789 16.3826 144.115 16.3059 144.441 16.2963C145.266 16.2772 146.1 16.2868 146.924 16.2868C147.02 16.2868 147.116 16.3059 147.231 16.3155V16.6798C147.231 18.6356 147.231 20.5913 147.231 22.5471C147.231 28.7212 147.231 34.9048 147.221 41.0789C147.221 41.2898 147.193 41.5007 147.164 41.7116C147.126 41.9992 147.078 42.2964 147.03 42.584C147.02 42.6607 147.011 42.747 146.982 42.8237C146.876 43.0826 146.771 43.3318 146.656 43.5811C146.541 43.8304 146.339 44.0125 146.1 44.1563C145.966 44.2426 145.831 44.3001 145.697 44.3864C145.659 44.4152 145.611 44.4727 145.611 44.5206C145.601 44.6548 145.611 44.7891 145.611 44.9233C145.908 44.9712 152.14 44.9616 152.331 44.9233V44.4535C152.015 44.3001 151.708 44.1467 151.469 43.8879C151.219 43.6194 151.075 43.2935 150.97 42.9484C150.912 42.7662 150.884 42.584 150.845 42.4019C150.817 42.2773 150.778 42.143 150.769 42.0184C150.749 41.3281 150.721 40.6475 150.721 39.9572C150.721 32.3355 150.721 24.7234 150.721 17.1017C150.721 16.8524 150.74 16.5935 150.74 16.3251C150.807 16.3155 150.836 16.3059 150.865 16.3059C151.699 16.3059 152.542 16.2868 153.376 16.3251C153.952 16.3539 154.536 16.4497 155.112 16.5168C155.16 16.5168 155.207 16.536 155.255 16.5456C155.591 16.6511 155.926 16.7565 156.252 16.8716C156.578 16.9866 156.885 17.14 157.163 17.3317C157.71 17.7056 158.17 18.1658 158.553 18.7027C158.707 18.9232 158.87 19.1437 159.004 19.3738C159.157 19.6231 159.282 19.8915 159.426 20.1503C159.502 20.2846 159.598 20.3133 159.761 20.275L159.771 20.2558Z" fill="#49413D"/>
<path d="M185.857 15.6732C185.733 15.6732 185.598 15.6732 185.474 15.6732C184.228 15.6732 182.981 15.6732 181.735 15.6732C181.562 15.6732 181.39 15.6732 181.217 15.6732C181.15 15.6732 181.073 15.6828 181.035 15.7211C180.939 15.817 180.958 15.9512 180.987 16.0662C181.006 16.1717 181.073 16.2484 181.179 16.258C181.342 16.2676 181.466 16.3539 181.601 16.4306C182.003 16.6702 182.138 17.0537 182.128 17.466C182.118 17.8015 182.022 18.1466 181.907 18.4726C181.754 18.904 181.553 19.3067 181.361 19.7285C181.284 19.8915 181.198 20.0449 181.112 20.1983C180.949 20.4955 180.776 20.7927 180.604 21.0899C180.45 21.3679 180.297 21.6459 180.143 21.9239C179.971 22.2403 179.789 22.5471 179.616 22.8539C179.463 23.1319 179.309 23.4099 179.146 23.688C178.983 23.966 178.82 24.2536 178.657 24.5316C178.494 24.8192 178.341 25.1164 178.178 25.404C177.948 25.7971 177.718 26.1902 177.488 26.5928C177.258 26.9955 177.047 27.4077 176.817 27.8104C176.587 28.213 176.347 28.6061 176.117 29.0088C175.887 29.4114 175.666 29.8237 175.446 30.2263C175.379 30.3414 175.292 30.4564 175.197 30.6002C175.149 30.5331 175.12 30.5043 175.101 30.466C174.947 30.1976 174.794 29.9291 174.64 29.6607C174.468 29.3539 174.295 29.0567 174.123 28.7499C173.969 28.4719 173.816 28.1939 173.663 27.9158C173.48 27.5995 173.298 27.2831 173.126 26.9571C172.972 26.6791 172.819 26.4011 172.666 26.1231C172.493 25.8163 172.32 25.5095 172.148 25.2123C171.994 24.9343 171.841 24.6562 171.688 24.3878C171.525 24.1098 171.362 23.8222 171.199 23.5441C171.036 23.2469 170.873 22.9402 170.71 22.643C170.547 22.3554 170.374 22.0869 170.221 21.7993C170.058 21.5021 169.904 21.1953 169.732 20.8981C169.511 20.5051 169.272 20.112 169.042 19.7189C168.85 19.3834 168.658 19.0382 168.476 18.6931C168.39 18.5397 168.313 18.3959 168.236 18.2425C168.14 18.0412 168.073 17.8111 167.958 17.6289C167.795 17.3797 167.795 17.1016 167.786 16.8236C167.786 16.536 167.949 16.3539 168.208 16.258C168.399 16.1909 168.457 16.0567 168.418 15.8074C168.399 15.6732 168.371 15.6636 168.131 15.6636C168.092 15.6636 168.045 15.6636 168.006 15.6636C166.079 15.6636 164.152 15.6636 162.225 15.6636C162.139 15.6636 162.062 15.6636 161.976 15.6828C161.823 15.7115 161.765 15.7978 161.794 15.9512C161.823 16.095 161.871 16.2292 162.043 16.2867C162.196 16.3443 162.34 16.4306 162.474 16.5168C163.021 16.8811 163.51 17.3126 163.913 17.8303C164.229 18.2425 164.536 18.6643 164.833 19.0958C164.996 19.3354 165.14 19.5943 165.283 19.8531C165.446 20.1312 165.6 20.3996 165.763 20.6776C165.916 20.9556 166.07 21.2337 166.223 21.5117C166.396 21.8281 166.578 22.154 166.75 22.4704C166.904 22.7388 167.057 23.0073 167.201 23.2757C167.373 23.5921 167.536 23.9085 167.709 24.2152C167.862 24.5029 168.025 24.7809 168.188 25.0685C168.37 25.3849 168.543 25.7108 168.716 26.0272C168.879 26.3244 169.032 26.612 169.195 26.9092C169.358 27.1968 169.521 27.494 169.674 27.7816C169.837 28.0788 170.01 28.376 170.173 28.6828C170.336 28.9704 170.489 29.2676 170.652 29.5648C170.815 29.8524 170.978 30.1305 171.132 30.4181C171.295 30.7153 171.419 31.022 171.601 31.3001C171.812 31.626 171.899 31.9808 171.899 32.3642C171.899 34.9911 171.899 37.6179 171.899 40.2448C171.899 40.4557 171.879 40.6666 171.86 40.8775C171.822 41.2898 171.774 41.6924 171.745 42.0951C171.726 42.3635 171.745 42.632 171.592 42.8812C171.563 42.9292 171.563 42.9867 171.544 43.0442C171.438 43.3989 171.285 43.7345 170.988 43.9742C170.748 44.1659 170.47 44.3097 170.192 44.4919C170.192 44.511 170.182 44.559 170.173 44.6069C170.154 44.8849 170.202 44.9424 170.48 44.9424C170.508 44.9424 170.528 44.9424 170.556 44.9424C172.627 44.9424 174.708 44.9424 176.778 44.9424C176.855 44.9424 176.941 44.9424 177.028 44.9329V44.4535C176.826 44.3385 176.644 44.2522 176.472 44.1467C176.059 43.8975 175.839 43.4948 175.685 43.0634C175.628 42.8812 175.618 42.6799 175.532 42.5073C175.503 42.4402 175.494 42.3635 175.484 42.2964C175.446 41.6349 175.388 40.9734 175.388 40.3119C175.369 37.6084 175.388 34.9144 175.369 32.2108C175.369 31.7698 175.522 31.4055 175.733 31.0412C175.916 30.7344 176.088 30.4181 176.27 30.1113C176.424 29.8428 176.567 29.5744 176.721 29.2964C176.893 28.9896 177.066 28.6924 177.239 28.3856C177.392 28.1076 177.545 27.8296 177.699 27.5515C177.871 27.2352 178.053 26.9284 178.236 26.6216C178.389 26.3436 178.542 26.0655 178.696 25.7875C178.859 25.4999 179.031 25.2123 179.194 24.9151C179.357 24.6275 179.52 24.3303 179.683 24.0427C179.846 23.7551 180.009 23.477 180.172 23.199C180.335 22.9114 180.489 22.6142 180.652 22.317C180.949 21.7993 181.246 21.2912 181.543 20.7735C181.859 20.2079 182.166 19.6518 182.531 19.1149C182.895 18.5781 183.269 18.0604 183.729 17.6002C184.314 17.0154 184.937 16.4689 185.761 16.2388C185.8 16.2292 185.857 16.1813 185.867 16.1525C185.896 16.0087 185.944 15.8553 185.838 15.6828L185.857 15.6732Z" fill="#49413D"/>
<path d="M282.686 44.3001C282.025 44.0125 281.632 43.4757 281.546 42.7662C281.431 41.8171 281.306 40.868 281.296 39.9189C281.277 33.4188 281.287 26.9188 281.296 20.4092C281.296 19.7573 281.296 19.0958 281.383 18.4439C281.507 17.4372 281.651 16.4114 282.811 15.9704C282.897 15.9416 282.955 15.6828 282.926 15.5486C282.907 15.4719 282.696 15.3952 282.571 15.3952C280.577 15.3856 278.574 15.3856 276.58 15.3952C276.436 15.3952 276.302 15.5294 276.158 15.5965C276.244 15.7403 276.302 15.9512 276.436 16.0183C276.915 16.2772 277.299 16.6319 277.423 17.1592C277.586 17.8782 277.768 18.6068 277.778 19.3259C277.826 22.3745 277.807 25.4136 277.816 28.4623C277.816 28.8075 277.701 28.9033 277.366 28.9033C272.294 28.9033 267.213 28.9033 262.141 28.9033C261.796 28.9033 261.7 28.7883 261.7 28.4527C261.71 25.4712 261.7 22.4992 261.729 19.5176C261.729 18.8561 261.825 18.185 261.95 17.5331C262.074 16.8812 262.391 16.3251 263.043 16.0375C263.263 15.9416 263.436 15.817 263.349 15.5965C263.301 15.4815 263.062 15.376 262.908 15.376C260.924 15.3568 258.939 15.3664 256.955 15.376C256.821 15.376 256.61 15.4527 256.571 15.5582C256.485 15.7595 256.571 15.9321 256.83 16.0279C257.3 16.2101 257.645 16.5552 257.779 17.0346C257.942 17.6194 258.134 18.2329 258.134 18.8273C258.163 22.5951 258.153 26.3628 258.153 30.1401C258.172 30.1401 258.192 30.1401 258.211 30.1401C258.211 33.16 258.211 36.1799 258.211 39.1998C258.211 40.101 258.201 41.0022 258.115 41.9034C258.019 42.91 257.799 43.8879 256.706 44.3577C256.61 44.396 256.552 44.6357 256.581 44.7699C256.6 44.8466 256.801 44.9329 256.926 44.9329C258.939 44.9425 260.943 44.9425 262.956 44.9329C263.091 44.9329 263.234 44.7987 263.369 44.722C263.273 44.5782 263.215 44.3768 263.081 44.3001C262.602 44.0221 262.189 43.6866 262.074 43.1305C261.921 42.4019 261.739 41.6541 261.729 40.9159C261.691 37.3112 261.71 33.7064 261.691 30.1017C261.691 29.7182 261.815 29.6128 262.189 29.6128C267.223 29.6224 272.256 29.6224 277.289 29.6128C277.682 29.6128 277.807 29.7374 277.807 30.1305C277.797 33.4476 277.807 36.7647 277.788 40.0914C277.788 40.9351 277.682 41.7787 277.567 42.6128C277.471 43.351 277.126 43.9646 276.407 44.2906C276.177 44.396 276.062 44.5686 276.158 44.7603C276.206 44.8658 276.436 44.9425 276.589 44.9425C278.574 44.9521 280.558 44.9521 282.543 44.9425C282.677 44.9425 282.888 44.8658 282.926 44.7699C283.012 44.5686 282.926 44.4056 282.686 44.3001Z" fill="#49413D"/>
<path d="M216.497 39.5545C216.354 39.7846 216.258 40.0434 216.143 40.2927C215.088 42.469 213.334 43.744 210.975 44.1179C208.243 44.5398 205.482 44.3193 202.74 44.3097C201.973 44.3097 201.369 43.907 201.139 43.1305C201.053 42.8333 201.053 42.5073 201.053 42.2005C201.053 38.3178 201.053 34.4446 201.053 30.5618C201.053 30.3126 201.062 30.0729 201.053 29.8236C201.034 29.5552 201.149 29.4593 201.408 29.4689C201.983 29.4785 202.558 29.4689 203.133 29.4689C205.357 29.5264 207.591 29.3059 209.806 29.699C211.244 29.9483 212.423 30.5427 212.941 32.0287C212.979 32.1437 213.19 32.2108 213.315 32.2971C213.391 32.1725 213.526 32.0478 213.526 31.9232C213.535 30.0537 213.535 28.1842 213.526 26.3052C213.526 26.1805 213.382 26.0655 213.305 25.9409C213.18 26.0272 212.989 26.0943 212.941 26.2189C212.596 27.1968 211.953 27.9062 210.985 28.2322C210.266 28.4719 209.499 28.6636 208.751 28.6924C206.335 28.7786 203.91 28.7786 201.494 28.8266C201.11 28.8266 201.043 28.654 201.043 28.328C201.043 24.3782 201.043 20.4283 201.043 16.488C201.043 16.1333 201.129 16.0183 201.503 16.0183C203.421 16.0374 205.338 16.0183 207.246 16.0183C208.435 16.0183 209.614 16.1141 210.774 16.4305C212.26 16.8332 213.497 17.6193 214.388 18.8752C214.772 19.4121 215.04 20.0352 215.385 20.6009C215.472 20.7447 215.644 20.8214 215.778 20.9364C215.846 20.7735 215.913 20.6105 215.97 20.4475C215.989 20.3996 215.97 20.342 215.97 20.2845C215.836 18.7602 215.702 17.2358 215.587 15.7115C215.558 15.3855 215.376 15.3855 215.146 15.3855C208.876 15.3855 202.615 15.3855 196.346 15.3951C196.202 15.3951 195.972 15.4814 195.924 15.5869C195.837 15.7978 195.962 15.9512 196.192 16.047C196.652 16.2388 197.007 16.5743 197.132 17.0633C197.285 17.6289 197.477 18.2041 197.486 18.7793C197.515 22.5662 197.506 26.3435 197.506 30.1304H197.573C197.573 33.1599 197.573 36.199 197.573 39.2285C197.573 40.0626 197.563 40.8967 197.486 41.7307C197.391 42.8045 197.218 43.8687 196.039 44.3768C195.972 44.4055 195.924 44.5206 195.905 44.6069C195.837 44.9999 196.115 44.9616 196.365 44.9616C202.999 44.9616 209.633 44.9616 216.267 44.9616C216.325 44.9616 216.373 44.9616 216.43 44.9616C216.651 44.9808 216.747 44.8753 216.756 44.6548C216.776 44.2042 216.814 43.7536 216.843 43.303C216.919 42.1046 216.996 40.9063 217.054 39.7079C217.054 39.5832 216.919 39.449 216.843 39.3244C216.728 39.4011 216.565 39.4586 216.497 39.5737V39.5545Z" fill="#49413D"/>
<path d="M254.731 31.8656C254.731 31.5396 254.616 31.4342 254.299 31.4438C253.216 31.4533 252.142 31.4438 251.059 31.4438C250.551 31.4438 250.043 31.4342 249.544 31.4533C249.419 31.4533 249.304 31.578 249.189 31.6451C249.266 31.7601 249.324 31.8943 249.419 31.9998C249.477 32.0573 249.592 32.0669 249.688 32.0957C250.254 32.3066 250.771 32.6325 250.953 33.2365C251.136 33.8118 251.289 34.4253 251.308 35.0197C251.375 36.5632 251.327 38.1068 251.394 39.6503C251.423 40.2926 251.193 40.7815 250.81 41.2513C249.372 43.0057 247.464 43.8877 245.24 44.0891C242.325 44.3575 239.689 43.5139 237.378 41.769C234.588 39.6599 232.911 36.7837 231.875 33.505C231.434 32.0957 231.166 30.648 231.051 29.1716C230.849 26.6215 231.06 24.1288 232.057 21.7417C233.361 18.6163 235.624 16.5934 238.941 15.7977C241.079 15.28 243.197 15.3471 245.287 16.0086C248.183 16.9194 250.359 18.7026 251.826 21.3582C251.903 21.502 251.96 21.6554 252.056 21.7896C252.113 21.8663 252.257 21.943 252.315 21.9238C252.401 21.8855 252.478 21.7608 252.516 21.6554C252.545 21.5595 252.526 21.4349 252.516 21.3294C252.468 19.9681 252.401 18.5971 252.363 17.2357C252.363 16.9577 252.238 16.7851 252.018 16.6893C251.356 16.4017 250.704 16.0853 250.023 15.8552C248.336 15.2992 246.591 14.9732 244.818 14.8006C241.28 14.4651 237.934 15.0403 234.838 16.8427C231.971 18.5204 229.939 20.9268 228.683 23.9946C228.136 25.3368 227.81 26.7365 227.638 28.1842C227.369 30.4275 227.58 32.6325 228.175 34.7896C228.635 36.477 229.411 38.0396 230.495 39.4394C231.818 41.1459 233.447 42.4497 235.394 43.37C237.033 44.1466 238.759 44.6164 240.571 44.8177C242.124 44.9903 243.667 45.0478 245.22 44.7985C246.946 44.5205 248.576 43.9836 250.129 43.1879C251.768 42.3442 253.206 41.2321 254.405 39.8133C254.625 39.5448 254.74 39.2764 254.731 38.9217C254.712 37.7712 254.731 36.6303 254.731 35.4799C254.731 34.2815 254.731 33.0736 254.731 31.8752V31.8656Z" fill="#49413D"/>
<path d="M306.798 15.9128C306.779 15.5006 306.616 15.3855 306.223 15.3855C299.301 15.3855 292.379 15.3951 285.457 15.3855C285.074 15.3855 284.959 15.5197 284.939 15.8745C284.882 17.1112 284.796 18.3575 284.738 19.5942C284.738 19.7381 284.853 19.8819 284.92 20.0257C285.055 19.949 285.246 19.901 285.323 19.7764C285.572 19.4025 285.764 18.9903 286.013 18.6164C286.905 17.2454 288.189 16.4305 289.8 16.2292C291.027 16.0758 292.283 16.0758 293.52 16.0374C294.143 16.0183 294.143 16.0374 294.143 16.6606C294.143 24.1577 294.143 31.6548 294.143 39.1518C294.143 40.2543 294.057 41.3569 293.951 42.4594C293.875 43.2743 293.52 43.9358 292.734 44.3193C292.609 44.3864 292.552 44.5973 292.465 44.7507C292.6 44.8178 292.734 44.9328 292.868 44.9328C294.91 44.9424 296.942 44.9424 298.984 44.9328C299.1 44.9328 299.224 44.8178 299.339 44.7603C299.263 44.6069 299.224 44.3864 299.1 44.3193C298.63 44.0508 298.208 43.744 298.074 43.2072C297.92 42.5648 297.738 41.9033 297.729 41.2418C297.7 37.1865 297.709 33.1312 297.709 29.0758H297.671C297.671 24.9055 297.671 20.7447 297.671 16.5743C297.671 16.0279 297.681 16.0087 298.218 16.0279C299.406 16.0758 300.595 16.095 301.774 16.21C303.001 16.3346 304.123 16.7852 304.948 17.7248C305.484 18.3479 305.906 19.067 306.376 19.7572C306.491 19.9202 306.587 20.1311 306.808 19.9969C306.923 19.9298 307.009 19.7189 306.999 19.5751C306.951 18.3479 306.855 17.1208 306.808 15.8936L306.798 15.9128Z" fill="#49413D"/>
<path d="M225.442 44.2904C224.915 44.0508 224.531 43.6577 224.416 43.0921C224.273 42.4018 224.1 41.6924 224.1 41.0021C224.081 33.783 224.081 26.5544 224.1 19.3353C224.1 18.7409 224.196 18.137 224.32 17.5522C224.455 16.8715 224.809 16.325 225.49 16.0182C225.605 15.9703 225.653 15.7498 225.73 15.606C225.596 15.5389 225.471 15.4047 225.337 15.4047C223.323 15.3951 221.32 15.3951 219.306 15.4047C219.182 15.4047 219.048 15.5293 218.923 15.5964C219.009 15.7402 219.057 15.9607 219.182 16.0278C219.642 16.2675 220.035 16.5743 220.15 17.0824C220.323 17.8781 220.524 18.6834 220.534 19.4887C220.572 23.0551 220.553 26.6119 220.553 30.1783H220.582C220.582 33.1503 220.582 36.1319 220.582 39.1039C220.582 39.9954 220.582 40.8775 220.495 41.7595C220.399 42.8236 220.217 43.8686 219.057 44.3671C218.971 44.4055 218.913 44.6548 218.942 44.7794C218.961 44.8561 219.172 44.9328 219.297 44.9328C221.291 44.9328 223.285 44.9424 225.289 44.9328C225.433 44.9328 225.663 44.8465 225.711 44.741C225.806 44.5301 225.672 44.3767 225.442 44.2809V44.2904Z" fill="#49413D"/>
<path d="M25.0632 30.6193C24.4688 26.3243 21.3531 22.4799 17.2019 20.8693L16.7704 20.6776C16.6266 20.62 16.4732 20.62 16.3294 20.6776C16.1856 20.7351 16.0802 20.8501 16.0226 20.9939C15.9076 21.2911 16.0514 21.6171 16.339 21.7321L16.5308 21.8088C19.5507 23.1031 21.7749 25.8354 22.4843 29.1237C23.1746 32.3258 22.2734 35.5758 20.0204 38.0301C18.2948 39.9571 15.735 41.1267 13.0027 41.2418C10.2608 41.3568 7.62439 40.4077 5.74533 38.6437C2.73499 35.8826 1.68042 31.7698 3.00343 27.9062C4.33603 24.0043 7.6915 21.3678 11.7756 21.0323L12.37 20.9652V20.946C16.0898 20.3324 19.196 17.7919 20.5573 14.2063C21.9762 10.4482 21.1901 6.42161 18.4578 3.43045C16.3678 1.13914 13.3574 -0.0784131 10.165 0.0558057C6.98206 0.190024 4.08677 1.66643 2.21729 4.09195C0.136903 6.80509 -0.524603 10.2085 0.424515 13.4202C1.39281 16.7085 3.87585 19.345 7.07793 20.4858C7.22173 20.5433 7.38471 20.5433 7.51893 20.4858C7.66274 20.4283 7.7682 20.3132 7.82572 20.1694C7.94076 19.8818 7.80654 19.5655 7.51893 19.4217C5.07423 18.3862 3.26228 16.1812 2.68706 13.5256C2.12142 10.9371 2.85004 8.31026 4.68117 6.32574C6.0617 4.78222 8.12292 3.84269 10.3279 3.74682C12.533 3.65095 14.6613 4.40833 16.176 5.82721C18.5728 8.01306 19.4356 11.2918 18.429 14.3693C17.4128 17.4851 14.7763 19.6422 11.5647 20.0065C5.55359 20.4475 0.405341 25.6916 0.0985549 31.6835C-0.313688 36.9372 2.96508 42.1238 7.88324 44.022C9.40758 44.626 11.0278 44.9328 12.648 44.9328C14.6325 44.9328 16.6075 44.4822 18.3427 43.581C23.0979 41.2801 25.9165 35.8251 25.0536 30.6193H25.0632Z" fill="url(#paint0_linear_7_81)"/>
<defs>
<linearGradient id="paint0_linear_7_81" x1="20.8737" y1="40.5611" x2="-1.22446" y2="-0.135933" gradientUnits="userSpaceOnUse">
<stop offset="0.29" stop-color="#E7A362"/>
<stop offset="0.5" stop-color="#707759"/>
<stop offset="0.67" stop-color="#1F5A54"/>
<stop offset="0.74" stop-color="#004F52"/>
</linearGradient>
</defs>
</svg>
