<svg width="32" height="17" viewBox="0 0 32 17" fill="none" xmlns="http://www.w3.org/2000/svg">
<path d="M0.0485656 8.1969C0.178075 7.67223 0.51264 7.35967 1.01449 7.2313C1.11702 7.20897 1.22494 7.20897 1.32747 7.20897C10.0855 7.20897 18.849 7.20897 27.607 7.20897C27.6448 7.20897 27.6772 7.20897 27.7365 7.20897C27.7096 7.17548 27.6934 7.15873 27.6718 7.13641C26.5548 5.9922 25.4377 4.84241 24.3207 3.6982C23.997 3.36889 23.6786 3.03959 23.3602 2.71028C23.1875 2.53167 23.0688 2.32515 23.0094 2.08515C22.9285 1.75584 22.9771 1.44327 23.139 1.15862C23.3332 0.818146 23.6246 0.611629 23.997 0.533488C24.0131 0.533488 24.0239 0.511163 24.0347 0.5C24.1588 0.5 24.283 0.5 24.4125 0.5C24.434 0.516744 24.4556 0.544651 24.4772 0.544651C24.6607 0.566977 24.8226 0.650699 24.9683 0.76233C25.0546 0.829307 25.1356 0.91303 25.2165 0.991172C25.8371 1.62188 26.4522 2.25259 27.0728 2.88888C28.0063 3.8489 28.9345 4.80892 29.868 5.76894C30.4184 6.33825 30.9743 6.90198 31.5247 7.46572C31.6973 7.64432 31.87 7.8341 31.9294 8.09085C31.9618 8.2248 32.0049 8.36434 31.9995 8.4983C31.9941 8.76621 31.9294 9.02854 31.7621 9.2518C31.7027 9.33552 31.638 9.41366 31.5624 9.48622C30.1594 10.9318 28.751 12.3719 27.348 13.8175C26.9757 14.197 26.6033 14.5766 26.231 14.9561C25.8533 15.3412 25.4755 15.7319 25.0978 16.1226C24.8873 16.3403 24.6229 16.4464 24.3315 16.491C24.1804 16.5133 24.0401 16.491 23.8998 16.4575C23.6894 16.4017 23.5059 16.2845 23.3494 16.1282C23.139 15.9161 22.9987 15.6594 22.9717 15.3635C22.9339 14.9673 23.0418 14.61 23.317 14.3254C24.2182 13.3989 25.1194 12.4835 26.0151 11.557C26.4414 11.1216 26.8677 10.6807 27.294 10.2397C27.4128 10.1169 27.5369 9.99414 27.6556 9.87135C27.6772 9.84902 27.6934 9.82669 27.7257 9.78762C27.6826 9.78762 27.6556 9.78762 27.6286 9.78762C18.8598 9.78762 10.0909 9.78762 1.32207 9.78763C0.987507 9.78763 0.690715 9.69274 0.437093 9.47506C0.280603 9.3411 0.172678 9.16808 0.0971315 8.97273C0.0647542 8.889 0.0485656 8.80528 0.0269807 8.72714C0.0269807 8.72714 0.0161883 8.72714 -3.39275e-07 8.7383C-3.44154e-07 8.62667 -3.49034e-07 8.51504 -3.54157e-07 8.39783C0.0215845 8.45364 0.0431693 8.50388 0.0647542 8.55411C0.0647542 8.48713 0.0647542 8.41458 0.0647542 8.34202C0.0647542 8.29178 0.0539618 8.23597 0.0485655 8.18573L0.0485656 8.1969Z" fill="#E7A362"/>
</svg>
